<?xml version="1.0" standalone="no"?>
<!DOCTYPE svg PUBLIC "-//W3C//DTD SVG 1.1//EN" "http://www.w3.org/Graphics/SVG/1.1/DTD/svg11.dtd" >
<svg>
<metadata>
Created by FontForge 20090622 at Mon Jan 16 05:47:02 2017
 By deploy user
Copyright 2016 Indian Type Foundry
</metadata>
<defs>
<font id="Alpinist-Bold" horiz-adv-x="500" >
  <font-face 
    font-family="Alpinist"
    font-weight="700"
    font-stretch="normal"
    units-per-em="1000"
    panose-1="2 0 8 0 3 0 0 2 0 2"
    ascent="750"
    descent="-250"
    x-height="412"
    cap-height="680"
    bbox="-168.704 -276 1137 968"
    underline-thickness="45"
    underline-position="-86"
    unicode-range="U+000D-U+FB02"
  />
<missing-glyph 
d="M370 27v626h-240v-626h240zM104 0q-4 0 -4 5v670q0 5 4 5h292q4 0 4 -5v-670q0 -5 -4 -5h-292z" />
    <glyph glyph-name="fi" unicode="fi" horiz-adv-x="570" 
d="M449 478q-33 0 -55 22.5t-22 56.5q0 32 22 54.5t55 22.5q34 0 56.5 -22.5t22.5 -54.5q0 -34 -22.5 -56.5t-56.5 -22.5zM381 16v379q0 17 18 17h102q17 0 17 -17v-379q0 -16 -17 -16h-102q-18 0 -18 16zM219 16q0 -16 -16 -16h-103q-17 0 -17 16v287h-48q-17 0 -17 16v76
q0 17 17 17h48v110q0 168 148 168q70 0 124 -30q17 -8 9 -22l-31 -68q-8 -16 -23 -8q-30 15 -55 15q-20 0 -28 -12t-8 -40v-113h91q17 0 17 -17v-76q0 -16 -17 -16h-91v-287z" />
    <glyph glyph-name="fl" unicode="fl" horiz-adv-x="570" 
d="M381 16v647q0 17 18 17h102q17 0 17 -17v-647q0 -16 -17 -16h-102q-18 0 -18 16zM219 16q0 -16 -16 -16h-103q-17 0 -17 16v287h-48q-17 0 -17 16v76q0 17 17 17h48v110q0 168 148 168q66 0 116 -26q15 -8 9 -22l-31 -68q-4 -9 -9 -10t-14 2q-29 11 -47 11q-20 0 -28 -12
t-8 -40v-113h91q17 0 17 -17v-76q0 -16 -17 -16h-91v-287z" />
    <glyph glyph-name=".notdef" 
d="M370 27v626h-240v-626h240zM104 0q-4 0 -4 5v670q0 5 4 5h292q4 0 4 -5v-670q0 -5 -4 -5h-292z" />
    <glyph glyph-name=".null" horiz-adv-x="0" 
 />
    <glyph glyph-name=".null" horiz-adv-x="0" 
 />
    <glyph glyph-name="nonmarkingreturn" horiz-adv-x="333" 
 />
    <glyph glyph-name="CR" unicode="&#xd;" horiz-adv-x="0" 
 />
    <glyph glyph-name="space" unicode=" " horiz-adv-x="184" 
 />
    <glyph glyph-name="exclam" unicode="!" horiz-adv-x="286" 
d="M82 218l-17 444q-1 8 4 13t13 5h115q19 0 17 -18l-18 -444q0 -17 -17 -17h-79q-16 0 -18 17zM141 -10q-35 0 -57 23t-22 57t22 57t57 23t58 -23.5t23 -56.5q0 -34 -23 -57t-58 -23z" />
    <glyph glyph-name="quotedbl" unicode="&#x22;" horiz-adv-x="373" 
d="M218 475l-12 175q-3 30 25 30h70q27 0 24 -30l-14 -175q-3 -23 -22 -23h-49q-11 0 -15.5 5t-6.5 18zM59 475l-12 175q-3 30 25 30h70q27 0 24 -30l-14 -175q-3 -23 -22 -23h-49q-11 0 -15.5 5t-6.5 18z" />
    <glyph glyph-name="numbersign" unicode="#" horiz-adv-x="596" 
d="M338 258l21 102h-107l-21 -102h107zM181 16q-5 -16 -17 -16h-85q-18 0 -13 16l31 149h-55q-16 0 -16 17v59q0 17 16 17h74l21 102h-57q-7 0 -12 5t-5 12v60q0 17 17 17h76l31 149q5 17 17 17h87q16 0 11 -17l-31 -149h108l31 149q3 17 16 17h87q15 0 12 -17l-31 -149h59
q16 0 16 -17v-60q0 -17 -16 -17h-79l-21 -102h62q17 0 17 -17v-59q0 -17 -17 -17h-81l-31 -149q-3 -16 -17 -16h-85q-18 0 -13 16l31 149h-107z" />
    <glyph glyph-name="dollar" unicode="$" horiz-adv-x="573" 
d="M331 -100h-87q-7 0 -12 5t-5 12v77q-98 10 -176 52q-19 10 -11 30l40 85q9 18 26 9q114 -56 196 -56q40 0 61.5 18t21.5 48q0 34 -27.5 55t-111.5 48q-108 33 -152.5 82t-44.5 125q0 74 45 128t133 68v77q0 7 5 12t12 5h87q16 0 16 -17v-77q96 -14 163 -54q16 -10 8 -24
l-39 -86q-6 -11 -11.5 -13.5t-18.5 3.5q-95 53 -169 53q-40 0 -60 -17t-20 -44q0 -32 28 -50t113 -46q101 -34 148 -80.5t47 -131.5q0 -84 -51 -138t-138 -65v-76q0 -17 -16 -17z" />
    <glyph glyph-name="percent" unicode="%" horiz-adv-x="849" 
d="M198 306q-84 0 -133 53t-49 139q0 84 49 138t133 54q82 0 131 -54t49 -138q0 -86 -48.5 -139t-131.5 -53zM580 664q10 16 21 16h86q8 0 10 -5t-3 -12l-424 -649q-9 -14 -19 -14h-88q-7 0 -9.5 4t2.5 12zM198 406q28 0 45.5 25t17.5 67q0 41 -17.5 66t-45.5 25
q-29 0 -46.5 -25t-17.5 -66q0 -43 17.5 -67.5t46.5 -24.5zM651 -10q-84 0 -132.5 52.5t-48.5 138.5q0 85 48.5 138.5t132.5 53.5q83 0 132 -53.5t49 -138.5q0 -86 -48.5 -138.5t-132.5 -52.5zM651 89q28 0 46 25t18 67t-17.5 67t-46.5 25t-46.5 -25t-17.5 -67t17.5 -67
t46.5 -25z" />
    <glyph glyph-name="ampersand" unicode="&#x26;" horiz-adv-x="704" 
d="M675 15q-48 -25 -113 -25q-74 0 -111 36q-80 -35 -169 -35q-109 0 -175.5 53.5t-66.5 147.5q0 117 113 168q-93 46 -93 150q0 78 64.5 129t170.5 51q90 0 153 -36q15 -7 9 -24l-36 -79q-8 -19 -24 -10q-45 24 -92 24q-45 0 -68.5 -21t-23.5 -55q0 -77 132 -77h68v62
q0 18 17 18h103q17 0 17 -18v-62h101q16 0 16 -17v-76q0 -16 -16 -16h-101v-152q0 -49 35 -49q26 0 50 12q16 9 22 -8l26 -69q5 -15 -8 -22zM301 114q67 0 112 21v168h-69q-152 0 -152 -99q0 -41 30 -65.5t79 -24.5z" />
    <glyph glyph-name="quotesingle" unicode="'" horiz-adv-x="214" 
d="M59 475l-12 175q-3 30 25 30h70q27 0 24 -30l-14 -175q-3 -23 -22 -23h-49q-11 0 -15.5 5t-6.5 18z" />
    <glyph glyph-name="parenleft" unicode="(" horiz-adv-x="334" 
d="M50 280q0 151 59 261.5t146 153.5q12 5 23 -10l31 -44q10 -15 -5 -28q-54 -43 -85 -129.5t-31 -203.5q0 -118 31 -204.5t85 -128.5q15 -13 5 -28l-31 -44q-11 -15 -23 -10q-87 43 -146 153t-59 262z" />
    <glyph glyph-name="parenright" unicode=")" horiz-adv-x="334" 
d="M284 280q0 -152 -59 -262t-147 -153q-12 -5 -23 10l-30 44q-11 15 4 28q54 42 85.5 128.5t31.5 204.5q0 116 -31.5 203t-85.5 130q-15 13 -4 28l30 44q11 15 23 10q88 -43 147 -153.5t59 -261.5z" />
    <glyph glyph-name="asterisk" unicode="*" horiz-adv-x="413" 
d="M157 327q-14 -26 -36 -9l-50 36q-23 17 -4 38l68 73l-98 21q-30 5 -20 32l18 59q10 27 36 14l89 -41l-10 100q-3 30 25 30h61q29 0 25 -30l-11 -98l92 41q26 12 34 -15l20 -58q9 -28 -20 -32l-97 -20l67 -75q19 -22 -3 -38l-50 -36q-23 -17 -37 9l-48 86z" />
    <glyph glyph-name="plus" unicode="+" horiz-adv-x="425" 
d="M272 56q0 -16 -17 -16h-87q-16 0 -16 16v120h-111q-17 0 -17 18v67q0 17 17 17h111v120q0 17 16 17h87q17 0 17 -17v-120h111q17 0 17 -17v-67q0 -18 -17 -18h-111v-120z" />
    <glyph glyph-name="comma" unicode="," horiz-adv-x="254" 
d="M30 -101l43 222q6 24 33 24h93q29 0 17 -29l-84 -221q-9 -23 -33 -23h-53q-21 0 -16 27z" />
    <glyph glyph-name="hyphen" unicode="-" horiz-adv-x="339" 
d="M40 219q-17 0 -17 17v79q0 17 17 17h259q16 0 16 -17v-79q0 -17 -16 -17h-259z" />
    <glyph glyph-name="period" unicode="." horiz-adv-x="225" 
d="M111 -10q-36 0 -60.5 25t-24.5 62q0 35 24.5 60t60.5 25q37 0 62 -25t25 -60q0 -37 -25 -62t-62 -25z" />
    <glyph glyph-name="slash" unicode="/" horiz-adv-x="408" 
d="M252 663q7 17 18 17h103q18 0 11 -17l-229 -647q-5 -16 -17 -16h-102q-18 0 -13 16z" />
    <glyph glyph-name="zero" unicode="0" horiz-adv-x="515" 
d="M257 -10q-103 0 -163.5 61.5t-60.5 174.5q0 112 61 174t163 62t163 -62t61 -174q0 -113 -60.5 -174.5t-163.5 -61.5zM257 103q38 0 59 32.5t21 90.5t-21 90.5t-59 32.5t-59 -32.5t-21 -90.5t21 -90.5t59 -32.5z" />
    <glyph glyph-name="one" unicode="1" horiz-adv-x="289" 
d="M12 331v28q0 17 9 26l71 55q12 12 25 12h99q17 0 17 -17v-419q0 -16 -17 -16h-103q-16 0 -16 16v297h-68q-17 0 -17 18z" />
    <glyph glyph-name="two" unicode="2" horiz-adv-x="433" 
d="M386 0h-339q-17 0 -17 15v70q0 19 13 29q133 91 167 122t34 61q0 21 -16.5 36.5t-50.5 15.5q-8 0 -15.5 -1t-13.5 -2t-13.5 -3.5t-11.5 -3.5t-12 -5t-11 -5t-12 -6t-11 -6q-17 -8 -24 11l-26 71q-7 16 8 24q70 39 169 39q88 0 134.5 -38.5t46.5 -105.5q0 -57 -42 -102
t-138 -107h181q18 0 18 -18v-76q0 -15 -18 -15z" />
    <glyph glyph-name="three" unicode="3" horiz-adv-x="426" 
d="M177 -130q-98 0 -172 39q-14 8 -7 24l25 71q6 19 24 10q66 -31 122 -31q40 0 63.5 18.5t23.5 49.5q0 69 -115 69q-21 0 -21 23v57q0 23 20 23q51 0 73.5 21t22.5 51q0 24 -18 39t-52 15q-40 0 -100 -31q-18 -8 -24 10l-27 72q-7 16 8 24q70 38 170 38q88 0 136 -40.5
t48 -108.5q0 -43 -25 -77.5t-74 -51.5q57 -16 88 -52t31 -87q0 -80 -61 -127.5t-159 -47.5z" />
    <glyph glyph-name="four" unicode="4" horiz-adv-x="496" 
d="M146 106h124v187zM399 -102q0 -18 -17 -18h-95q-17 0 -17 18v109h-237q-17 0 -17 17v46q0 12 10 27l232 342q9 13 24 13h100q17 0 17 -17v-329h63q7 0 12 -5t5 -12v-65q0 -17 -17 -17h-63v-109z" />
    <glyph glyph-name="five" unicode="5" horiz-adv-x="429" 
d="M181 -130q-99 0 -171 39q-14 7 -8 24l26 71q6 19 24 10q64 -31 112 -31t73.5 23.5t25.5 63.5q0 38 -28.5 61.5t-74.5 23.5q-32 0 -59.5 -5t-33.5 -5q-21 0 -21 23v271q0 16 17 16h297q17 0 17 -16v-77q0 -17 -17 -17h-184v-94q14 2 21 2q99 0 153 -50t54 -130
q0 -91 -63 -147t-160 -56z" />
    <glyph glyph-name="six" unicode="6" horiz-adv-x="505" 
d="M253 -10q-102 0 -162.5 54.5t-60.5 151.5q0 63 27 122t87 145l60 86q15 23 34 23h101q15 0 18.5 -9t-5.5 -19l-116 -150q6 1 18 1q101 0 161.5 -50.5t60.5 -148.5t-60.5 -152t-162.5 -54zM253 103q38 0 58.5 24t20.5 69q0 44 -21 68.5t-58 24.5t-57.5 -24.5t-20.5 -68.5
q0 -45 20.5 -69t57.5 -24z" />
    <glyph glyph-name="seven" unicode="7" horiz-adv-x="399" 
d="M156 -120h-90q-27 0 -14 29l201 436h-227q-17 0 -17 17v77q0 16 17 16h337q17 0 17 -16v-70q0 -19 -6 -34l-184 -431q-9 -24 -34 -24z" />
    <glyph glyph-name="eight" unicode="8" horiz-adv-x="509" 
d="M254 -10q-103 0 -163.5 46.5t-60.5 132.5q0 88 81 132q-64 39 -64 115q0 79 56 122.5t151 43.5t151 -43.5t56 -122.5q0 -76 -64 -115q81 -44 81 -132q0 -86 -60.5 -132.5t-163.5 -46.5zM254 340q70 0 70 70q0 31 -18.5 49t-51.5 18t-51.5 -18t-18.5 -49q0 -70 70 -70z
M254 95q39 0 61 21.5t22 59.5t-22 59.5t-61 21.5t-61.5 -21.5t-22.5 -59.5t22.5 -59.5t61.5 -21.5z" />
    <glyph glyph-name="nine" unicode="9" horiz-adv-x="505" 
d="M267 -120h-102q-15 0 -18.5 9t5.5 20l116 149q-6 -1 -18 -1q-102 0 -162 50t-60 149q0 98 60.5 152t162.5 54t162.5 -54.5t60.5 -151.5q0 -64 -27 -122.5t-87 -143.5l-59 -86q-7 -10 -9.5 -13t-9.5 -7t-15 -4zM251 349q-37 0 -57.5 -24.5t-20.5 -68.5t20.5 -69t57.5 -25
t58 25t21 69t-20.5 68.5t-58.5 24.5z" />
    <glyph glyph-name="colon" unicode=":" horiz-adv-x="225" 
d="M111 249q-36 0 -60.5 25t-24.5 62q0 35 24.5 60t60.5 25q37 0 62 -25t25 -60q0 -37 -25 -62t-62 -25zM111 -10q-36 0 -60.5 25t-24.5 62q0 35 24.5 60t60.5 25q37 0 62 -25t25 -60q0 -37 -25 -62t-62 -25z" />
    <glyph glyph-name="semicolon" unicode=";" horiz-adv-x="225" 
d="M111 249q-36 0 -60.5 25t-24.5 62q0 35 24.5 60t60.5 25q37 0 62 -25t25 -60q0 -37 -25 -62t-62 -25zM4 -101l43 222q6 24 33 24h93q29 0 17 -29l-84 -221q-9 -23 -33 -23h-53q-21 0 -16 27z" />
    <glyph glyph-name="less" unicode="&#x3c;" horiz-adv-x="425" 
d="M400 24q0 -21 -19 -13l-341 141q-16 7 -16 25v67q0 18 14 23l343 142q19 9 19 -12v-80q0 -10 -3 -14.5t-14 -8.5l-216 -83l216 -84q11 -4 14 -8.5t3 -15.5v-79z" />
    <glyph glyph-name="equal" unicode="=" horiz-adv-x="425" 
d="M41 258q-17 0 -17 17v68q0 17 17 17h342q17 0 17 -17v-68q0 -17 -17 -17h-342zM41 95q-7 0 -12 5t-5 12v68q0 17 17 17h342q17 0 17 -17v-68q0 -7 -5 -12t-12 -5h-342z" />
    <glyph glyph-name="greater" unicode="&#x3e;" horiz-adv-x="425" 
d="M43 11q-19 -8 -19 13v79q0 11 2.5 15.5t14.5 8.5l216 84l-216 83q-12 4 -14.5 8t-2.5 15v80q0 21 19 12l343 -142q14 -5 14 -23v-67q0 -18 -16 -25z" />
    <glyph glyph-name="question" unicode="?" horiz-adv-x="418" 
d="M237 201h-85q-14 0 -14 14v26q0 41 16.5 79t36.5 63t36.5 58t16.5 65q0 29 -18 45.5t-49 16.5q-43 0 -103 -29q-16 -9 -24 10l-33 73q-6 17 8 23q78 45 172 45q89 0 137.5 -42.5t48.5 -116.5q0 -42 -13.5 -78t-33 -62t-39 -49t-33 -49.5t-13.5 -54.5v-23q0 -14 -14 -14z
M196 -10q-35 0 -56.5 23t-21.5 57t21.5 57t56.5 23t58 -23.5t23 -56.5q0 -34 -23 -57t-58 -23z" />
    <glyph glyph-name="at" unicode="@" horiz-adv-x="796" 
d="M384 -169q-159 0 -256.5 87t-97.5 252q0 166 111.5 271t276.5 105q155 0 252.5 -89.5t97.5 -215.5q0 -112 -54.5 -181.5t-137.5 -69.5q-87 0 -117 59q-51 -58 -118 -58q-56 0 -91.5 41t-35.5 117q0 110 54.5 168.5t128.5 58.5q42 0 79 -29v3q2 16 17 16h79q14 0 12 -13
l-30 -203q-12 -78 43 -78q40 0 62.5 41t22.5 117q0 114 -72.5 176t-191.5 62q-124 0 -209.5 -82t-85.5 -216q0 -128 69 -195t196 -67q62 0 136 23q17 5 24 -10l17 -40q5 -14 -12 -21q-66 -29 -169 -29zM386 82q31 0 60 34q0 4 0.5 10.5t1.5 10.5l17 130q-24 17 -49 17
q-37 0 -62 -36t-25 -88q0 -78 57 -78z" />
    <glyph glyph-name="A" unicode="A" horiz-adv-x="713" 
d="M442 293l-90 247l-90 -247h180zM164 22q-7 -22 -34 -22h-93q-32 0 -21 27l252 636q7 17 24 17h129q17 0 25 -17l251 -636q11 -27 -21 -27h-100q-28 0 -35 22l-57 156h-263z" />
    <glyph glyph-name="B" unicode="B" horiz-adv-x="639" 
d="M324 558h-107v-152h108q41 0 65.5 20t24.5 57q0 35 -24.5 55t-66.5 20zM351 301h-134v-181h135q48 0 76 24t28 67q0 42 -28.5 66t-76.5 24zM90 0q-17 0 -17 16v647q0 17 17 17h237q107 0 173.5 -51.5t66.5 -134.5q0 -82 -79 -131q120 -46 120 -156q0 -95 -69.5 -151
t-185.5 -56h-263z" />
    <glyph glyph-name="C" unicode="C" horiz-adv-x="628" 
d="M369 -10q-147 0 -239.5 92.5t-92.5 257.5q0 160 91 255t241 95q121 0 224 -62q17 -9 9 -24l-42 -82q-9 -18 -24 -10q-88 53 -167 53q-82 0 -131 -62t-49 -163q0 -103 52 -164.5t140 -61.5q69 0 162 43q14 8 22 -12l36 -83q5 -15 -10 -23q-102 -49 -222 -49z" />
    <glyph glyph-name="D" unicode="D" horiz-adv-x="709" 
d="M306 558h-89v-438h88q98 0 157.5 60.5t59.5 159.5q0 98 -59.5 158t-156.5 60zM90 0q-17 0 -17 16v647q0 17 17 17h217q165 0 266 -92.5t101 -247.5q0 -154 -101 -247t-265 -93h-218z" />
    <glyph glyph-name="E" unicode="E" horiz-adv-x="602" 
d="M90 0q-17 0 -17 16v647q0 17 17 17h465q17 0 17 -18v-86q0 -18 -17 -18h-338v-141h238q17 0 17 -17v-87q0 -17 -17 -17h-238v-176h338q17 0 17 -17v-87q0 -16 -17 -16h-465z" />
    <glyph glyph-name="F" unicode="F" horiz-adv-x="561" 
d="M217 16q0 -16 -17 -16h-110q-17 0 -17 16v647q0 17 17 17h438q16 0 16 -18v-86q0 -18 -16 -18h-311v-179h248q17 0 17 -17v-86q0 -17 -17 -17h-248v-243z" />
    <glyph glyph-name="G" unicode="G" horiz-adv-x="684" 
d="M503 16v28q-63 -54 -155 -54q-137 0 -224 93t-87 257q0 160 92.5 255t244.5 95q135 0 242 -61q16 -9 8 -25l-41 -82q-9 -18 -24 -10q-98 53 -185 53q-84 0 -134.5 -62t-50.5 -163q0 -102 50.5 -164t134.5 -62q74 0 129 55v136q0 16 17 16h102q17 0 17 -16v-289
q0 -16 -17 -16h-102q-17 0 -17 16z" />
    <glyph glyph-name="H" unicode="H" horiz-adv-x="755" 
d="M217 16q0 -16 -17 -16h-110q-17 0 -17 16v647q0 17 17 17h110q17 0 17 -17v-238h320v238q0 17 17 17h111q17 0 17 -17v-647q0 -16 -17 -16h-111q-17 0 -17 16v288h-320v-288z" />
    <glyph glyph-name="I" unicode="I" horiz-adv-x="290" 
d="M73 16v647q0 17 17 17h110q17 0 17 -17v-647q0 -16 -17 -16h-110q-17 0 -17 16z" />
    <glyph glyph-name="J" unicode="J" horiz-adv-x="459" 
d="M392 182q0 -96 -51 -144t-144 -48q-91 0 -173 42q-19 9 -9 29l37 79q8 16 25 8q73 -34 113 -34q58 0 58 64v485q0 17 17 17h110q17 0 17 -17v-481z" />
    <glyph glyph-name="K" unicode="K" horiz-adv-x="659" 
d="M217 16q0 -16 -17 -16h-110q-17 0 -17 16v647q0 17 17 17h110q17 0 17 -17v-257l245 261q12 13 34 13h113q14 0 16 -7t-7 -18l-273 -289l298 -343q9 -11 6.5 -17t-15.5 -6h-131q-23 0 -38 18l-248 297v-299z" />
    <glyph glyph-name="L" unicode="L" horiz-adv-x="558" 
d="M90 0q-17 0 -17 16v647q0 17 17 17h110q17 0 17 -17v-543h308q17 0 17 -17v-87q0 -16 -17 -16h-435z" />
    <glyph glyph-name="M" unicode="M" horiz-adv-x="921" 
d="M209 16q0 -16 -17 -16h-102q-17 0 -17 16v647q0 17 17 17h123q19 0 27 -14l228 -479l228 479q7 14 27 14h107q17 0 17 -17v-647q0 -16 -17 -16h-102q-18 0 -18 16v405l-200 -407q-6 -14 -25 -14h-50q-18 0 -25 14l-201 407v-405z" />
    <glyph glyph-name="N" unicode="N" horiz-adv-x="720" 
d="M209 16q0 -16 -17 -16h-102q-17 0 -17 16v647q0 17 17 17h115q18 0 27 -14l278 -453v450q0 17 17 17h102q18 0 18 -17v-647q0 -16 -18 -16h-111q-15 0 -25 14l-284 452v-450z" />
    <glyph glyph-name="O" unicode="O" horiz-adv-x="749" 
d="M374 -10q-153 0 -245.5 95t-92.5 255t93 255t245 95q153 0 245.5 -95t92.5 -255t-92.5 -255t-245.5 -95zM374 114q84 0 135 62t51 164q0 101 -51 163t-135 62t-135 -62t-51 -163q0 -102 51 -164t135 -62z" />
    <glyph glyph-name="P" unicode="P" horiz-adv-x="625" 
d="M318 558h-101v-224h100q58 0 94.5 32t36.5 80q0 54 -35.5 83t-94.5 29zM217 16q0 -16 -17 -16h-110q-17 0 -17 16v647q0 17 17 17h230q126 0 203 -63.5t77 -170.5q0 -102 -77.5 -167t-201.5 -65h-104v-198z" />
    <glyph glyph-name="Q" unicode="Q" horiz-adv-x="749" 
d="M620 -140h-122q-15 0 -22.5 4t-15.5 16l-78 110h-8q-153 0 -245.5 95t-92.5 255t93 255t245 95q153 0 245.5 -95t92.5 -255q0 -115 -49.5 -198t-137.5 -122l104 -135q18 -25 -9 -25zM374 114q84 0 135 62t51 164q0 101 -51 163t-135 62t-135 -62t-51 -163q0 -102 51 -164
t135 -62z" />
    <glyph glyph-name="R" unicode="R" horiz-adv-x="651" 
d="M326 558h-109v-191h108q52 0 82.5 25.5t30.5 70.5q0 46 -30.5 70.5t-81.5 24.5zM217 16q0 -16 -17 -16h-110q-17 0 -17 16v647q0 17 17 17h237q119 0 191 -59t72 -158q0 -72 -40 -120t-113 -68l191 -248q9 -15 2.5 -21t-23.5 -6h-115q-13 0 -19.5 4t-16.5 18l-165 224
h-74v-230z" />
    <glyph glyph-name="S" unicode="S" horiz-adv-x="599" 
d="M318 114q46 0 71 18t25 48q0 33 -30.5 53.5t-126.5 48.5q-118 34 -166.5 82.5t-48.5 125.5q0 86 64.5 143t188.5 57q132 0 248 -67q15 -9 9 -25l-40 -85q-10 -22 -30 -11q-112 63 -193 63q-95 0 -95 -61q0 -31 30.5 -48.5t127.5 -46.5q111 -35 162.5 -81.5t51.5 -131.5
q0 -95 -69 -150.5t-182 -55.5q-153 0 -271 64q-21 10 -11 30l40 85q9 18 26 8q65 -32 114 -47.5t105 -15.5z" />
    <glyph glyph-name="T" unicode="T" horiz-adv-x="621" 
d="M382 16q0 -16 -17 -16h-110q-17 0 -17 16v542h-208q-16 0 -16 18v86q0 18 16 18h561q16 0 16 -18v-86q0 -18 -16 -18h-209v-542z" />
    <glyph glyph-name="U" unicode="U" horiz-adv-x="691" 
d="M59 266v397q0 7 5 12t12 5h111q17 0 17 -17v-399q0 -72 38 -111t103 -39t103 39t38 111v399q0 17 18 17h110q17 0 17 -17v-397q0 -127 -78 -201.5t-208 -74.5t-208 74.5t-78 201.5z" />
    <glyph glyph-name="V" unicode="V" horiz-adv-x="683" 
d="M410 0h-136q-20 0 -25 16l-234 635q-10 29 21 29h104q27 0 35 -23l171 -515l171 514q8 24 33 24h97q31 0 20 -29l-233 -635q-6 -16 -24 -16z" />
    <glyph glyph-name="W" unicode="W" horiz-adv-x="1056" 
d="M397 16q-3 -16 -23 -16h-139q-20 0 -25 16l-192 635q-8 29 21 29h104q29 0 34 -23l138 -508l136 508q3 13 10 18t24 5h95q29 0 34 -23l135 -508l138 507q6 24 33 24h96q16 0 20.5 -6.5t0.5 -22.5l-193 -635q-5 -16 -23 -16h-150q-21 0 -25 16l-124 454z" />
    <glyph glyph-name="X" unicode="X" horiz-adv-x="672" 
d="M169 22q-15 -22 -40 -22h-98q-33 0 -11 32l227 332l-200 284q-10 15 -6.5 23.5t19.5 8.5h113q24 0 39 -23l133 -189l128 189q14 23 39 23h97q15 0 18.5 -9t-5.5 -23l-199 -292l228 -324q22 -32 -11 -32h-112q-25 0 -40 22l-163 231z" />
    <glyph glyph-name="Y" unicode="Y" horiz-adv-x="625" 
d="M366 0h-110q-17 0 -17 16v220l-225 413q-7 16 -1.5 23.5t21.5 7.5h102q25 0 36 -28l145 -288l143 285q9 18 16 24.5t20 6.5h93q36 0 20 -31l-226 -415v-218q0 -16 -17 -16z" />
    <glyph glyph-name="Z" unicode="Z" horiz-adv-x="604" 
d="M577 15q0 -15 -17 -15h-514q-17 0 -17 15v72q0 26 17 44l338 427h-328q-17 0 -17 16v88q0 18 17 18h489q17 0 17 -18v-79q0 -18 -19 -41l-337 -422h354q17 0 17 -17v-88z" />
    <glyph glyph-name="bracketleft" unicode="[" horiz-adv-x="344" 
d="M94 -142q-17 0 -17 16v789q0 17 17 17h202q16 0 16 -18v-71q0 -17 -16 -17h-98v-611h98q16 0 16 -17v-71q0 -17 -16 -17h-202z" />
    <glyph glyph-name="backslash" unicode="\" horiz-adv-x="408" 
d="M155 663l229 -647q6 -16 -12 -16h-102q-12 0 -18 16l-229 647q-5 17 11 17h104q12 0 17 -17z" />
    <glyph glyph-name="bracketright" unicode="]" horiz-adv-x="344" 
d="M48 -142q-16 0 -16 17v71q0 17 16 17h98v611h-98q-16 0 -16 17v71q0 18 16 18h202q17 0 17 -17v-789q0 -16 -17 -16h-202z" />
    <glyph glyph-name="asciicircum" unicode="^" horiz-adv-x="453" 
d="M149 417q-6 -12 -10.5 -14.5t-18.5 -2.5h-75q-28 0 -11 27l133 239q8 14 22 14h73q14 0 24 -17l132 -236q17 -27 -11 -27h-75q-14 0 -18.5 2.5t-10.5 14.5l-77 145z" />
    <glyph glyph-name="underscore" unicode="_" horiz-adv-x="528" 
d="M38 -139q-16 0 -16 16v72q0 17 16 17h451q16 0 16 -17v-72q0 -16 -16 -16h-451z" />
    <glyph glyph-name="grave" unicode="`" 
d="M298 488q6 -13 1.5 -20t-17.5 -7h-62q-18 0 -32 22l-88 128q-9 12 -4 20.5t20 8.5h88q22 0 32 -23z" />
    <glyph glyph-name="a" unicode="a" horiz-adv-x="475" 
d="M216 82q27 0 58 18v72h-50q-63 0 -63 -44q0 -46 55 -46zM345 3l-36 28q-65 -39 -132 -39q-68 0 -108 34t-40 95q0 51 42.5 85t122.5 34h80v11q0 55 -61 55q-52 0 -131 -32q-17 -7 -24 11l-26 65q-7 18 14 28q96 44 191 44q85 0 129 -38t44 -129v-128q0 -17 12 -28l30 -21
q16 -12 1 -27l-51 -48q-24 -22 -57 0z" />
    <glyph glyph-name="b" unicode="b" horiz-adv-x="529" 
d="M313 -10q-72 0 -125 43v-17q0 -16 -17 -16h-103q-17 0 -17 16v647q0 7 5 12t12 5h103q17 0 17 -17v-290q49 49 126 49q83 0 134 -54.5t51 -161.5q0 -102 -50.5 -159t-135.5 -57zM275 103q38 0 58.5 27.5t20.5 75.5t-21 75.5t-60 27.5q-45 0 -85 -44v-121q41 -41 87 -41z
" />
    <glyph glyph-name="c" unicode="c" horiz-adv-x="427" 
d="M259 309q-42 0 -66 -26.5t-24 -73.5q0 -50 26 -78t73 -28q43 0 82 23q18 11 26 -8l31 -70q6 -13 -10 -23q-55 -35 -142 -35q-109 0 -168 56t-59 160q0 103 57.5 159.5t158.5 56.5q83 0 143 -33q15 -7 8 -24l-26 -72q-7 -20 -24 -10q-45 26 -86 26z" />
    <glyph glyph-name="d" unicode="d" horiz-adv-x="529" 
d="M255 103q45 0 85 44v120q-39 42 -86 42q-38 0 -59 -28t-21 -75q0 -48 21 -75.5t60 -27.5zM340 16v23q-49 -49 -127 -49q-82 0 -132.5 54t-50.5 162q0 102 50 159t134 57q73 0 126 -44v285q0 17 17 17h103q17 0 17 -17v-647q0 -16 -17 -16h-103q-17 0 -17 16z" />
    <glyph glyph-name="e" unicode="e" horiz-adv-x="490" 
d="M248 320q-29 0 -49 -19t-28 -53h151q-11 72 -74 72zM454 24q-67 -34 -180 -34q-118 0 -182.5 56.5t-64.5 159.5q0 102 60.5 159t163.5 57q90 0 145.5 -53t55.5 -140q0 -22 -3 -38q-1 -11 -18 -11h-260q8 -41 38 -63t77 -22q54 0 130 27q19 6 24 -10l22 -67q5 -14 -8 -21z
" />
    <glyph glyph-name="f" unicode="f" horiz-adv-x="343" 
d="M219 16q0 -16 -16 -16h-103q-17 0 -17 16v287h-48q-17 0 -17 16v76q0 17 17 17h48v110q0 168 148 168q68 0 130 -32q15 -10 9 -22l-32 -68q-8 -16 -23 -8q-32 17 -60 17q-20 0 -28 -12t-8 -40v-113h91q17 0 17 -17v-76q0 -16 -17 -16h-91v-287z" />
    <glyph glyph-name="g" unicode="g" horiz-adv-x="480" 
d="M237 193q30 0 48 18.5t18 50.5q0 33 -18 51.5t-48 18.5q-32 0 -49.5 -18.5t-17.5 -51.5q0 -32 18 -50.5t49 -18.5zM476 -81q0 -79 -72 -129t-195 -50q-88 0 -139.5 31t-51.5 82q0 63 75 92q-56 28 -56 93q0 63 67 96q-71 40 -71 128q0 75 54.5 117.5t149.5 42.5
q25 0 47 -3l4 13q32 89 131 89h12q8 0 13 -5.5t5 -13.5v-60q0 -19 -18 -19h-15q-26 0 -37 -4t-23 -17l-3 -3q87 -40 87 -137q0 -75 -54 -117t-149 -42q-41 0 -72 7q-14 -17 -14 -34q0 -29 38 -29h111q176 0 176 -128zM230 -177q51 0 83.5 19t32.5 48q0 21 -18.5 30.5
t-62.5 9.5h-82q-43 -21 -43 -55q0 -24 23.5 -38t66.5 -14z" />
    <glyph glyph-name="h" unicode="h" horiz-adv-x="524" 
d="M188 16q0 -16 -17 -16h-103q-17 0 -17 16v646q0 18 17 18h103q17 0 17 -18v-292q55 52 133 52q73 0 115 -40.5t42 -118.5v-247q0 -16 -17 -16h-103q-17 0 -17 14v213q0 75 -68 75q-43 0 -85 -34v-252z" />
    <glyph glyph-name="i" unicode="i" horiz-adv-x="240" 
d="M119 478q-33 0 -55.5 22.5t-22.5 56.5q0 32 22.5 54.5t55.5 22.5t56 -22.5t23 -54.5q0 -34 -23 -56.5t-56 -22.5zM51 16v379q0 17 17 17h103q17 0 17 -17v-379q0 -16 -17 -16h-103q-17 0 -17 16z" />
    <glyph glyph-name="j" unicode="j" horiz-adv-x="240" 
d="M119 478q-33 0 -55.5 22.5t-22.5 56.5q0 32 22.5 54.5t55.5 22.5t56 -22.5t23 -54.5q0 -34 -23 -56.5t-56 -22.5zM51 -95v490q0 17 17 17h103q17 0 17 -17v-483q0 -171 -152 -171q-59 0 -119 30q-15 8 -9 22l31 68q8 16 23 8q32 -15 54 -15q20 0 27.5 11.5t7.5 39.5z" />
    <glyph glyph-name="k" unicode="k" horiz-adv-x="504" 
d="M188 16q0 -16 -17 -16h-102q-18 0 -18 16v647q0 17 18 17h102q17 0 17 -17v-393l131 129q12 13 34 13h103q13 0 16 -7t-7 -17l-162 -159l187 -206q18 -23 -9 -23h-119q-25 0 -39 18l-135 163v-165z" />
    <glyph glyph-name="l" unicode="l" horiz-adv-x="240" 
d="M51 16v647q0 17 18 17h102q17 0 17 -17v-647q0 -16 -17 -16h-102q-18 0 -18 16z" />
    <glyph glyph-name="m" unicode="m" horiz-adv-x="773" 
d="M188 16q0 -16 -17 -16h-103q-17 0 -17 16v379q0 17 17 17h103q17 0 17 -17v-24q53 51 123 51q88 0 125 -64q61 64 143 64q69 0 109 -40.5t40 -118.5v-247q0 -16 -17 -16h-103q-17 0 -17 14v213q0 75 -58 75q-37 0 -75 -33v-6v-247q0 -16 -17 -16h-103q-17 0 -17 14v213
q0 75 -58 75q-37 0 -75 -33v-253z" />
    <glyph glyph-name="n" unicode="n" horiz-adv-x="523" 
d="M188 16q0 -16 -17 -16h-103q-17 0 -17 16v379q0 17 17 17h103q17 0 17 -17v-24q56 51 133 51q73 0 115 -40.5t42 -118.5v-247q0 -16 -17 -16h-103q-17 0 -17 14v213q0 75 -68 75q-43 0 -85 -34v-252z" />
    <glyph glyph-name="o" unicode="o" horiz-adv-x="519" 
d="M259 -10q-107 0 -169.5 57t-62.5 159t62.5 159t169.5 57t169.5 -57t62.5 -159t-62.5 -159t-169.5 -57zM259 103q40 0 63.5 28t23.5 75t-23.5 75t-63.5 28t-63.5 -28t-23.5 -75t23.5 -75t63.5 -28z" />
    <glyph glyph-name="p" unicode="p" horiz-adv-x="529" 
d="M275 103q38 0 58.5 27.5t20.5 75.5t-21 75.5t-60 27.5q-45 0 -85 -44v-121q41 -41 87 -41zM188 -233q0 -17 -17 -17h-103q-7 0 -12 5t-5 12v629q0 16 17 16h103q17 0 17 -16v-23q49 49 126 49q83 0 134 -54.5t51 -161.5q0 -102 -50.5 -159t-135.5 -57q-72 0 -125 43v-266
z" />
    <glyph glyph-name="q" unicode="q" horiz-adv-x="529" 
d="M460 -250h-103q-17 0 -17 17v272q-49 -49 -127 -49q-82 0 -132.5 54t-50.5 162q0 102 50 159t134 57q73 0 126 -44v18q0 16 17 16h103q17 0 17 -16v-629q0 -17 -17 -17zM255 103q45 0 85 44v120q-39 42 -86 42q-38 0 -59 -28t-21 -75q0 -48 21 -75.5t60 -27.5z" />
    <glyph glyph-name="r" unicode="r" horiz-adv-x="380" 
d="M188 16q0 -16 -17 -16h-103q-17 0 -17 16v379q0 17 17 17h103q17 0 17 -17v-40q53 67 117 67q35 0 54 -9q12 -5 8 -24l-22 -88q-4 -16 -24 -10q-28 8 -56 8q-43 0 -77 -28v-255z" />
    <glyph glyph-name="s" unicode="s" horiz-adv-x="439" 
d="M221 88q47 0 47 30q0 17 -16.5 25.5t-67.5 18.5q-148 29 -148 129q0 59 49 95t134 36q104 0 175 -39q15 -8 8 -23l-24 -61q-8 -21 -31 -10q-73 35 -125 35q-41 0 -41 -26q0 -15 17.5 -23.5t71.5 -21.5q74 -15 108 -44t34 -83q0 -136 -196 -136q-107 0 -181 37
q-18 9 -10 29l23 59q7 18 26 9q77 -36 147 -36z" />
    <glyph glyph-name="t" unicode="t" horiz-adv-x="374" 
d="M344 15q-48 -25 -113 -25q-76 0 -112 36.5t-36 115.5v161h-48q-17 0 -17 16v76q0 17 17 17h48v108q0 17 17 17h102q17 0 17 -17v-108h101q17 0 17 -17v-76q0 -16 -17 -16h-101v-152q0 -49 36 -49q27 0 49 12q17 9 23 -8l26 -69q4 -15 -9 -22z" />
    <glyph glyph-name="u" unicode="u" horiz-adv-x="513" 
d="M325 16v22q-55 -48 -124 -48q-72 0 -114 40t-42 118v248q0 16 17 16h102q17 0 17 -15v-211q0 -76 69 -76q38 0 75 26v259q0 17 17 17h102q17 0 17 -17v-379q0 -16 -17 -16h-102q-17 0 -17 16z" />
    <glyph glyph-name="v" unicode="v" horiz-adv-x="488" 
d="M301 0h-114q-19 0 -24 16l-148 368q-11 28 21 28h92q27 0 35 -22l85 -251l85 250q7 23 34 23h85q32 0 21 -28l-148 -368q-6 -16 -24 -16z" />
    <glyph glyph-name="w" unicode="w" horiz-adv-x="759" 
d="M297 16q-4 -16 -24 -16h-107q-19 0 -25 16l-125 368q-9 28 21 28h93q29 0 34 -22l64 -247l82 246q4 13 10 18t21 5h84q25 0 32 -23l81 -244l64 244q7 23 34 23h86q31 0 20 -28l-125 -368q-6 -16 -24 -16h-106q-20 0 -25 16l-83 238z" />
    <glyph glyph-name="x" unicode="x" 
d="M159 21q-14 -21 -40 -21h-89q-15 0 -18 8.5t7 23.5l142 184l-123 166q-10 12 -6.5 21t18.5 9h106q26 0 39 -22l61 -92l61 92q14 22 39 22h98q16 0 19.5 -9t-6.5 -21l-128 -166l139 -185q11 -14 8 -22.5t-18 -8.5h-105q-27 0 -41 21l-81 119z" />
    <glyph glyph-name="y" unicode="y" horiz-adv-x="488" 
d="M111 -259q-56 0 -114 28q-14 7 -9 22l26 70q6 16 23 8q46 -19 63 -19q25 0 39 15t35 73l30 82h-17q-19 0 -24 16l-148 348q-11 28 20 28h93q28 0 35 -22l88 -241l90 245q7 18 28 18h90q24 0 15 -22l-196 -506q-32 -83 -69.5 -113t-97.5 -30z" />
    <glyph glyph-name="z" unicode="z" horiz-adv-x="428" 
d="M403 15q0 -15 -17 -15h-342q-17 0 -17 15v74q0 12 13 25l179 189h-165q-17 0 -17 16v76q0 17 17 17h316q17 0 17 -17v-75q0 -13 -12 -24l-187 -187h198q17 0 17 -18v-76z" />
    <glyph glyph-name="braceleft" unicode="{" horiz-adv-x="373" 
d="M335 -125q-52 -27 -111 -27q-143 0 -143 152q0 21 6.5 74.5t6.5 76.5q0 66 -48 66h-11q-17 0 -17 17v68q0 18 17 18h11q48 0 48 65q0 23 -6.5 77t-6.5 75q0 153 143 153q59 0 111 -27q14 -8 8 -22l-32 -68q-7 -14 -22 -7q-28 11 -50 11q-38 0 -38 -51q0 -16 4.5 -65
t4.5 -71q0 -90 -71 -122q71 -32 71 -121q0 -22 -4.5 -71.5t-4.5 -64.5q0 -50 38 -50q23 0 50 11q15 7 22 -8l32 -67q6 -14 -8 -22z" />
    <glyph glyph-name="bar" unicode="|" horiz-adv-x="237" 
d="M57 -61v802q0 7 5 11.5t12 4.5h88q17 0 17 -16v-802q0 -16 -17 -16h-88q-7 0 -12 4.5t-5 11.5z" />
    <glyph glyph-name="braceright" unicode="}" horiz-adv-x="373" 
d="M37 -125q-14 8 -8 22l32 67q7 15 23 8q26 -11 49 -11q20 0 29 11.5t9 38.5q0 15 -4.5 64.5t-4.5 71.5q0 89 72 121q-72 32 -72 122q0 22 4.5 71t4.5 65q0 28 -9 39.5t-29 11.5q-23 0 -49 -11q-16 -7 -23 7l-32 68q-6 14 8 22q54 27 111 27q143 0 143 -153q0 -21 -6.5 -75
t-6.5 -77q0 -65 48 -65h12q16 0 16 -18v-68q0 -17 -16 -17h-12q-48 0 -48 -66q0 -23 6.5 -76.5t6.5 -74.5q0 -152 -143 -152q-57 0 -111 27z" />
    <glyph glyph-name="asciitilde" unicode="~" horiz-adv-x="425" 
d="M154 226q-30 0 -59 -25q-23 -18 -34 -6l-35 45q-11 11 4 27q61 63 119 63q23 0 65 -17t59 -17q29 0 57 25q23 18 33 5l37 -49q9 -11 -5 -25q-56 -60 -106 -60q-25 0 -70.5 17t-64.5 17z" />
    <glyph glyph-name="uni00A0" unicode="&#xa0;" horiz-adv-x="184" 
 />
    <glyph glyph-name="exclamdown" unicode="&#xa1;" horiz-adv-x="286" 
d="M142 422q34 0 57 -23t23 -58q0 -33 -23 -56t-57 -23q-35 0 -57 22.5t-22 56.5q0 35 22 58t57 23zM197 193l18 -442q0 -17 -18 -17h-115q-17 0 -17 17l18 442q2 17 17 17h80q15 0 17 -17z" />
    <glyph glyph-name="cent" unicode="&#xa2;" horiz-adv-x="429" 
d="M296 -73q0 -17 -17 -17h-86q-17 0 -17 17v72q-72 18 -110 71t-38 136q0 84 39 137.5t109 70.5v84q0 17 17 17h86q17 0 17 -17v-80q56 -9 91 -29q15 -7 8 -24l-26 -72q-7 -20 -24 -10q-45 26 -86 26q-42 0 -66 -26.5t-24 -73.5q0 -50 26 -78t73 -28q43 0 82 23
q18 11 26 -8l31 -70q6 -13 -10 -23q-40 -25 -101 -33v-65z" />
    <glyph glyph-name="sterling" unicode="&#xa3;" horiz-adv-x="547" 
d="M488 0h-432q-16 0 -16 16v87q0 17 16 17h75q-18 87 -27 177h-48q-16 0 -16 17v69q0 17 16 17h42v23q0 126 61 196.5t170 70.5q108 0 173 -40q15 -10 9 -24l-34 -79q-8 -19 -24 -10q-54 28 -101 28q-107 0 -107 -162v-3h146q16 0 16 -17v-69q0 -17 -16 -17h-142
q7 -86 26 -177h213q17 0 17 -17v-87q0 -16 -17 -16z" />
    <glyph glyph-name="currency" unicode="&#xa4;" horiz-adv-x="552" 
d="M457 42q-18 -15 -37 7l-51 62q-43 -17 -94 -17q-50 0 -93 17l-52 -62q-18 -22 -36 -7l-50 41q-19 16 -1 39l50 58q-37 52 -37 128q0 74 36 127l-49 57q-18 22 1 38l50 41q12 9 19 7.5t17 -14.5l50 -59q43 17 95 17q53 0 96 -17l49 59q11 13 18 14.5t19 -7.5l49 -41
q20 -16 1 -38l-47 -57q36 -52 36 -127q0 -74 -37 -129l48 -57q19 -23 -1 -39zM275 196q46 0 72.5 30.5t26.5 81.5t-26.5 81.5t-72.5 30.5q-45 0 -71.5 -30.5t-26.5 -81.5t26.5 -81.5t71.5 -30.5z" />
    <glyph glyph-name="yen" unicode="&#xa5;" horiz-adv-x="635" 
d="M389 16q0 -16 -17 -16h-110q-17 0 -17 16v118h-177q-16 0 -16 17v53q0 17 16 17h177v46l-13 23h-164q-16 0 -16 16v54q0 17 16 17h112l-160 272q-8 16 -2 23.5t21 7.5h103q14 0 21 -5.5t16 -22.5l143 -264l142 261q10 18 17 24.5t20 6.5h94q16 0 21.5 -7.5t-1.5 -23.5
l-161 -272h113q16 0 16 -17v-54q0 -16 -16 -16h-164l-14 -23v-46h178q16 0 16 -17v-53q0 -17 -16 -17h-178v-118z" />
    <glyph glyph-name="brokenbar" unicode="&#xa6;" horiz-adv-x="237" 
d="M57 398v343q0 7 5 11.5t12 4.5h88q17 0 17 -16v-343q0 -16 -17 -16h-88q-17 0 -17 16zM57 -61v342q0 7 5 11.5t12 4.5h88q17 0 17 -16v-342q0 -16 -17 -16h-88q-7 0 -12 4.5t-5 11.5z" />
    <glyph glyph-name="section" unicode="&#xa7;" horiz-adv-x="502" 
d="M293 224q3 -1 11.5 -3.5t13.5 -4.5q19 26 19 54q0 34 -31.5 54.5t-100.5 41.5q-8 2 -24 8q-19 -24 -19 -55q0 -33 31.5 -53.5t99.5 -41.5zM246 -99q-101 0 -173 38q-15 9 -8 24l24 65q9 23 31 11q59 -32 116 -32q64 0 64 55q0 49 -91 73q-178 47 -178 165q0 76 58 128
q-35 40 -35 100q0 72 53 116.5t144 44.5q101 0 174 -39q14 -8 9 -23l-25 -66q-9 -21 -30 -10q-64 32 -117 32q-64 0 -64 -55q0 -49 92 -74q178 -45 178 -165q0 -74 -59 -128q36 -39 36 -100q0 -71 -53.5 -115.5t-145.5 -44.5z" />
    <glyph glyph-name="dieresis" unicode="&#xa8;" 
d="M339 486q-29 0 -49 21t-20 50t20 49t49 20t50 -20.5t21 -48.5q0 -29 -21 -50t-50 -21zM158 486q-29 0 -49 21t-20 50t20 49t49 20t50 -20.5t21 -48.5q0 -29 -21 -50t-50 -21z" />
    <glyph glyph-name="copyright" unicode="&#xa9;" horiz-adv-x="770" 
d="M742 340q0 -159 -100 -254.5t-257 -95.5t-257 95t-100 255t100 255t257 95t257 -95.5t100 -254.5zM112 340q0 -126 77 -200.5t196 -74.5t196 74.5t77 200.5q0 124 -77 199t-196 75t-196 -75t-77 -199zM390 148q-84 0 -136.5 50t-52.5 142q0 87 52 139.5t137 52.5
q69 0 131 -38q10 -5 5 -16l-29 -58q-6 -13 -16 -7q-52 31 -91 31q-37 0 -59.5 -28.5t-22.5 -75.5q0 -48 24 -77t66 -29q34 0 90 26q9 5 14 -8l25 -61q5 -9 -7 -15q-59 -28 -130 -28z" />
    <glyph glyph-name="ordfeminine" unicode="&#xaa;" horiz-adv-x="374" 
d="M170 434q19 0 37 11v54h-33q-43 0 -43 -33q0 -32 39 -32zM265 371l-27 19q-53 -28 -100 -28q-52 0 -82.5 25.5t-30.5 72.5q0 38 32.5 63t92.5 25h57v9q0 40 -41 40q-39 0 -100 -24q-12 -5 -19 10l-21 49q-5 14 12 23q74 35 148 35q65 0 100 -29.5t35 -100.5v-91
q0 -15 9 -21l23 -15q15 -8 2 -21l-43 -41q-21 -18 -47 0z" />
    <glyph glyph-name="guillemotleft" unicode="&#xab;" horiz-adv-x="547" 
d="M499 21q0 -30 -27 -12l-190 139q-16 11 -16 25v75q0 13 13 23l193 141q27 18 27 -12v-83q0 -13 -2.5 -18t-13.5 -12l-106 -76l106 -77q11 -7 13.5 -12t2.5 -18v-83zM263 21q0 -30 -27 -12l-190 139q-16 11 -16 25v75q0 13 13 23l193 141q27 18 27 -12v-83q0 -13 -2.5 -18
t-13.5 -12l-106 -76l106 -77q11 -7 13.5 -12t2.5 -18v-83z" />
    <glyph glyph-name="logicalnot" unicode="&#xac;" horiz-adv-x="425" 
d="M383 121h-88q-17 0 -17 16v121h-237q-17 0 -17 17v68q0 17 17 17h342q17 0 17 -17v-206q0 -16 -17 -16z" />
    <glyph glyph-name="uni00AD" unicode="&#xad;" horiz-adv-x="339" 
 />
    <glyph glyph-name="registered" unicode="&#xae;" horiz-adv-x="479" 
d="M239 261q-96 0 -157.5 58.5t-61.5 155.5t62 156t157 59q96 0 157.5 -58.5t61.5 -156.5q0 -97 -61.5 -155.5t-157.5 -58.5zM239 314q72 0 115.5 43.5t43.5 117.5t-43.5 117.5t-115.5 43.5t-115.5 -43.5t-43.5 -117.5t43.5 -117.5t115.5 -43.5zM244 532h-31v-42h30
q25 0 25 21t-24 21zM213 378q0 -8 -8 -8h-48q-9 0 -9 8v200q0 9 9 9h88q40 0 64 -20.5t24 -55.5q0 -43 -40 -57l53 -71q10 -13 -9 -13h-51q-6 0 -14 10l-42 59h-17v-61z" />
    <glyph glyph-name="macron" unicode="&#xaf;" 
d="M122 501q-17 0 -17 15v61q0 17 17 17h254q17 0 17 -17v-61q0 -15 -17 -15h-254z" />
    <glyph glyph-name="degree" unicode="&#xb0;" horiz-adv-x="370" 
d="M348 530q0 -69 -46 -114t-117 -45q-72 0 -117.5 45t-45.5 114q0 67 46 113.5t117 46.5q70 0 116.5 -47t46.5 -113zM122 529q0 -29 17.5 -47.5t45.5 -18.5q27 0 45 18.5t18 47.5t-18 48t-45 19q-28 0 -45.5 -19t-17.5 -48z" />
    <glyph glyph-name="plusminus" unicode="&#xb1;" horiz-adv-x="425" 
d="M272 138q0 -17 -17 -17h-86q-17 0 -17 17v95h-111q-17 0 -17 17v68q0 16 17 16h111v112q0 16 17 16h86q17 0 17 -16v-112h111q17 0 17 -16v-68q0 -17 -17 -17h-111v-95zM41 0q-17 0 -17 16v68q0 17 17 17h342q17 0 17 -17v-68q0 -16 -17 -16h-342z" />
    <glyph glyph-name="twosuperior" unicode="&#xb2;" horiz-adv-x="302" 
d="M274 311h-235q-13 0 -13 9v51q0 13 9 22l29 32l25.5 28l21 22.5t17.5 20l13 16.5t10 14t6.5 11.5t4.5 12t1 10.5q0 17 -11 28t-33 11q-25 0 -62 -21q-11 -7 -16 6l-27 59q-5 10 6 16q52 31 121 31q63 0 99.5 -28.5t36.5 -79.5q0 -41 -26.5 -81t-89.5 -107h113
q14 0 14 -11v-63q0 -9 -14 -9z" />
    <glyph glyph-name="threesuperior" unicode="&#xb3;" horiz-adv-x="294" 
d="M133 305q-67 0 -117 24q-11 4 -7 16l20 56q5 13 16 7q38 -18 76 -18q48 0 48 39q0 19 -15 28t-53 9q-13 0 -13 11v48q0 11 13 11q59 0 59 36q0 33 -41 33q-28 0 -66 -18q-11 -7 -17 6l-25 54q-5 11 6 15q48 27 115 27q62 0 98.5 -25.5t36.5 -70.5q0 -60 -55 -87
q65 -24 65 -85q0 -55 -38.5 -85.5t-105.5 -30.5z" />
    <glyph glyph-name="acute" unicode="&#xb4;" 
d="M201 488l61 129q12 23 33 23h87q15 0 20 -8.5t-3 -20.5l-88 -128q-16 -22 -33 -22h-61q-13 0 -17.5 7t1.5 20z" />
    <glyph glyph-name="mu" unicode="&#xb5;" horiz-adv-x="520" 
d="M188 -233q0 -17 -17 -17h-103q-7 0 -12 5t-5 12v629q0 16 17 16h103q17 0 17 -16v-210q0 -76 69 -76q38 0 74 25v260q0 17 17 17h103q17 0 17 -17v-379q0 -16 -17 -16h-103q-17 0 -17 16v21q-53 -47 -123 -47q-14 0 -20 1v-224z" />
    <glyph glyph-name="paragraph" unicode="&#xb6;" horiz-adv-x="588" 
d="M514 16q0 -16 -17 -16h-64q-18 0 -18 16v647q0 17 18 17h64q17 0 17 -17v-647zM354 0h-65q-17 0 -17 16v298h-21q-98 0 -158.5 51t-60.5 131q0 84 60 134t160 50h102q16 0 16 -17v-647q0 -16 -16 -16z" />
    <glyph glyph-name="periodcentered" unicode="&#xb7;" 
d="M249 202q-34 0 -56 22.5t-22 56.5q0 33 22.5 55t55.5 22t56 -22.5t23 -54.5q0 -34 -23 -56.5t-56 -22.5z" />
    <glyph glyph-name="cedilla" unicode="&#xb8;" 
d="M206 -99q-14 0 -11 13l11 38q2 8 10 9q16 4 41 4q110 0 110 -86q0 -48 -32.5 -74t-86.5 -26q-49 0 -79 16q-9 4 -5 15l14 46q3 10 13 6q20 -9 42 -9q38 0 38 27q0 23 -34 23q-8 0 -18 -1t-13 -1z" />
    <glyph glyph-name="onesuperior" unicode="&#xb9;" horiz-adv-x="201" 
d="M6 594v21q0 11 6 17l41 40q9 9 20 9h78q12 0 12 -13v-346q0 -11 -12 -11h-78q-13 0 -13 11v261h-42q-12 0 -12 11z" />
    <glyph glyph-name="ordmasculine" unicode="&#xba;" horiz-adv-x="397" 
d="M198 361q-83 0 -131 43t-48 121t48 121.5t131 43.5q82 0 130.5 -43.5t48.5 -121.5t-48.5 -121t-130.5 -43zM198 454q26 0 42 20t16 51q0 32 -16 51t-42 19q-27 0 -43 -19t-16 -51q0 -31 16 -51t43 -20z" />
    <glyph glyph-name="guillemotright" unicode="&#xbb;" horiz-adv-x="547" 
d="M309 9q-27 -18 -27 12v83q0 12 2.5 16.5t13.5 13.5l109 77l-109 76q-11 8 -13.5 12.5t-2.5 17.5v83q0 30 27 12l193 -141q14 -11 14 -23v-75q0 -13 -17 -25zM73 9q-27 -18 -27 12v83q0 12 2.5 16.5t13.5 13.5l109 77l-109 76q-11 8 -13.5 12.5t-2.5 17.5v83q0 30 27 12
l193 -141q14 -11 14 -23v-75q0 -13 -17 -25z" />
    <glyph glyph-name="onequarter" unicode="&#xbc;" horiz-adv-x="617" 
d="M6 594v21q0 11 6 17l41 40q9 9 20 9h78q12 0 12 -13v-346q0 -11 -12 -11h-78q-13 0 -13 11v261h-42q-12 0 -12 11zM432 664q9 16 21 16h74q17 0 7 -17l-392 -649q-8 -14 -19 -14h-76q-17 0 -7 16zM391 149h77v122zM562 11q0 -11 -13 -11h-67q-14 0 -14 11v68h-146
q-12 0 -12 11v51q0 8 8 22l134 196q7 11 25 11h72q13 0 13 -13v-208h37q14 0 14 -12v-47q0 -11 -14 -11h-37v-68z" />
    <glyph glyph-name="onehalf" unicode="&#xbd;" horiz-adv-x="660" 
d="M6 594v21q0 11 6 17l41 40q9 9 20 9h78q12 0 12 -13v-346q0 -11 -12 -11h-78q-13 0 -13 11v261h-42q-12 0 -12 11zM427 664q9 16 21 16h74q17 0 7 -17l-392 -649q-8 -14 -19 -14h-76q-17 0 -7 16zM637 0h-235q-13 0 -13 9v51q0 13 9 22l29 32l25.5 28l21 22.5t17.5 20
l13 16.5t10 14t6.5 11.5t4.5 12t1 10.5q0 17 -11 28t-33 11q-25 0 -62 -21q-11 -7 -16 6l-27 59q-5 10 6 16q52 31 121 31q63 0 99.5 -28.5t36.5 -79.5q0 -41 -26.5 -81t-89.5 -107h113q14 0 14 -11v-63q0 -9 -14 -9z" />
    <glyph glyph-name="threequarters" unicode="&#xbe;" horiz-adv-x="704" 
d="M516 664q9 16 21 16h74q17 0 7 -17l-392 -649q-8 -14 -19 -14h-76q-17 0 -7 16zM133 305q-67 0 -117 24q-11 4 -7 16l20 56q5 13 16 7q38 -18 76 -18q48 0 48 39q0 19 -15 28t-53 9q-13 0 -13 11v48q0 11 13 11q59 0 59 36q0 33 -41 33q-28 0 -66 -18q-11 -7 -17 6
l-25 54q-5 11 6 15q48 27 115 27q62 0 98.5 -25.5t36.5 -70.5q0 -60 -55 -87q65 -24 65 -85q0 -55 -38.5 -85.5t-105.5 -30.5zM479 149h77v122zM650 11q0 -11 -13 -11h-67q-14 0 -14 11v68h-146q-12 0 -12 11v51q0 8 8 22l134 196q7 11 25 11h72q13 0 13 -13v-208h37
q14 0 14 -12v-47q0 -11 -14 -11h-37v-68z" />
    <glyph glyph-name="questiondown" unicode="&#xbf;" horiz-adv-x="413" 
d="M214 422q35 0 57 -23t22 -58q0 -34 -22 -56.5t-57 -22.5q-34 0 -57.5 23t-23.5 56q0 35 23.5 58t57.5 23zM173 210h86q14 0 14 -14v-26q0 -40 -16.5 -78t-36.5 -63t-36.5 -58t-16.5 -64q0 -30 17.5 -46t48.5 -16q46 0 104 29q15 9 24 -10l32 -73q7 -16 -8 -24
q-74 -43 -172 -43q-89 0 -137.5 42t-48.5 116q0 42 13.5 78t33 61.5t39 48.5t33 49.5t13.5 53.5v23q0 14 14 14z" />
    <glyph glyph-name="Agrave" unicode="&#xc0;" horiz-adv-x="713" 
d="M409 748q9 -12 5 -19.5t-17 -7.5h-65q-19 0 -37 17l-94 94q-12 11 -8.5 20.5t17.5 9.5h98q23 0 35 -18zM442 293l-90 247l-90 -247h180zM164 22q-7 -22 -34 -22h-93q-32 0 -21 27l252 636q7 17 24 17h129q17 0 25 -17l251 -636q11 -27 -21 -27h-100q-28 0 -35 22l-57 156
h-263z" />
    <glyph glyph-name="Aacute" unicode="&#xc1;" horiz-adv-x="713" 
d="M313 748l66 96q14 18 36 18h98q14 0 17.5 -9.5t-8.5 -20.5l-94 -94q-18 -17 -38 -17h-65q-13 0 -16.5 7.5t4.5 19.5zM442 293l-90 247l-90 -247h180zM164 22q-7 -22 -34 -22h-93q-32 0 -21 27l252 636q7 17 24 17h129q17 0 25 -17l251 -636q11 -27 -21 -27h-100
q-28 0 -35 22l-57 156h-263z" />
    <glyph glyph-name="Acircumflex" unicode="&#xc2;" horiz-adv-x="713" 
d="M303 738q-14 -17 -37 -17h-58q-13 0 -16.5 7.5t4.5 19.5l70 95q15 19 38 19h103q23 0 37 -19l70 -95q9 -12 5 -19.5t-16 -7.5h-59q-23 0 -36 17l-52 57zM442 293l-90 247l-90 -247h180zM164 22q-7 -22 -34 -22h-93q-32 0 -21 27l252 636q7 17 24 17h129q17 0 25 -17
l251 -636q11 -27 -21 -27h-100q-28 0 -35 22l-57 156h-263z" />
    <glyph glyph-name="Atilde" unicode="&#xc3;" horiz-adv-x="713" 
d="M312 760q-28 0 -56 -25q-20 -18 -32 -4l-36 40q-10 12 3 25q58 65 111 65q21 0 57.5 -16t53.5 -16q25 0 48 22q21 20 33 6l38 -42q8 -11 -4 -25q-56 -62 -107 -62q-21 0 -58 16t-51 16zM442 293l-90 247l-90 -247h180zM164 22q-7 -22 -34 -22h-93q-32 0 -21 27l252 636
q7 17 24 17h129q17 0 25 -17l251 -636q11 -27 -21 -27h-100q-28 0 -35 22l-57 156h-263z" />
    <glyph glyph-name="Adieresis" unicode="&#xc4;" horiz-adv-x="713" 
d="M449 723q-29 0 -49.5 21t-20.5 50t20.5 49.5t49.5 20.5t50 -20.5t21 -49.5t-21 -50t-50 -21zM260 723q-29 0 -49.5 21t-20.5 50q0 28 21 49t49 21q30 0 51 -20.5t21 -49.5t-21 -50t-51 -21zM442 293l-90 247l-90 -247h180zM164 22q-7 -22 -34 -22h-93q-32 0 -21 27
l252 636q7 17 24 17h129q17 0 25 -17l251 -636q11 -27 -21 -27h-100q-28 0 -35 22l-57 156h-263z" />
    <glyph glyph-name="Aring" unicode="&#xc5;" horiz-adv-x="713" 
d="M357 688q23 0 38 16t15 40q0 23 -15 38.5t-38 15.5q-22 0 -37 -15.5t-15 -38.5q0 -24 15 -40t37 -16zM442 293l-90 247l-90 -247h180zM164 22q-7 -22 -34 -22h-93q-32 0 -21 27l247 624q-37 39 -37 93t37 91t93 37t94 -37t38 -91q0 -56 -38 -92l247 -625q11 -27 -21 -27
h-100q-28 0 -35 22l-57 156h-263z" />
    <glyph glyph-name="AE" unicode="&#xc6;" horiz-adv-x="927" 
d="M427 293v258l-138 -258h138zM144 22q-12 -22 -34 -22h-86q-34 0 -21 27l352 636q9 17 24 17h501q16 0 16 -18v-86q0 -18 -16 -18h-308v-141h208q16 0 16 -17v-87q0 -17 -16 -17h-208v-176h308q16 0 16 -17v-87q0 -16 -16 -16h-436q-17 0 -17 16v162h-200z" />
    <glyph glyph-name="Ccedilla" unicode="&#xc7;" horiz-adv-x="628" 
d="M369 -10q-147 0 -239.5 92.5t-92.5 257.5q0 160 91 255t241 95q121 0 224 -62q17 -9 9 -24l-42 -82q-9 -18 -24 -10q-88 53 -167 53q-82 0 -131 -62t-49 -163q0 -103 52 -164.5t140 -61.5q69 0 162 43q14 8 22 -12l36 -83q5 -15 -10 -23q-102 -49 -222 -49zM274 -99
q-13 0 -10 13l10 39q2 7 10 8q13 4 46 4q113 0 113 -87q0 -49 -33 -74.5t-89 -25.5q-52 0 -84 15q-9 5 -5 16l15 46q3 10 13 6q22 -9 46 -9q41 0 41 28q0 23 -37 23q-9 0 -21 -1t-15 -1z" />
    <glyph glyph-name="Egrave" unicode="&#xc8;" horiz-adv-x="602" 
d="M377 748q9 -12 5 -19.5t-17 -7.5h-65q-19 0 -37 17l-94 94q-12 11 -8.5 20.5t17.5 9.5h98q23 0 35 -18zM90 0q-17 0 -17 16v647q0 17 17 17h465q17 0 17 -18v-86q0 -18 -17 -18h-338v-141h238q17 0 17 -17v-87q0 -17 -17 -17h-238v-176h338q17 0 17 -17v-87
q0 -16 -17 -16h-465z" />
    <glyph glyph-name="Eacute" unicode="&#xc9;" horiz-adv-x="602" 
d="M261 748l66 96q14 18 36 18h98q14 0 17.5 -9.5t-8.5 -20.5l-94 -94q-18 -17 -38 -17h-65q-13 0 -16.5 7.5t4.5 19.5zM90 0q-17 0 -17 16v647q0 17 17 17h465q17 0 17 -18v-86q0 -18 -17 -18h-338v-141h238q17 0 17 -17v-87q0 -17 -17 -17h-238v-176h338q17 0 17 -17v-87
q0 -16 -17 -16h-465z" />
    <glyph glyph-name="Ecircumflex" unicode="&#xca;" horiz-adv-x="602" 
d="M265 738q-14 -17 -37 -17h-58q-13 0 -16.5 7.5t4.5 19.5l70 95q15 19 38 19h103q23 0 37 -19l70 -95q9 -12 5 -19.5t-16 -7.5h-59q-23 0 -36 17l-52 57zM90 0q-17 0 -17 16v647q0 17 17 17h465q17 0 17 -18v-86q0 -18 -17 -18h-338v-141h238q17 0 17 -17v-87
q0 -17 -17 -17h-238v-176h338q17 0 17 -17v-87q0 -16 -17 -16h-465z" />
    <glyph glyph-name="Edieresis" unicode="&#xcb;" horiz-adv-x="602" 
d="M419 723q-29 0 -49.5 21t-20.5 50t20.5 49.5t49.5 20.5t50 -20.5t21 -49.5t-21 -50t-50 -21zM230 723q-29 0 -49.5 21t-20.5 50q0 28 21 49t49 21q30 0 51 -20.5t21 -49.5t-21 -50t-51 -21zM90 0q-17 0 -17 16v647q0 17 17 17h465q17 0 17 -18v-86q0 -18 -17 -18h-338
v-141h238q17 0 17 -17v-87q0 -17 -17 -17h-238v-176h338q17 0 17 -17v-87q0 -16 -17 -16h-465z" />
    <glyph glyph-name="Igrave" unicode="&#xcc;" horiz-adv-x="290" 
d="M199 748q9 -12 5 -19.5t-17 -7.5h-65q-19 0 -37 17l-94 94q-12 11 -8.5 20.5t17.5 9.5h98q23 0 35 -18zM73 16v647q0 17 17 17h110q17 0 17 -17v-647q0 -16 -17 -16h-110q-17 0 -17 16z" />
    <glyph glyph-name="Iacute" unicode="&#xcd;" horiz-adv-x="290" 
d="M91 748l66 96q14 18 36 18h98q14 0 17.5 -9.5t-8.5 -20.5l-94 -94q-18 -17 -38 -17h-65q-13 0 -16.5 7.5t4.5 19.5zM73 16v647q0 17 17 17h110q17 0 17 -17v-647q0 -16 -17 -16h-110q-17 0 -17 16z" />
    <glyph glyph-name="Icircumflex" unicode="&#xce;" horiz-adv-x="290" 
d="M93 738q-14 -17 -37 -17h-58q-13 0 -16.5 7.5t4.5 19.5l70 95q15 19 38 19h103q23 0 37 -19l70 -95q9 -12 5 -19.5t-16 -7.5h-59q-23 0 -36 17l-52 57zM73 16v647q0 17 17 17h110q17 0 17 -17v-647q0 -16 -17 -16h-110q-17 0 -17 16z" />
    <glyph glyph-name="Idieresis" unicode="&#xcf;" horiz-adv-x="290" 
d="M239 723q-29 0 -49.5 21t-20.5 50t20.5 49.5t49.5 20.5t50 -20.5t21 -49.5t-21 -50t-50 -21zM50 723q-29 0 -49.5 21t-20.5 50q0 28 21 49t49 21q30 0 51 -20.5t21 -49.5t-21 -50t-51 -21zM73 16v647q0 17 17 17h110q17 0 17 -17v-647q0 -16 -17 -16h-110q-17 0 -17 16z
" />
    <glyph glyph-name="Eth" unicode="&#xd0;" horiz-adv-x="709" 
d="M325 289h-108v-169h88q98 0 157.5 60.5t59.5 159.5q0 98 -59.5 158t-156.5 60h-89v-167h108q17 0 17 -18v-68q0 -16 -17 -16zM90 0q-17 0 -17 16v273h-44q-18 0 -18 16v68q0 18 18 18h44v272q0 17 17 17h217q165 0 266 -92.5t101 -247.5q0 -154 -101 -247t-265 -93h-218z
" />
    <glyph glyph-name="Ntilde" unicode="&#xd1;" horiz-adv-x="720" 
d="M316 760q-28 0 -56 -25q-20 -18 -32 -4l-36 40q-10 12 3 25q58 65 111 65q21 0 57.5 -16t53.5 -16q25 0 48 22q21 20 33 6l38 -42q8 -11 -4 -25q-56 -62 -107 -62q-21 0 -58 16t-51 16zM209 16q0 -16 -17 -16h-102q-17 0 -17 16v647q0 17 17 17h115q18 0 27 -14l278 -453
v450q0 17 17 17h102q18 0 18 -17v-647q0 -16 -18 -16h-111q-15 0 -25 14l-284 452v-450z" />
    <glyph glyph-name="Ograve" unicode="&#xd2;" horiz-adv-x="749" 
d="M427 748q9 -12 5 -19.5t-17 -7.5h-65q-19 0 -37 17l-94 94q-12 11 -8.5 20.5t17.5 9.5h98q23 0 35 -18zM374 -10q-153 0 -245.5 95t-92.5 255t93 255t245 95q153 0 245.5 -95t92.5 -255t-92.5 -255t-245.5 -95zM374 114q84 0 135 62t51 164q0 101 -51 163t-135 62
t-135 -62t-51 -163q0 -102 51 -164t135 -62z" />
    <glyph glyph-name="Oacute" unicode="&#xd3;" horiz-adv-x="749" 
d="M323 749l66 96q14 18 36 18h98q14 0 17.5 -9.5t-8.5 -20.5l-94 -94q-18 -17 -38 -17h-65q-13 0 -16.5 7.5t4.5 19.5zM374 -10q-153 0 -245.5 95t-92.5 255t93 255t245 95q153 0 245.5 -95t92.5 -255t-92.5 -255t-245.5 -95zM374 114q84 0 135 62t51 164q0 101 -51 163
t-135 62t-135 -62t-51 -163q0 -102 51 -164t135 -62z" />
    <glyph glyph-name="Ocircumflex" unicode="&#xd4;" horiz-adv-x="749" 
d="M321 738q-14 -17 -37 -17h-58q-13 0 -16.5 7.5t4.5 19.5l70 95q15 19 38 19h103q23 0 37 -19l70 -95q9 -12 5 -19.5t-16 -7.5h-59q-23 0 -36 17l-52 57zM374 -10q-153 0 -245.5 95t-92.5 255t93 255t245 95q153 0 245.5 -95t92.5 -255t-92.5 -255t-245.5 -95zM374 114
q84 0 135 62t51 164q0 101 -51 163t-135 62t-135 -62t-51 -163q0 -102 51 -164t135 -62z" />
    <glyph glyph-name="Otilde" unicode="&#xd5;" horiz-adv-x="749" 
d="M330 760q-28 0 -56 -25q-20 -18 -32 -4l-36 40q-10 12 3 25q58 65 111 65q21 0 57.5 -16t53.5 -16q25 0 48 22q21 20 33 6l38 -42q8 -11 -4 -25q-56 -62 -107 -62q-21 0 -58 16t-51 16zM374 -10q-153 0 -245.5 95t-92.5 255t93 255t245 95q153 0 245.5 -95t92.5 -255
t-92.5 -255t-245.5 -95zM374 114q84 0 135 62t51 164q0 101 -51 163t-135 62t-135 -62t-51 -163q0 -102 51 -164t135 -62z" />
    <glyph glyph-name="Odieresis" unicode="&#xd6;" horiz-adv-x="749" 
d="M467 723q-29 0 -49.5 21t-20.5 50t20.5 49.5t49.5 20.5t50 -20.5t21 -49.5t-21 -50t-50 -21zM278 723q-29 0 -49.5 21t-20.5 50q0 28 21 49t49 21q30 0 51 -20.5t21 -49.5t-21 -50t-51 -21zM374 -10q-153 0 -245.5 95t-92.5 255t93 255t245 95q153 0 245.5 -95t92.5 -255
t-92.5 -255t-245.5 -95zM374 114q84 0 135 62t51 164q0 101 -51 163t-135 62t-135 -62t-51 -163q0 -102 51 -164t135 -62z" />
    <glyph glyph-name="multiply" unicode="&#xd7;" horiz-adv-x="425" 
d="M118 56q-12 -12 -24 1l-51 50q-11 13 0 24l94 94l-94 94q-12 12 0 24l51 51q12 12 24 0l94 -94l94 94q12 12 24 0l50 -51q13 -12 1 -24l-94 -94l94 -94q11 -11 -1 -24l-50 -50q-12 -13 -24 -1l-94 94z" />
    <glyph glyph-name="Oslash" unicode="&#xd8;" horiz-adv-x="749" 
d="M374 -10q-107 0 -190 50l-20 -24q-13 -16 -28 -16h-83q-9 0 -11 7t4 15l67 80q-77 94 -77 238q0 160 93 255t245 95q108 0 188 -49l19 22q14 17 28 17h83q6 0 9 -3.5t2.5 -9t-4.5 -10.5l-65 -78q78 -94 78 -239q0 -160 -92.5 -255t-245.5 -95zM188 340q0 -69 24 -120
l262 315q-44 30 -100 30q-84 0 -135 -62t-51 -163zM374 114q84 0 135 62t51 164q0 68 -25 121l-263 -316q43 -31 102 -31z" />
    <glyph glyph-name="Ugrave" unicode="&#xd9;" horiz-adv-x="691" 
d="M398 748q9 -12 5 -19.5t-17 -7.5h-65q-19 0 -37 17l-94 94q-12 11 -9 20.5t18 9.5h98q23 0 35 -18zM59 266v397q0 7 5 12t12 5h111q17 0 17 -17v-399q0 -72 38 -111t103 -39t103 39t38 111v399q0 17 18 17h110q17 0 17 -17v-397q0 -127 -78 -201.5t-208 -74.5t-208 74.5
t-78 201.5z" />
    <glyph glyph-name="Uacute" unicode="&#xda;" horiz-adv-x="691" 
d="M290 748l66 96q14 18 36 18h98q14 0 17.5 -9.5t-8.5 -20.5l-94 -94q-18 -17 -38 -17h-65q-13 0 -16.5 7.5t4.5 19.5zM59 266v397q0 7 5 12t12 5h111q17 0 17 -17v-399q0 -72 38 -111t103 -39t103 39t38 111v399q0 17 18 17h110q17 0 17 -17v-397q0 -127 -78 -201.5
t-208 -74.5t-208 74.5t-78 201.5z" />
    <glyph glyph-name="Ucircumflex" unicode="&#xdb;" horiz-adv-x="691" 
d="M292 738q-14 -17 -37 -17h-58q-13 0 -16.5 7.5t4.5 19.5l70 95q15 19 38 19h103q23 0 37 -19l70 -95q9 -12 5 -19.5t-16 -7.5h-59q-23 0 -36 17l-52 57zM59 266v397q0 7 5 12t12 5h111q17 0 17 -17v-399q0 -72 38 -111t103 -39t103 39t38 111v399q0 17 18 17h110
q17 0 17 -17v-397q0 -127 -78 -201.5t-208 -74.5t-208 74.5t-78 201.5z" />
    <glyph glyph-name="Udieresis" unicode="&#xdc;" horiz-adv-x="691" 
d="M438 723q-29 0 -49.5 21t-20.5 50t20.5 49.5t49.5 20.5t50 -20.5t21 -49.5t-21 -50t-50 -21zM249 723q-29 0 -49.5 21t-20.5 50q0 28 20.5 49t49.5 21q30 0 51 -20.5t21 -49.5t-21 -50t-51 -21zM59 266v397q0 7 5 12t12 5h111q17 0 17 -17v-399q0 -72 38 -111t103 -39
t103 39t38 111v399q0 17 18 17h110q17 0 17 -17v-397q0 -127 -78 -201.5t-208 -74.5t-208 74.5t-78 201.5z" />
    <glyph glyph-name="Yacute" unicode="&#xdd;" horiz-adv-x="625" 
d="M257 748l66 96q14 18 36 18h98q14 0 17.5 -9.5t-8.5 -20.5l-94 -94q-18 -17 -38 -17h-65q-13 0 -16.5 7.5t4.5 19.5zM366 0h-110q-17 0 -17 16v220l-225 413q-7 16 -1.5 23.5t21.5 7.5h102q25 0 36 -28l145 -288l143 285q9 18 16 24.5t20 6.5h93q36 0 20 -31l-226 -415
v-218q0 -16 -17 -16z" />
    <glyph glyph-name="Thorn" unicode="&#xde;" horiz-adv-x="625" 
d="M318 452h-101v-225h100q58 0 94.5 32t36.5 81q0 53 -35.5 82.5t-94.5 29.5zM217 16q0 -16 -17 -16h-110q-17 0 -17 16v647q0 17 17 17h110q17 0 17 -17v-91h103q126 0 203 -63t77 -169q0 -103 -77.5 -168.5t-201.5 -65.5h-104v-90z" />
    <glyph glyph-name="germandbls" unicode="&#xdf;" horiz-adv-x="577" 
d="M487 457q0 -47 -12 -103q-3 -10 -11 -10q-88 0 -88 -41q0 -16 11.5 -25.5t42.5 -20.5q69 -25 98 -51.5t29 -78.5q0 -69 -45 -103t-124 -34q-77 0 -139 30q-18 9 -10 29l23 59q7 18 26 9q56 -29 93 -29q52 0 52 31q0 17 -13.5 26t-52.5 23q-64 23 -92.5 51t-28.5 75
q0 51 28.5 82t70.5 42q5 28 5 52q0 51 -23.5 79t-64.5 28q-70 0 -70 -90v-471q0 -16 -17 -16h-102q-17 0 -17 16v476q0 95 49 146.5t146 51.5q113 0 173.5 -63.5t62.5 -169.5z" />
    <glyph glyph-name="agrave" unicode="&#xe0;" horiz-adv-x="475" 
d="M286 488q6 -13 1.5 -20t-17.5 -7h-62q-18 0 -32 22l-88 128q-9 12 -4 20.5t20 8.5h88q22 0 32 -23zM216 82q27 0 58 18v72h-50q-63 0 -63 -44q0 -46 55 -46zM345 3l-36 28q-65 -39 -132 -39q-68 0 -108 34t-40 95q0 51 42.5 85t122.5 34h80v11q0 55 -61 55
q-52 0 -131 -32q-17 -7 -24 11l-26 65q-7 18 14 28q96 44 191 44q85 0 129 -38t44 -129v-128q0 -17 12 -28l30 -21q16 -12 1 -27l-51 -48q-24 -22 -57 0z" />
    <glyph glyph-name="aacute" unicode="&#xe1;" horiz-adv-x="475" 
d="M188 488l61 129q11 23 33 23h87q15 0 20 -8.5t-3 -20.5l-88 -128q-16 -22 -33 -22h-61q-13 0 -17.5 7t1.5 20zM216 82q27 0 58 18v72h-50q-63 0 -63 -44q0 -46 55 -46zM345 3l-36 28q-65 -39 -132 -39q-68 0 -108 34t-40 95q0 51 42.5 85t122.5 34h80v11q0 55 -61 55
q-52 0 -131 -32q-17 -7 -24 11l-26 65q-7 18 14 28q96 44 191 44q85 0 129 -38t44 -129v-128q0 -17 12 -28l30 -21q16 -12 1 -27l-51 -48q-24 -22 -57 0z" />
    <glyph glyph-name="acircumflex" unicode="&#xe2;" horiz-adv-x="475" 
d="M185 482q-15 -21 -33 -21h-46q-13 0 -17.5 7t1.5 19l62 129q11 24 34 24h99q23 0 34 -24l62 -129q6 -12 1.5 -19t-17.5 -7h-47q-17 0 -32 21l-50 81zM216 82q27 0 58 18v72h-50q-63 0 -63 -44q0 -46 55 -46zM345 3l-36 28q-65 -39 -132 -39q-68 0 -108 34t-40 95
q0 51 42.5 85t122.5 34h80v11q0 55 -61 55q-52 0 -131 -32q-17 -7 -24 11l-26 65q-7 18 14 28q96 44 191 44q85 0 129 -38t44 -129v-128q0 -17 12 -28l30 -21q16 -12 1 -27l-51 -48q-24 -22 -57 0z" />
    <glyph glyph-name="atilde" unicode="&#xe3;" horiz-adv-x="475" 
d="M178 521q-29 0 -52 -23q-22 -18 -33 -6l-37 42q-9 10 4 25q60 64 109 64q20 0 53.5 -14.5t48.5 -14.5q25 0 46 20t33 7l35 -40q10 -10 -2 -26q-30 -34 -51.5 -48.5t-48.5 -14.5q-20 0 -55.5 14.5t-49.5 14.5zM216 82q27 0 58 18v72h-50q-63 0 -63 -44q0 -46 55 -46z
M345 3l-36 28q-65 -39 -132 -39q-68 0 -108 34t-40 95q0 51 42.5 85t122.5 34h80v11q0 55 -61 55q-52 0 -131 -32q-17 -7 -24 11l-26 65q-7 18 14 28q96 44 191 44q85 0 129 -38t44 -129v-128q0 -17 12 -28l30 -21q16 -12 1 -27l-51 -48q-24 -22 -57 0z" />
    <glyph glyph-name="adieresis" unicode="&#xe4;" horiz-adv-x="475" 
d="M325 486q-29 0 -49 21t-20 50t20 49t49 20t50 -20.5t21 -48.5q0 -29 -21 -50t-50 -21zM144 486q-29 0 -49 21t-20 50t20 49t49 20t50 -20.5t21 -48.5q0 -29 -21 -50t-50 -21zM216 82q27 0 58 18v72h-50q-63 0 -63 -44q0 -46 55 -46zM345 3l-36 28q-65 -39 -132 -39
q-68 0 -108 34t-40 95q0 51 42.5 85t122.5 34h80v11q0 55 -61 55q-52 0 -131 -32q-17 -7 -24 11l-26 65q-7 18 14 28q96 44 191 44q85 0 129 -38t44 -129v-128q0 -17 12 -28l30 -21q16 -12 1 -27l-51 -48q-24 -22 -57 0z" />
    <glyph glyph-name="aring" unicode="&#xe5;" horiz-adv-x="475" 
d="M359 580q0 -54 -36.5 -89.5t-92.5 -35.5q-55 0 -90.5 35.5t-35.5 89.5q0 51 36 86t90 35q55 0 92 -35t37 -86zM186 579q0 -21 12.5 -34.5t32.5 -13.5t33 13.5t13 34.5q0 20 -13 32.5t-33 12.5t-32.5 -12.5t-12.5 -32.5zM216 82q27 0 58 18v72h-50q-63 0 -63 -44
q0 -46 55 -46zM345 3l-36 28q-65 -39 -132 -39q-68 0 -108 34t-40 95q0 51 42.5 85t122.5 34h80v11q0 55 -61 55q-52 0 -131 -32q-17 -7 -24 11l-26 65q-7 18 14 28q96 44 191 44q85 0 129 -38t44 -129v-128q0 -17 12 -28l30 -21q16 -12 1 -27l-51 -48q-24 -22 -57 0z" />
    <glyph glyph-name="ae" unicode="&#xe6;" horiz-adv-x="731" 
d="M515 -10q-116 0 -181 56q-83 -54 -157 -54q-69 0 -108.5 33.5t-39.5 94.5q0 51 42.5 85t122.5 34h80v12q0 55 -61 55q-52 0 -131 -32q-17 -7 -24 11l-26 65q-7 18 14 28q96 44 191 44q81 0 121 -37q56 37 134 37q91 0 146 -53t55 -140q0 -27 -2 -38t-19 -11h-260
q19 -85 116 -85q53 0 129 27q18 6 25 -10l21 -67q5 -14 -8 -21q-65 -34 -180 -34zM489 320q-29 0 -49 -19t-27 -53h151q-11 72 -75 72zM216 83q35 0 73 28q-11 27 -15 60h-51q-62 0 -62 -45q0 -43 55 -43z" />
    <glyph glyph-name="ccedilla" unicode="&#xe7;" horiz-adv-x="427" 
d="M259 309q-42 0 -66 -26.5t-24 -73.5q0 -50 26 -78t73 -28q43 0 82 23q18 11 26 -8l31 -70q6 -13 -10 -23q-55 -35 -142 -35q-109 0 -168 56t-59 160q0 103 57.5 159.5t158.5 56.5q83 0 143 -33q15 -7 8 -24l-26 -72q-7 -20 -24 -10q-45 26 -86 26zM167 -99q-14 0 -11 13
l11 38q2 8 10 9q16 4 41 4q110 0 110 -86q0 -48 -32.5 -74t-86.5 -26q-49 0 -79 16q-9 4 -5 15l14 46q3 10 13 6q20 -9 42 -9q38 0 38 27q0 23 -34 23q-8 0 -18 -1t-13 -1z" />
    <glyph glyph-name="egrave" unicode="&#xe8;" horiz-adv-x="490" 
d="M294 488q6 -13 1.5 -20t-17.5 -7h-62q-18 0 -32 22l-88 128q-9 12 -4 20.5t20 8.5h88q22 0 32 -23zM248 320q-29 0 -49 -19t-28 -53h151q-11 72 -74 72zM454 24q-67 -34 -180 -34q-118 0 -182.5 56.5t-64.5 159.5q0 102 60.5 159t163.5 57q90 0 145.5 -53t55.5 -140
q0 -22 -3 -38q-1 -11 -18 -11h-260q8 -41 38 -63t77 -22q54 0 130 27q19 6 24 -10l22 -67q5 -14 -8 -21z" />
    <glyph glyph-name="eacute" unicode="&#xe9;" horiz-adv-x="490" 
d="M197 488l61 129q12 23 33 23h87q15 0 20 -8.5t-3 -20.5l-88 -128q-16 -22 -33 -22h-61q-13 0 -17.5 7t1.5 20zM248 320q-29 0 -49 -19t-28 -53h151q-11 72 -74 72zM454 24q-67 -34 -180 -34q-118 0 -182.5 56.5t-64.5 159.5q0 102 60.5 159t163.5 57q90 0 145.5 -53
t55.5 -140q0 -22 -3 -38q-1 -11 -18 -11h-260q8 -41 38 -63t77 -22q54 0 130 27q19 6 24 -10l22 -67q5 -14 -8 -21z" />
    <glyph glyph-name="ecircumflex" unicode="&#xea;" horiz-adv-x="490" 
d="M195 482q-15 -21 -33 -21h-46q-13 0 -17.5 7t1.5 19l62 129q11 24 34 24h99q23 0 34 -24l62 -129q6 -12 1.5 -19t-17.5 -7h-47q-17 0 -32 21l-50 81zM248 320q-29 0 -49 -19t-28 -53h151q-11 72 -74 72zM454 24q-67 -34 -180 -34q-118 0 -182.5 56.5t-64.5 159.5
q0 102 60.5 159t163.5 57q90 0 145.5 -53t55.5 -140q0 -22 -3 -38q-1 -11 -18 -11h-260q8 -41 38 -63t77 -22q54 0 130 27q19 6 24 -10l22 -67q5 -14 -8 -21z" />
    <glyph glyph-name="edieresis" unicode="&#xeb;" horiz-adv-x="490" 
d="M335 486q-29 0 -49 21t-20 50t20 49t49 20t50 -20.5t21 -48.5q0 -29 -21 -50t-50 -21zM154 486q-29 0 -49 21t-20 50t20 49t49 20t50 -20.5t21 -48.5q0 -29 -21 -50t-50 -21zM248 320q-29 0 -49 -19t-28 -53h151q-11 72 -74 72zM454 24q-67 -34 -180 -34
q-118 0 -182.5 56.5t-64.5 159.5q0 102 60.5 159t163.5 57q90 0 145.5 -53t55.5 -140q0 -22 -3 -38q-1 -11 -18 -11h-260q8 -41 38 -63t77 -22q54 0 130 27q19 6 24 -10l22 -67q5 -14 -8 -21z" />
    <glyph glyph-name="igrave" unicode="&#xec;" horiz-adv-x="240" 
d="M169 488q6 -13 1.5 -20t-17.5 -7h-62q-18 0 -32 22l-88 128q-9 12 -4 20.5t20 8.5h88q22 0 32 -23zM51 16v379q0 17 17 17h103q17 0 17 -17v-379q0 -16 -17 -16h-103q-17 0 -17 16z" />
    <glyph glyph-name="iacute" unicode="&#xed;" horiz-adv-x="240" 
d="M72 488l61 129q11 23 33 23h87q15 0 20 -8.5t-3 -20.5l-88 -128q-16 -22 -33 -22h-61q-13 0 -17.5 7t1.5 20zM51 16v379q0 17 17 17h103q17 0 17 -17v-379q0 -16 -17 -16h-103q-17 0 -17 16z" />
    <glyph glyph-name="icircumflex" unicode="&#xee;" horiz-adv-x="240" 
d="M70 482q-15 -21 -33 -21h-46q-13 0 -17.5 7t1.5 19l62 129q11 24 34 24h99q23 0 34 -24l62 -129q6 -12 1.5 -19t-17.5 -7h-47q-17 0 -32 21l-50 81zM51 16v379q0 17 17 17h103q17 0 17 -17v-379q0 -16 -17 -16h-103q-17 0 -17 16z" />
    <glyph glyph-name="idieresis" unicode="&#xef;" horiz-adv-x="240" 
d="M210 486q-29 0 -49 21t-20 50t20 49t49 20t50 -20.5t21 -48.5q0 -29 -21 -50t-50 -21zM29 486q-29 0 -49 21t-20 50t20 49t49 20t50 -20.5t21 -48.5q0 -29 -21 -50t-50 -21zM51 16v379q0 17 17 17h103q17 0 17 -17v-379q0 -16 -17 -16h-103q-17 0 -17 16z" />
    <glyph glyph-name="eth" unicode="&#xf0;" horiz-adv-x="519" 
d="M259 -10q-107 0 -169.5 57t-62.5 159q0 97 61 153t160 56q42 0 77 -15q-21 65 -68 109l-48 -54q-12 -14 -24 -3l-26 22q-16 12 -2 26l43 48q-30 16 -72 25q-17 4 -11 24l24 77q5 18 23 13q62 -15 119 -47l37 42q12 14 25 2l26 -23q13 -10 2 -24l-33 -36
q147 -120 147 -315q0 -140 -61.5 -218t-166.5 -78zM259 103q41 0 64.5 39t23.5 104q0 19 -1 28q-32 35 -87 35q-40 0 -63.5 -28t-23.5 -75t23.5 -75t63.5 -28z" />
    <glyph glyph-name="ntilde" unicode="&#xf1;" horiz-adv-x="523" 
d="M219 521q-29 0 -52 -23q-22 -18 -33 -6l-37 42q-9 10 4 25q60 64 109 64q20 0 53.5 -14.5t48.5 -14.5q25 0 46 20t33 7l35 -40q10 -10 -2 -26q-30 -34 -51.5 -48.5t-48.5 -14.5q-20 0 -55.5 14.5t-49.5 14.5zM188 16q0 -16 -17 -16h-103q-17 0 -17 16v379q0 17 17 17h103
q17 0 17 -17v-24q56 51 133 51q73 0 115 -40.5t42 -118.5v-247q0 -16 -17 -16h-103q-17 0 -17 14v213q0 75 -68 75q-43 0 -85 -34v-252z" />
    <glyph glyph-name="ograve" unicode="&#xf2;" horiz-adv-x="519" 
d="M308 488q6 -13 1.5 -20t-17.5 -7h-62q-18 0 -32 22l-88 128q-9 12 -4 20.5t20 8.5h88q22 0 32 -23zM259 -10q-107 0 -169.5 57t-62.5 159t62.5 159t169.5 57t169.5 -57t62.5 -159t-62.5 -159t-169.5 -57zM259 103q40 0 63.5 28t23.5 75t-23.5 75t-63.5 28t-63.5 -28
t-23.5 -75t23.5 -75t63.5 -28z" />
    <glyph glyph-name="oacute" unicode="&#xf3;" horiz-adv-x="519" 
d="M211 488l61 129q12 23 33 23h87q15 0 20 -8.5t-3 -20.5l-88 -128q-16 -22 -33 -22h-61q-13 0 -17.5 7t1.5 20zM259 -10q-107 0 -169.5 57t-62.5 159t62.5 159t169.5 57t169.5 -57t62.5 -159t-62.5 -159t-169.5 -57zM259 103q40 0 63.5 28t23.5 75t-23.5 75t-63.5 28
t-63.5 -28t-23.5 -75t23.5 -75t63.5 -28z" />
    <glyph glyph-name="ocircumflex" unicode="&#xf4;" horiz-adv-x="519" 
d="M209 482q-15 -21 -33 -21h-46q-13 0 -17.5 7t1.5 19l62 129q11 24 34 24h99q23 0 34 -24l62 -129q6 -12 1.5 -19t-17.5 -7h-47q-17 0 -32 21l-50 81zM259 -10q-107 0 -169.5 57t-62.5 159t62.5 159t169.5 57t169.5 -57t62.5 -159t-62.5 -159t-169.5 -57zM259 103
q40 0 63.5 28t23.5 75t-23.5 75t-63.5 28t-63.5 -28t-23.5 -75t23.5 -75t63.5 -28z" />
    <glyph glyph-name="otilde" unicode="&#xf5;" horiz-adv-x="519" 
d="M217 521q-29 0 -52 -23q-22 -18 -33 -6l-37 42q-9 10 4 25q60 64 109 64q20 0 53.5 -14.5t48.5 -14.5q25 0 46 20t33 7l35 -40q10 -10 -2 -26q-30 -34 -51.5 -48.5t-48.5 -14.5q-20 0 -55.5 14.5t-49.5 14.5zM259 -10q-107 0 -169.5 57t-62.5 159t62.5 159t169.5 57
t169.5 -57t62.5 -159t-62.5 -159t-169.5 -57zM259 103q40 0 63.5 28t23.5 75t-23.5 75t-63.5 28t-63.5 -28t-23.5 -75t23.5 -75t63.5 -28z" />
    <glyph glyph-name="odieresis" unicode="&#xf6;" horiz-adv-x="519" 
d="M349 486q-29 0 -49 21t-20 50t20 49t49 20t50 -20.5t21 -48.5q0 -29 -21 -50t-50 -21zM168 486q-29 0 -49 21t-20 50t20 49t49 20t50 -20.5t21 -48.5q0 -29 -21 -50t-50 -21zM259 -10q-107 0 -169.5 57t-62.5 159t62.5 159t169.5 57t169.5 -57t62.5 -159t-62.5 -159
t-169.5 -57zM259 103q40 0 63.5 28t23.5 75t-23.5 75t-63.5 28t-63.5 -28t-23.5 -75t23.5 -75t63.5 -28z" />
    <glyph glyph-name="divide" unicode="&#xf7;" horiz-adv-x="425" 
d="M208 312q-30 0 -49 20t-19 50q0 29 19 48.5t49 19.5t50 -19.5t20 -48.5q0 -30 -19.5 -50t-50.5 -20zM41 180q-7 0 -12 5t-5 12v61q0 16 17 16h342q17 0 17 -16v-61q0 -7 -5 -12t-12 -5h-342zM208 5q-30 0 -49 20t-19 50q0 29 19 48.5t49 19.5t50 -19.5t20 -48.5
q0 -30 -19.5 -50t-50.5 -20z" />
    <glyph glyph-name="oslash" unicode="&#xf8;" horiz-adv-x="519" 
d="M259 -10q-84 0 -140 35l-14 -14q-11 -11 -24 -11h-48q-10 0 -11 5t6 12l46 46q-47 55 -47 143q0 102 62.5 159t169.5 57q85 0 141 -36l14 14q12 12 24 12h48q10 0 11 -5.5t-6 -12.5l-46 -46q46 -57 46 -142q0 -102 -62.5 -159t-169.5 -57zM172 206q0 -23 6 -41l130 130
q-22 14 -49 14q-40 0 -63.5 -28t-23.5 -75zM259 103q40 0 63.5 28t23.5 75q0 19 -5 39l-130 -128q22 -14 48 -14z" />
    <glyph glyph-name="ugrave" unicode="&#xf9;" horiz-adv-x="513" 
d="M305 488q6 -13 1.5 -20t-17.5 -7h-62q-18 0 -32 22l-88 128q-9 12 -4 20.5t20 8.5h88q22 0 32 -23zM325 16v22q-55 -48 -124 -48q-72 0 -114 40t-42 118v248q0 16 17 16h102q17 0 17 -15v-211q0 -76 69 -76q38 0 75 26v259q0 17 17 17h102q17 0 17 -17v-379
q0 -16 -17 -16h-102q-17 0 -17 16z" />
    <glyph glyph-name="uacute" unicode="&#xfa;" horiz-adv-x="513" 
d="M208 488l61 129q11 23 33 23h87q15 0 20 -8.5t-3 -20.5l-88 -128q-16 -22 -33 -22h-61q-13 0 -17.5 7t1.5 20zM325 16v22q-55 -48 -124 -48q-72 0 -114 40t-42 118v248q0 16 17 16h102q17 0 17 -15v-211q0 -76 69 -76q38 0 75 26v259q0 17 17 17h102q17 0 17 -17v-379
q0 -16 -17 -16h-102q-17 0 -17 16z" />
    <glyph glyph-name="ucircumflex" unicode="&#xfb;" horiz-adv-x="513" 
d="M206 482q-15 -21 -33 -21h-46q-13 0 -17.5 7t1.5 19l62 129q11 24 34 24h99q23 0 34 -24l62 -129q6 -12 1.5 -19t-17.5 -7h-47q-17 0 -32 21l-50 81zM325 16v22q-55 -48 -124 -48q-72 0 -114 40t-42 118v248q0 16 17 16h102q17 0 17 -15v-211q0 -76 69 -76q38 0 75 26
v259q0 17 17 17h102q17 0 17 -17v-379q0 -16 -17 -16h-102q-17 0 -17 16z" />
    <glyph glyph-name="udieresis" unicode="&#xfc;" horiz-adv-x="513" 
d="M346 486q-29 0 -49 21t-20 50t20 49t49 20t50 -20.5t21 -48.5q0 -29 -21 -50t-50 -21zM165 486q-29 0 -49 21t-20 50t20 49t49 20t50 -20.5t21 -48.5q0 -29 -21 -50t-50 -21zM325 16v22q-55 -48 -124 -48q-72 0 -114 40t-42 118v248q0 16 17 16h102q17 0 17 -15v-211
q0 -76 69 -76q38 0 75 26v259q0 17 17 17h102q17 0 17 -17v-379q0 -16 -17 -16h-102q-17 0 -17 16z" />
    <glyph glyph-name="yacute" unicode="&#xfd;" horiz-adv-x="488" 
d="M196 488l61 129q11 23 33 23h87q15 0 20 -8.5t-3 -20.5l-88 -128q-16 -22 -33 -22h-61q-13 0 -17.5 7t1.5 20zM111 -259q-56 0 -114 28q-14 7 -9 22l26 70q6 16 23 8q46 -19 63 -19q25 0 39 15t35 73l30 82h-17q-19 0 -24 16l-148 348q-11 28 20 28h93q28 0 35 -22
l88 -241l90 245q7 18 28 18h90q24 0 15 -22l-196 -506q-32 -83 -69.5 -113t-97.5 -30z" />
    <glyph glyph-name="thorn" unicode="&#xfe;" horiz-adv-x="529" 
d="M275 103q38 0 58.5 27.5t20.5 75.5t-21 75.5t-60 27.5q-45 0 -85 -44v-121q41 -41 87 -41zM188 -233q0 -17 -17 -17h-103q-7 0 -12 5t-5 12v896q0 7 5 12t12 5h103q17 0 17 -17v-290q49 49 126 49q83 0 134 -54.5t51 -161.5q0 -102 -50.5 -159t-135.5 -57q-72 0 -125 43
v-266z" />
    <glyph glyph-name="ydieresis" unicode="&#xff;" horiz-adv-x="488" 
d="M334 486q-29 0 -49 21t-20 50t20 49t49 20t50 -20.5t21 -48.5q0 -29 -21 -50t-50 -21zM153 486q-29 0 -49 21t-20 50t20 49t49 20t50 -20.5t21 -48.5q0 -29 -21 -50t-50 -21zM111 -259q-56 0 -114 28q-14 7 -9 22l26 70q6 16 23 8q46 -19 63 -19q25 0 39 15t35 73l30 82
h-17q-19 0 -24 16l-148 348q-11 28 20 28h93q28 0 35 -22l88 -241l90 245q7 18 28 18h90q24 0 15 -22l-196 -506q-32 -83 -69.5 -113t-97.5 -30z" />
    <glyph glyph-name="Amacron" unicode="&#x100;" horiz-adv-x="713" 
d="M220 743q-18 0 -18 17v59q0 18 18 18h271q17 0 17 -18v-59q0 -17 -17 -17h-271zM442 293l-90 247l-90 -247h180zM164 22q-7 -22 -34 -22h-93q-32 0 -21 27l252 636q7 17 24 17h129q17 0 25 -17l251 -636q11 -27 -21 -27h-100q-28 0 -35 22l-57 156h-263z" />
    <glyph glyph-name="amacron" unicode="&#x101;" horiz-adv-x="475" 
d="M100 501q-17 0 -17 15v61q0 17 17 17h254q17 0 17 -17v-61q0 -15 -17 -15h-254zM216 82q27 0 58 18v72h-50q-63 0 -63 -44q0 -46 55 -46zM345 3l-36 28q-65 -39 -132 -39q-68 0 -108 34t-40 95q0 51 42.5 85t122.5 34h80v11q0 55 -61 55q-52 0 -131 -32q-17 -7 -24 11
l-26 65q-7 18 14 28q96 44 191 44q85 0 129 -38t44 -129v-128q0 -17 12 -28l30 -21q16 -12 1 -27l-51 -48q-24 -22 -57 0z" />
    <glyph glyph-name="Abreve" unicode="&#x102;" horiz-adv-x="713" 
d="M356 717q-65 0 -110.5 31t-50.5 95q-1 20 17 20h64q18 0 20 -18q4 -46 60 -46q55 0 59 46q2 18 19 18h65q18 0 17 -20q-5 -64 -50.5 -95t-109.5 -31zM442 293l-90 247l-90 -247h180zM164 22q-7 -22 -34 -22h-93q-32 0 -21 27l252 636q7 17 24 17h129q17 0 25 -17
l251 -636q11 -27 -21 -27h-100q-28 0 -35 22l-57 156h-263z" />
    <glyph glyph-name="abreve" unicode="&#x103;" horiz-adv-x="475" 
d="M232 462q-66 0 -109 34t-48 109q-1 20 17 20h56q17 0 20 -18q7 -61 64 -61q56 0 63 61q3 18 19 18h57q18 0 17 -20q-6 -75 -48.5 -109t-107.5 -34zM216 82q27 0 58 18v72h-50q-63 0 -63 -44q0 -46 55 -46zM345 3l-36 28q-65 -39 -132 -39q-68 0 -108 34t-40 95
q0 51 42.5 85t122.5 34h80v11q0 55 -61 55q-52 0 -131 -32q-17 -7 -24 11l-26 65q-7 18 14 28q96 44 191 44q85 0 129 -38t44 -129v-128q0 -17 12 -28l30 -21q16 -12 1 -27l-51 -48q-24 -22 -57 0z" />
    <glyph glyph-name="Aogonek" unicode="&#x104;" horiz-adv-x="713" 
d="M687 -177q-36 -16 -82 -16q-56 0 -88.5 23t-32.5 69q0 69 83 101q-20 3 -26 22l-57 156h-263l-57 -156q-7 -22 -34 -22h-93q-32 0 -21 27l252 636q7 17 24 17h129q17 0 25 -17l251 -636q6 -14 0.5 -19.5t-21.5 -7.5q-40 -3 -63.5 -20t-23.5 -43q0 -39 42 -39q15 0 30 6
q18 6 23 -9l15 -43q5 -12 2.5 -18t-14.5 -11zM442 293l-90 247l-90 -247h180z" />
    <glyph glyph-name="aogonek" unicode="&#x105;" horiz-adv-x="475" 
d="M362 -193q-117 0 -117 90q0 39 23.5 64.5t66.5 49.5l-24 21q-68 -40 -134 -40q-68 0 -108 34t-40 95q0 51 42.5 85t122.5 34h80v11q0 55 -61 55q-52 0 -131 -32q-17 -7 -24 11l-26 65q-7 18 14 28q96 44 191 44q85 0 129 -38t44 -129v-128q0 -17 12 -28l30 -21
q16 -12 1 -27l-60 -51q-44 -36 -44 -69t39 -33q10 0 30 6q17 6 22 -9l15 -43q5 -12 2.5 -18t-14.5 -11q-36 -16 -81 -16zM216 82q28 0 58 19v71h-51q-62 0 -62 -45t55 -45z" />
    <glyph glyph-name="Cacute" unicode="&#x106;" horiz-adv-x="628" 
d="M301 748l66 96q14 18 36 18h98q14 0 17.5 -9.5t-8.5 -20.5l-94 -94q-18 -17 -38 -17h-65q-13 0 -16.5 7.5t4.5 19.5zM369 -10q-147 0 -239.5 92.5t-92.5 257.5q0 160 91 255t241 95q121 0 224 -62q17 -9 9 -24l-42 -82q-9 -18 -24 -10q-88 53 -167 53q-82 0 -131 -62
t-49 -163q0 -103 52 -164.5t140 -61.5q69 0 162 43q14 8 22 -12l36 -83q5 -15 -10 -23q-102 -49 -222 -49z" />
    <glyph glyph-name="cacute" unicode="&#x107;" horiz-adv-x="427" 
d="M177 488l61 129q12 23 33 23h87q15 0 20 -8.5t-3 -20.5l-88 -128q-16 -22 -33 -22h-61q-13 0 -17.5 7t1.5 20zM259 309q-42 0 -66 -26.5t-24 -73.5q0 -50 26 -78t73 -28q43 0 82 23q18 11 26 -8l31 -70q6 -13 -10 -23q-55 -35 -142 -35q-109 0 -168 56t-59 160
q0 103 57.5 159.5t158.5 56.5q83 0 143 -33q15 -7 8 -24l-26 -72q-7 -20 -24 -10q-45 26 -86 26z" />
    <glyph glyph-name="Ccircumflex" unicode="&#x108;" horiz-adv-x="628" 
d="M304 738q-14 -17 -37 -17h-58q-13 0 -16.5 7.5t4.5 19.5l70 95q15 19 38 19h103q23 0 37 -19l70 -95q9 -12 5 -19.5t-16 -7.5h-59q-23 0 -36 17l-52 57zM369 -10q-147 0 -239.5 92.5t-92.5 257.5q0 160 91 255t241 95q121 0 224 -62q17 -9 9 -24l-42 -82q-9 -18 -24 -10
q-88 53 -167 53q-82 0 -131 -62t-49 -163q0 -103 52 -164.5t140 -61.5q69 0 162 43q14 8 22 -12l36 -83q5 -15 -10 -23q-102 -49 -222 -49z" />
    <glyph glyph-name="ccircumflex" unicode="&#x109;" horiz-adv-x="427" 
d="M172 482q-15 -21 -33 -21h-46q-13 0 -17.5 7t1.5 19l62 129q11 24 34 24h99q23 0 34 -24l62 -129q6 -12 1.5 -19t-17.5 -7h-47q-17 0 -32 21l-50 81zM259 309q-42 0 -66 -26.5t-24 -73.5q0 -50 26 -78t73 -28q43 0 82 23q18 11 26 -8l31 -70q6 -13 -10 -23
q-55 -35 -142 -35q-109 0 -168 56t-59 160q0 103 57.5 159.5t158.5 56.5q83 0 143 -33q15 -7 8 -24l-26 -72q-7 -20 -24 -10q-45 26 -86 26z" />
    <glyph glyph-name="Cdotaccent" unicode="&#x10a;" horiz-adv-x="628" 
d="M359 723q-34 0 -56 22.5t-22 56.5q0 33 22 55.5t56 22.5t56.5 -22.5t22.5 -55.5q0 -34 -22.5 -56.5t-56.5 -22.5zM369 -10q-147 0 -239.5 92.5t-92.5 257.5q0 160 91 255t241 95q121 0 224 -62q17 -9 9 -24l-42 -82q-9 -18 -24 -10q-88 53 -167 53q-82 0 -131 -62
t-49 -163q0 -103 52 -164.5t140 -61.5q69 0 162 43q14 8 22 -12l36 -83q5 -15 -10 -23q-102 -49 -222 -49z" />
    <glyph glyph-name="cdotaccent" unicode="&#x10b;" horiz-adv-x="427" 
d="M228 478q-34 0 -56 22.5t-22 56.5q0 33 22 55t56 22q33 0 56 -22.5t23 -54.5q0 -34 -23 -56.5t-56 -22.5zM259 309q-42 0 -66 -26.5t-24 -73.5q0 -50 26 -78t73 -28q43 0 82 23q18 11 26 -8l31 -70q6 -13 -10 -23q-55 -35 -142 -35q-109 0 -168 56t-59 160
q0 103 57.5 159.5t158.5 56.5q83 0 143 -33q15 -7 8 -24l-26 -72q-7 -20 -24 -10q-45 26 -86 26z" />
    <glyph glyph-name="Ccaron" unicode="&#x10c;" horiz-adv-x="628" 
d="M304 721q-24 0 -38 19l-70 95q-8 11 -4.5 19t16.5 8h58q21 0 37 -17l53 -58l52 58q14 17 36 17h59q12 0 16 -8t-5 -19l-70 -95q-13 -19 -37 -19h-103zM369 -10q-147 0 -239.5 92.5t-92.5 257.5q0 160 91 255t241 95q121 0 224 -62q17 -9 9 -24l-42 -82q-9 -18 -24 -10
q-88 53 -167 53q-82 0 -131 -62t-49 -163q0 -103 52 -164.5t140 -61.5q69 0 162 43q14 8 22 -12l36 -83q5 -15 -10 -23q-102 -49 -222 -49z" />
    <glyph glyph-name="ccaron" unicode="&#x10d;" horiz-adv-x="427" 
d="M179 461q-23 0 -34 23l-62 129q-6 12 -1.5 19.5t17.5 7.5h46q18 0 33 -22l51 -80l50 80q15 22 32 22h47q13 0 17.5 -7.5t-1.5 -19.5l-62 -129q-11 -23 -34 -23h-99zM259 309q-42 0 -66 -26.5t-24 -73.5q0 -50 26 -78t73 -28q43 0 82 23q18 11 26 -8l31 -70q6 -13 -10 -23
q-55 -35 -142 -35q-109 0 -168 56t-59 160q0 103 57.5 159.5t158.5 56.5q83 0 143 -33q15 -7 8 -24l-26 -72q-7 -20 -24 -10q-45 26 -86 26z" />
    <glyph glyph-name="Dcaron" unicode="&#x10e;" horiz-adv-x="709" 
d="M302 721q-24 0 -38 19l-70 95q-8 11 -4.5 19t16.5 8h58q21 0 37 -17l53 -58l52 58q14 17 36 17h59q12 0 16 -8t-5 -19l-70 -95q-13 -19 -37 -19h-103zM306 558h-89v-438h88q98 0 157.5 60.5t59.5 159.5q0 98 -59.5 158t-156.5 60zM90 0q-17 0 -17 16v647q0 17 17 17h217
q165 0 266 -92.5t101 -247.5q0 -154 -101 -247t-265 -93h-218z" />
    <glyph glyph-name="dcaron" unicode="&#x10f;" horiz-adv-x="600" 
d="M514 521v135q0 24 24 24h64q14 0 17.5 -6.5t-0.5 -22.5l-26 -131q-4 -23 -26 -23h-32q-12 0 -16.5 5t-4.5 19zM255 103q45 0 85 44v120q-39 42 -86 42q-38 0 -59 -28t-21 -75q0 -48 21 -75.5t60 -27.5zM340 16v23q-49 -49 -127 -49q-82 0 -132.5 54t-50.5 162
q0 102 50 159t134 57q73 0 126 -44v285q0 17 17 17h103q17 0 17 -17v-647q0 -16 -17 -16h-103q-17 0 -17 16z" />
    <glyph glyph-name="Dcroat" unicode="&#x110;" horiz-adv-x="709" 
d="M325 289h-108v-169h88q98 0 157.5 60.5t59.5 159.5q0 98 -59.5 158t-156.5 60h-89v-167h108q17 0 17 -18v-68q0 -16 -17 -16zM90 0q-17 0 -17 16v273h-44q-18 0 -18 16v68q0 18 18 18h44v272q0 17 17 17h217q165 0 266 -92.5t101 -247.5q0 -154 -101 -247t-265 -93h-218z
" />
    <glyph glyph-name="dcroat" unicode="&#x111;" horiz-adv-x="529" 
d="M255 103q45 0 85 44v120q-39 42 -86 42q-38 0 -59 -28t-21 -75q0 -48 21 -75.5t60 -27.5zM340 16v23q-49 -49 -127 -49q-82 0 -132.5 54t-50.5 162q0 102 50 159t134 57q73 0 126 -44v115h-135q-17 0 -17 15v62q0 17 17 17h135v76q0 17 17 17h103q17 0 17 -17v-76h35
q17 0 17 -17v-62q0 -15 -17 -15h-35v-477q0 -16 -17 -16h-103q-17 0 -17 16z" />
    <glyph glyph-name="Emacron" unicode="&#x112;" horiz-adv-x="602" 
d="M182 743q-18 0 -18 17v59q0 18 18 18h271q17 0 17 -18v-59q0 -17 -17 -17h-271zM90 0q-17 0 -17 16v647q0 17 17 17h465q17 0 17 -18v-86q0 -18 -17 -18h-338v-141h238q17 0 17 -17v-87q0 -17 -17 -17h-238v-176h338q17 0 17 -17v-87q0 -16 -17 -16h-465z" />
    <glyph glyph-name="emacron" unicode="&#x113;" horiz-adv-x="490" 
d="M118 501q-17 0 -17 15v61q0 17 17 17h254q17 0 17 -17v-61q0 -15 -17 -15h-254zM248 320q-29 0 -49 -19t-28 -53h151q-11 72 -74 72zM454 24q-67 -34 -180 -34q-118 0 -182.5 56.5t-64.5 159.5q0 102 60.5 159t163.5 57q90 0 145.5 -53t55.5 -140q0 -22 -3 -38
q-1 -11 -18 -11h-260q8 -41 38 -63t77 -22q54 0 130 27q19 6 24 -10l22 -67q5 -14 -8 -21z" />
    <glyph glyph-name="Ebreve" unicode="&#x114;" horiz-adv-x="602" 
d="M324 717q-65 0 -110.5 31t-50.5 95q-1 20 17 20h64q18 0 20 -18q4 -46 60 -46q55 0 59 46q2 18 19 18h65q18 0 17 -20q-5 -64 -50.5 -95t-109.5 -31zM90 0q-17 0 -17 16v647q0 17 17 17h465q17 0 17 -18v-86q0 -18 -17 -18h-338v-141h238q17 0 17 -17v-87q0 -17 -17 -17
h-238v-176h338q17 0 17 -17v-87q0 -16 -17 -16h-465z" />
    <glyph glyph-name="ebreve" unicode="&#x115;" horiz-adv-x="490" 
d="M246 462q-66 0 -109 34t-48 109q-1 20 17 20h56q17 0 20 -18q7 -61 64 -61q56 0 63 61q3 18 19 18h57q18 0 17 -20q-6 -75 -48.5 -109t-107.5 -34zM248 320q-29 0 -49 -19t-28 -53h151q-11 72 -74 72zM454 24q-67 -34 -180 -34q-118 0 -182.5 56.5t-64.5 159.5
q0 102 60.5 159t163.5 57q90 0 145.5 -53t55.5 -140q0 -22 -3 -38q-1 -11 -18 -11h-260q8 -41 38 -63t77 -22q54 0 130 27q19 6 24 -10l22 -67q5 -14 -8 -21z" />
    <glyph glyph-name="Edotaccent" unicode="&#x116;" horiz-adv-x="602" 
d="M322 723q-34 0 -56 22.5t-22 56.5q0 33 22 55.5t56 22.5t56.5 -22.5t22.5 -55.5q0 -34 -22.5 -56.5t-56.5 -22.5zM90 0q-17 0 -17 16v647q0 17 17 17h465q17 0 17 -18v-86q0 -18 -17 -18h-338v-141h238q17 0 17 -17v-87q0 -17 -17 -17h-238v-176h338q17 0 17 -17v-87
q0 -16 -17 -16h-465z" />
    <glyph glyph-name="edotaccent" unicode="&#x117;" horiz-adv-x="490" 
d="M245 478q-34 0 -56 22.5t-22 56.5q0 33 22.5 55t55.5 22t56 -22.5t23 -54.5q0 -34 -23 -56.5t-56 -22.5zM248 320q-29 0 -49 -19t-28 -53h151q-11 72 -74 72zM454 24q-67 -34 -180 -34q-118 0 -182.5 56.5t-64.5 159.5q0 102 60.5 159t163.5 57q90 0 145.5 -53t55.5 -140
q0 -22 -3 -38q-1 -11 -18 -11h-260q8 -41 38 -63t77 -22q54 0 130 27q19 6 24 -10l22 -67q5 -14 -8 -21z" />
    <glyph glyph-name="Eogonek" unicode="&#x118;" horiz-adv-x="602" 
d="M550 -177q-36 -16 -82 -16q-55 0 -87 22.5t-32 66.5q0 69 78 104h-337q-17 0 -17 16v647q0 17 17 17h465q17 0 17 -18v-86q0 -18 -17 -18h-338v-141h238q17 0 17 -17v-87q0 -17 -17 -17h-238v-176h338q17 0 17 -17v-87q0 -16 -17 -16h-17q-40 -3 -63 -20t-23 -43
q0 -39 41 -39q16 0 32 6t22 -9l15 -43q5 -12 2.5 -18t-14.5 -11z" />
    <glyph glyph-name="eogonek" unicode="&#x119;" horiz-adv-x="490" 
d="M422 -177q-36 -16 -81 -16q-117 0 -117 90q0 58 56 94q-5 -1 -14 -1q-114 2 -176.5 58.5t-62.5 157.5q0 102 60.5 159t163.5 57q90 0 145.5 -53t55.5 -140q0 -22 -3 -38q-1 -11 -18 -11h-257q17 -85 112 -85q54 0 130 27q19 6 24 -10l22 -67q6 -15 -8 -21
q-23 -11 -55 -20q-71 -21 -71 -69q0 -37 39 -37q11 0 29 6t23 -9l15 -43q5 -12 2.5 -18t-14.5 -11zM248 320q-29 0 -49.5 -19.5t-26.5 -52.5h150q-8 72 -74 72z" />
    <glyph glyph-name="Ecaron" unicode="&#x11a;" horiz-adv-x="602" 
d="M269 721q-24 0 -38 19l-70 95q-8 11 -4.5 19t16.5 8h58q21 0 37 -17l53 -58l52 58q14 17 36 17h59q12 0 16 -8t-5 -19l-70 -95q-13 -19 -37 -19h-103zM90 0q-17 0 -17 16v647q0 17 17 17h465q17 0 17 -18v-86q0 -18 -17 -18h-338v-141h238q17 0 17 -17v-87q0 -17 -17 -17
h-238v-176h338q17 0 17 -17v-87q0 -16 -17 -16h-465z" />
    <glyph glyph-name="ecaron" unicode="&#x11b;" horiz-adv-x="490" 
d="M196 461q-23 0 -34 23l-62 129q-6 12 -1.5 19.5t17.5 7.5h46q18 0 33 -22l51 -80l50 80q15 22 32 22h47q13 0 17.5 -7.5t-1.5 -19.5l-62 -129q-11 -23 -34 -23h-99zM248 320q-29 0 -49 -19t-28 -53h151q-11 72 -74 72zM454 24q-67 -34 -180 -34q-118 0 -182.5 56.5
t-64.5 159.5q0 102 60.5 159t163.5 57q90 0 145.5 -53t55.5 -140q0 -22 -3 -38q-1 -11 -18 -11h-260q8 -41 38 -63t77 -22q54 0 130 27q19 6 24 -10l22 -67q5 -14 -8 -21z" />
    <glyph glyph-name="Gcircumflex" unicode="&#x11c;" horiz-adv-x="684" 
d="M306 738q-14 -17 -37 -17h-58q-13 0 -16.5 7.5t4.5 19.5l70 95q15 19 38 19h103q23 0 37 -19l70 -95q9 -12 5 -19.5t-16 -7.5h-59q-23 0 -36 17l-52 57zM503 16v28q-63 -54 -155 -54q-137 0 -224 93t-87 257q0 160 92.5 255t244.5 95q135 0 242 -61q16 -9 8 -25l-41 -82
q-9 -18 -24 -10q-98 53 -185 53q-84 0 -134.5 -62t-50.5 -163q0 -102 50.5 -164t134.5 -62q74 0 129 55v136q0 16 17 16h102q17 0 17 -16v-289q0 -16 -17 -16h-102q-17 0 -17 16z" />
    <glyph glyph-name="gcircumflex" unicode="&#x11d;" horiz-adv-x="480" 
d="M185 482q-15 -21 -33 -21h-46q-13 0 -17.5 7t1.5 19l62 129q11 24 34 24h99q23 0 34 -24l62 -129q6 -12 1.5 -19t-17.5 -7h-47q-17 0 -32 21l-50 81zM237 193q30 0 48 18.5t18 50.5q0 33 -18 51.5t-48 18.5q-32 0 -49.5 -18.5t-17.5 -51.5q0 -32 18 -50.5t49 -18.5z
M476 -81q0 -79 -72 -129t-195 -50q-88 0 -139.5 31t-51.5 82q0 63 75 92q-56 28 -56 93q0 63 67 96q-71 40 -71 128q0 75 54.5 117.5t149.5 42.5q89 0 141 -37l13 14q13 14 17 25.5t4 37.5v15q0 18 18 18h62q18 0 18 -18v-12q0 -98 -86 -132q16 -32 16 -71q0 -75 -54 -117
t-149 -42q-41 0 -72 7q-14 -17 -14 -34q0 -29 38 -29h111q176 0 176 -128zM230 -177q52 0 84 19t32 48q0 21 -18.5 30.5t-62.5 9.5h-82q-43 -21 -43 -55q0 -24 23.5 -38t66.5 -14z" />
    <glyph glyph-name="Gbreve" unicode="&#x11e;" horiz-adv-x="684" 
d="M359 717q-65 0 -110.5 31t-50.5 95q-1 20 17 20h64q18 0 20 -18q4 -46 60 -46q55 0 59 46q2 18 19 18h65q18 0 17 -20q-5 -64 -50.5 -95t-109.5 -31zM503 16v28q-63 -54 -155 -54q-137 0 -224 93t-87 257q0 160 92.5 255t244.5 95q135 0 242 -61q16 -9 8 -25l-41 -82
q-9 -18 -24 -10q-98 53 -185 53q-84 0 -134.5 -62t-50.5 -163q0 -102 50.5 -164t134.5 -62q74 0 129 55v136q0 16 17 16h102q17 0 17 -16v-289q0 -16 -17 -16h-102q-17 0 -17 16z" />
    <glyph glyph-name="gbreve" unicode="&#x11f;" horiz-adv-x="480" 
d="M238 462q-66 0 -109 34t-48 109q-1 20 17 20h56q17 0 20 -18q7 -61 64 -61q56 0 63 61q3 18 19 18h57q18 0 17 -20q-6 -75 -48.5 -109t-107.5 -34zM237 193q30 0 48 18.5t18 50.5q0 33 -18 51.5t-48 18.5q-32 0 -49.5 -18.5t-17.5 -51.5q0 -32 18 -50.5t49 -18.5z
M476 -81q0 -79 -72 -129t-195 -50q-88 0 -139.5 31t-51.5 82q0 63 75 92q-56 28 -56 93q0 63 67 96q-71 40 -71 128q0 75 54.5 117.5t149.5 42.5q89 0 141 -37l13 14q13 14 17 25.5t4 37.5v15q0 18 18 18h62q18 0 18 -18v-12q0 -98 -86 -132q16 -32 16 -71q0 -75 -54 -117
t-149 -42q-41 0 -72 7q-14 -17 -14 -34q0 -29 38 -29h111q176 0 176 -128zM230 -177q52 0 84 19t32 48q0 21 -18.5 30.5t-62.5 9.5h-82q-43 -21 -43 -55q0 -24 23.5 -38t66.5 -14z" />
    <glyph glyph-name="Gdotaccent" unicode="&#x120;" horiz-adv-x="684" 
d="M360 723q-34 0 -56 22.5t-22 56.5q0 33 22 55.5t56 22.5t56.5 -22.5t22.5 -55.5q0 -34 -22.5 -56.5t-56.5 -22.5zM503 16v28q-63 -54 -155 -54q-137 0 -224 93t-87 257q0 160 92.5 255t244.5 95q135 0 242 -61q16 -9 8 -25l-41 -82q-9 -18 -24 -10q-98 53 -185 53
q-84 0 -134.5 -62t-50.5 -163q0 -102 50.5 -164t134.5 -62q74 0 129 55v136q0 16 17 16h102q17 0 17 -16v-289q0 -16 -17 -16h-102q-17 0 -17 16z" />
    <glyph glyph-name="gdotaccent" unicode="&#x121;" horiz-adv-x="480" 
d="M238 478q-34 0 -56 22.5t-22 56.5q0 33 22 55t56 22q33 0 56 -22.5t23 -54.5q0 -34 -23 -56.5t-56 -22.5zM237 193q30 0 48 18.5t18 50.5q0 33 -18 51.5t-48 18.5q-32 0 -49.5 -18.5t-17.5 -51.5q0 -32 18 -50.5t49 -18.5zM476 -81q0 -79 -72 -129t-195 -50
q-88 0 -139.5 31t-51.5 82q0 63 75 92q-56 28 -56 93q0 63 67 96q-71 40 -71 128q0 75 54.5 117.5t149.5 42.5q89 0 141 -37l13 14q13 14 17 25.5t4 37.5v15q0 18 18 18h62q18 0 18 -18v-12q0 -98 -86 -132q16 -32 16 -71q0 -75 -54 -117t-149 -42q-41 0 -72 7
q-14 -17 -14 -34q0 -29 38 -29h111q176 0 176 -128zM230 -177q52 0 84 19t32 48q0 21 -18.5 30.5t-62.5 9.5h-82q-43 -21 -43 -55q0 -24 23.5 -38t66.5 -14z" />
    <glyph glyph-name="Gcommaaccent" unicode="&#x122;" horiz-adv-x="684" 
d="M503 16v28q-63 -54 -155 -54q-137 0 -224 93t-87 257q0 160 92.5 255t244.5 95q135 0 242 -61q16 -9 8 -25l-41 -82q-9 -18 -24 -10q-98 53 -185 53q-84 0 -134.5 -62t-50.5 -163q0 -102 50.5 -164t134.5 -62q74 0 129 55v136q0 16 17 16h102q17 0 17 -16v-289
q0 -16 -17 -16h-102q-17 0 -17 16zM254 -190l45 127q8 23 33 23h87q15 0 19.5 -8t-2.5 -21l-72 -126q-14 -22 -33 -22h-61q-27 0 -16 27z" />
    <glyph glyph-name="gcommaaccent" unicode="&#x123;" horiz-adv-x="480" 
d="M360 612l-47 -129q-8 -22 -33 -22h-87q-15 0 -19.5 7.5t2.5 20.5l74 128q14 23 33 23h62q26 0 15 -28zM237 193q30 0 48 18.5t18 50.5q0 33 -18 51.5t-48 18.5q-32 0 -49.5 -18.5t-17.5 -51.5q0 -32 18 -50.5t49 -18.5zM476 -81q0 -79 -72 -129t-195 -50q-88 0 -139.5 31
t-51.5 82q0 63 75 92q-56 28 -56 93q0 63 67 96q-71 40 -71 128q0 75 54.5 117.5t149.5 42.5q89 0 141 -37l13 14q13 14 17 25.5t4 37.5v15q0 18 18 18h62q18 0 18 -18v-12q0 -98 -86 -132q16 -32 16 -71q0 -75 -54 -117t-149 -42q-41 0 -72 7q-14 -17 -14 -34q0 -29 38 -29
h111q176 0 176 -128zM230 -177q52 0 84 19t32 48q0 21 -18.5 30.5t-62.5 9.5h-82q-43 -21 -43 -55q0 -24 23.5 -38t66.5 -14z" />
    <glyph glyph-name="Hcircumflex" unicode="&#x124;" horiz-adv-x="755" 
d="M324 738q-14 -17 -37 -17h-58q-13 0 -16.5 7.5t4.5 19.5l70 95q15 19 38 19h103q23 0 37 -19l70 -95q9 -12 5 -19.5t-16 -7.5h-59q-23 0 -36 17l-52 57zM217 16q0 -16 -17 -16h-110q-17 0 -17 16v647q0 17 17 17h110q17 0 17 -17v-238h320v238q0 17 17 17h111
q17 0 17 -17v-647q0 -16 -17 -16h-111q-17 0 -17 16v288h-320v-288z" />
    <glyph glyph-name="hcircumflex" unicode="&#x125;" horiz-adv-x="524" 
d="M170 738q-14 -17 -37 -17h-58q-13 0 -16.5 7.5t4.5 19.5l70 95q15 19 38 19h103q23 0 37 -19l70 -95q9 -12 5 -19.5t-16 -7.5h-59q-23 0 -36 17l-52 57zM188 16q0 -16 -17 -16h-103q-17 0 -17 16v646q0 18 17 18h103q17 0 17 -18v-292q55 52 133 52q73 0 115 -40.5
t42 -118.5v-247q0 -16 -17 -16h-103q-17 0 -17 14v213q0 75 -68 75q-43 0 -85 -34v-252z" />
    <glyph glyph-name="Hbar" unicode="&#x126;" horiz-adv-x="755" 
d="M537 425v73h-320v-73h320zM217 16q0 -16 -17 -16h-110q-17 0 -17 16v482h-40q-17 0 -17 16v53q0 18 17 18h40v78q0 17 17 17h110q17 0 17 -17v-78h320v78q0 17 17 17h111q17 0 17 -17v-78h39q18 0 18 -18v-53q0 -16 -18 -16h-39v-482q0 -16 -17 -16h-111q-17 0 -17 16
v288h-320v-288z" />
    <glyph glyph-name="hbar" unicode="&#x127;" horiz-adv-x="524" 
d="M188 16q0 -16 -17 -16h-103q-17 0 -17 16v477h-35q-16 0 -16 15v62q0 17 16 17h35v75q0 18 17 18h103q17 0 17 -18v-75h135q18 0 18 -17v-62q0 -15 -18 -15h-135v-123q55 52 133 52q73 0 115 -40.5t42 -118.5v-247q0 -16 -17 -16h-103q-17 0 -17 14v213q0 75 -68 75
q-43 0 -85 -34v-252z" />
    <glyph glyph-name="Itilde" unicode="&#x128;" horiz-adv-x="290" 
d="M102 760q-28 0 -56 -25q-20 -18 -32 -4l-36 40q-10 12 3 25q58 65 111 65q21 0 57.5 -16t53.5 -16q25 0 48 22q21 20 33 6l38 -42q8 -11 -4 -25q-56 -62 -107 -62q-21 0 -58 16t-51 16zM73 16v647q0 17 17 17h110q17 0 17 -17v-647q0 -16 -17 -16h-110q-17 0 -17 16z" />
    <glyph glyph-name="itilde" unicode="&#x129;" horiz-adv-x="240" 
d="M78 521q-29 0 -52 -23q-22 -18 -33 -6l-37 42q-9 10 4 25q60 64 109 64q20 0 53.5 -14.5t48.5 -14.5q25 0 46 20t33 7l35 -40q10 -10 -2 -26q-30 -34 -51.5 -48.5t-48.5 -14.5q-20 0 -55.5 14.5t-49.5 14.5zM51 16v379q0 17 17 17h103q17 0 17 -17v-379q0 -16 -17 -16
h-103q-17 0 -17 16z" />
    <glyph glyph-name="Imacron" unicode="&#x12a;" horiz-adv-x="290" 
d="M10 743q-18 0 -18 17v59q0 18 18 18h271q17 0 17 -18v-59q0 -17 -17 -17h-271zM73 16v647q0 17 17 17h110q17 0 17 -17v-647q0 -16 -17 -16h-110q-17 0 -17 16z" />
    <glyph glyph-name="imacron" unicode="&#x12b;" horiz-adv-x="240" 
d="M-7 501q-17 0 -17 15v61q0 17 17 17h254q17 0 17 -17v-61q0 -15 -17 -15h-254zM51 16v379q0 17 17 17h103q17 0 17 -17v-379q0 -16 -17 -16h-103q-17 0 -17 16z" />
    <glyph glyph-name="Ibreve" unicode="&#x12c;" horiz-adv-x="290" 
d="M146 717q-65 0 -110.5 31t-50.5 95q-1 20 17 20h64q18 0 20 -18q4 -46 60 -46q55 0 59 46q2 18 19 18h65q18 0 17 -20q-5 -64 -50.5 -95t-109.5 -31zM73 16v647q0 17 17 17h110q17 0 17 -17v-647q0 -16 -17 -16h-110q-17 0 -17 16z" />
    <glyph glyph-name="ibreve" unicode="&#x12d;" horiz-adv-x="240" 
d="M121 462q-66 0 -109 34t-48 109q-1 20 17 20h56q17 0 20 -18q7 -61 64 -61q56 0 63 61q3 18 19 18h57q18 0 17 -20q-6 -75 -48.5 -109t-107.5 -34zM51 16v379q0 17 17 17h103q17 0 17 -17v-379q0 -16 -17 -16h-103q-17 0 -17 16z" />
    <glyph glyph-name="Iogonek" unicode="&#x12e;" horiz-adv-x="290" 
d="M131 -193q-55 0 -87.5 22.5t-32.5 66.5q0 71 77 104q-15 2 -15 16v647q0 17 17 17h110q17 0 17 -17v-647q0 -14 -16 -16q-40 -3 -63 -20t-23 -43q0 -39 41 -39q16 0 31 6q17 6 22 -9l16 -43q5 -12 2.5 -18t-14.5 -11q-36 -16 -82 -16z" />
    <glyph glyph-name="iogonek" unicode="&#x12f;" horiz-adv-x="240" 
d="M119 478q-33 0 -55.5 22.5t-22.5 56.5q0 32 22.5 54.5t55.5 22.5t56 -22.5t23 -54.5q0 -34 -23 -56.5t-56 -22.5zM103 -193q-53 0 -84.5 22.5t-31.5 68.5q0 70 88 102h-7q-17 0 -17 16v379q0 17 17 17h103q17 0 17 -17v-379q0 -14 -15 -16q-36 -3 -60 -21t-24 -44
q0 -37 40 -37q14 0 29 6q18 6 23 -10l15 -43q5 -11 2.5 -17t-14.5 -11q-36 -16 -81 -16z" />
    <glyph glyph-name="Idotaccent" unicode="&#x130;" horiz-adv-x="290" 
d="M145 723q-34 0 -56 22.5t-22 56.5q0 33 22 55.5t56 22.5t56.5 -22.5t22.5 -55.5q0 -34 -22.5 -56.5t-56.5 -22.5zM73 16v647q0 17 17 17h110q17 0 17 -17v-647q0 -16 -17 -16h-110q-17 0 -17 16z" />
    <glyph glyph-name="dotlessi" unicode="&#x131;" horiz-adv-x="240" 
d="M51 16v379q0 17 17 17h103q17 0 17 -17v-379q0 -16 -17 -16h-103q-17 0 -17 16z" />
    <glyph glyph-name="IJ" unicode="&#x132;" horiz-adv-x="750" 
d="M73 16v647q0 17 17 17h110q17 0 17 -17v-647q0 -16 -17 -16h-110q-17 0 -17 16zM682 182q0 -96 -51 -144t-144 -48q-91 0 -173 42q-19 9 -9 29l37 79q8 16 25 8q73 -34 113 -34q58 0 58 64v485q0 17 17 17h110q17 0 17 -17v-481z" />
    <glyph glyph-name="ij" unicode="&#x133;" horiz-adv-x="480" 
d="M359 478q-33 0 -55.5 22.5t-22.5 56.5q0 32 22.5 54.5t55.5 22.5t56 -22.5t23 -54.5q0 -34 -23 -56.5t-56 -22.5zM119 478q-33 0 -55.5 22.5t-22.5 56.5q0 32 22.5 54.5t55.5 22.5t56 -22.5t23 -54.5q0 -34 -23 -56.5t-56 -22.5zM51 16v379q0 17 17 17h103q17 0 17 -17
v-379q0 -16 -17 -16h-103q-17 0 -17 16zM291 -95v490q0 17 17 17h103q17 0 17 -17v-483q0 -171 -152 -171q-59 0 -119 30q-15 8 -9 22l31 68q8 16 23 8q32 -15 54 -15q20 0 27.5 11.5t7.5 39.5z" />
    <glyph glyph-name="Jcircumflex" unicode="&#x134;" horiz-adv-x="459" 
d="M265 738q-14 -17 -37 -17h-58q-13 0 -16.5 7.5t4.5 19.5l70 95q15 19 38 19h103q23 0 37 -19l70 -95q9 -12 5 -19.5t-16 -7.5h-59q-23 0 -36 17l-52 57zM392 182q0 -96 -51 -144t-144 -48q-91 0 -173 42q-19 9 -9 29l37 79q8 16 25 8q73 -34 113 -34q58 0 58 64v485
q0 17 17 17h110q17 0 17 -17v-481z" />
    <glyph glyph-name="jcircumflex" unicode="&#x135;" horiz-adv-x="240" 
d="M70 482q-15 -21 -33 -21h-46q-13 0 -17.5 7t1.5 19l62 129q11 24 34 24h99q23 0 34 -24l62 -129q6 -12 1.5 -19t-17.5 -7h-47q-17 0 -32 21l-50 81zM51 -95v490q0 17 17 17h103q17 0 17 -17v-483q0 -171 -152 -171q-59 0 -119 30q-15 8 -9 22l31 68q8 16 23 8
q32 -15 54 -15q20 0 27.5 11.5t7.5 39.5z" />
    <glyph glyph-name="Kcommaaccent" unicode="&#x136;" horiz-adv-x="659" 
d="M217 16q0 -16 -17 -16h-110q-17 0 -17 16v647q0 17 17 17h110q17 0 17 -17v-257l245 261q12 13 34 13h113q14 0 16 -7t-7 -18l-273 -289l298 -343q9 -11 6.5 -17t-15.5 -6h-131q-23 0 -38 18l-248 297v-299zM241 -190l45 127q8 23 33 23h87q15 0 19.5 -8t-2.5 -21
l-72 -126q-14 -22 -33 -22h-61q-27 0 -16 27z" />
    <glyph glyph-name="kcommaaccent" unicode="&#x137;" horiz-adv-x="504" 
d="M188 16q0 -16 -17 -16h-102q-18 0 -18 16v647q0 17 18 17h102q17 0 17 -17v-393l131 129q12 13 34 13h103q13 0 16 -7t-7 -17l-162 -159l187 -206q18 -23 -9 -23h-119q-25 0 -39 18l-135 163v-165zM155 -192l47 127q8 22 33 22h87q15 0 19.5 -7.5t-2.5 -20.5l-73 -126
q-13 -22 -34 -22h-60q-26 0 -17 27z" />
    <glyph glyph-name="Lacute" unicode="&#x139;" horiz-adv-x="558" 
d="M103 748l66 96q14 18 36 18h98q14 0 17.5 -9.5t-8.5 -20.5l-94 -94q-18 -17 -38 -17h-65q-13 0 -16.5 7.5t4.5 19.5zM90 0q-17 0 -17 16v647q0 17 17 17h110q17 0 17 -17v-543h308q17 0 17 -17v-87q0 -16 -17 -16h-435z" />
    <glyph glyph-name="lacute" unicode="&#x13a;" horiz-adv-x="240" 
d="M75 748l66 96q14 18 36 18h98q14 0 17.5 -9.5t-8.5 -20.5l-94 -94q-18 -17 -38 -17h-65q-13 0 -16.5 7.5t4.5 19.5zM51 16v647q0 17 18 17h102q17 0 17 -17v-647q0 -16 -17 -16h-102q-18 0 -18 16z" />
    <glyph glyph-name="Lcommaaccent" unicode="&#x13b;" horiz-adv-x="558" 
d="M90 0q-17 0 -17 16v647q0 17 17 17h110q17 0 17 -17v-543h308q17 0 17 -17v-87q0 -16 -17 -16h-435zM191 -190l45 127q8 23 33 23h87q15 0 19.5 -8t-2.5 -21l-72 -126q-14 -22 -33 -22h-61q-27 0 -16 27z" />
    <glyph glyph-name="lcommaaccent" unicode="&#x13c;" horiz-adv-x="240" 
d="M51 16v647q0 17 18 17h102q17 0 17 -17v-647q0 -16 -17 -16h-102q-18 0 -18 16zM4 -192l47 127q8 22 33 22h87q15 0 19.5 -7.5t-2.5 -20.5l-73 -126q-13 -22 -34 -22h-60q-26 0 -17 27z" />
    <glyph glyph-name="Lcaron" unicode="&#x13d;" horiz-adv-x="558" 
d="M296 521v135q0 24 24 24h83q14 0 17.5 -6.5t-0.5 -22.5l-26 -131q-5 -23 -26 -23h-51q-12 0 -16.5 5t-4.5 19zM90 0q-17 0 -17 16v647q0 17 17 17h110q17 0 17 -17v-543h308q17 0 17 -17v-87q0 -16 -17 -16h-435z" />
    <glyph glyph-name="lcaron" unicode="&#x13e;" horiz-adv-x="312" 
d="M225 521v135q0 24 24 24h64q14 0 17.5 -6.5t-0.5 -22.5l-26 -131q-4 -23 -26 -23h-32q-12 0 -16.5 5t-4.5 19zM51 16v647q0 17 18 17h102q17 0 17 -17v-647q0 -16 -17 -16h-102q-18 0 -18 16z" />
    <glyph glyph-name="Ldot" unicode="&#x13f;" horiz-adv-x="558" 
d="M413 302q-34 0 -56 22.5t-22 56.5q0 33 22.5 55t55.5 22t56 -22.5t23 -54.5q0 -34 -23 -56.5t-56 -22.5zM90 0q-17 0 -17 16v647q0 17 17 17h110q17 0 17 -17v-543h308q17 0 17 -17v-87q0 -16 -17 -16h-435z" />
    <glyph glyph-name="ldot" unicode="&#x140;" horiz-adv-x="341" 
d="M51 16v647q0 17 18 17h102q17 0 17 -17v-647q0 -16 -17 -16h-102q-18 0 -18 16zM287 257q-34 0 -56 22.5t-22 56.5q0 32 22.5 54.5t55.5 22.5t56 -22.5t23 -54.5q0 -34 -23 -56.5t-56 -22.5z" />
    <glyph glyph-name="Lslash" unicode="&#x141;" horiz-adv-x="558" 
d="M90 0q-17 0 -17 16v253l-51 -13q-17 -3 -17 15v76q0 15 17 18l51 13v285q0 17 17 17h110q17 0 17 -17v-250l126 31q8 1 13 -4t5 -14v-76q0 -12 -18 -15l-126 -31v-184h308q17 0 17 -17v-87q0 -16 -17 -16h-435z" />
    <glyph glyph-name="lslash" unicode="&#x142;" horiz-adv-x="240" 
d="M171 0h-102q-18 0 -18 16v282l-41 -9q-7 -2 -12 3t-5 12v60q0 14 17 19l41 9v271q0 17 18 17h102q17 0 17 -17v-240l42 10q8 1 12.5 -4t4.5 -13v-61q0 -13 -17 -16l-42 -10v-313q0 -16 -17 -16z" />
    <glyph glyph-name="Nacute" unicode="&#x143;" horiz-adv-x="720" 
d="M305 748l66 96q14 18 36 18h98q14 0 17.5 -9.5t-8.5 -20.5l-94 -94q-18 -17 -38 -17h-65q-13 0 -16.5 7.5t4.5 19.5zM209 16q0 -16 -17 -16h-102q-17 0 -17 16v647q0 17 17 17h115q18 0 27 -14l278 -453v450q0 17 17 17h102q18 0 18 -17v-647q0 -16 -18 -16h-111
q-15 0 -25 14l-284 452v-450z" />
    <glyph glyph-name="nacute" unicode="&#x144;" horiz-adv-x="523" 
d="M213 488l61 129q12 23 33 23h87q15 0 20 -8.5t-3 -20.5l-88 -128q-16 -22 -33 -22h-61q-13 0 -17.5 7t1.5 20zM188 16q0 -16 -17 -16h-103q-17 0 -17 16v379q0 17 17 17h103q17 0 17 -17v-24q56 51 133 51q73 0 115 -40.5t42 -118.5v-247q0 -16 -17 -16h-103
q-17 0 -17 14v213q0 75 -68 75q-43 0 -85 -34v-252z" />
    <glyph glyph-name="Ncommaaccent" unicode="&#x145;" horiz-adv-x="720" 
d="M209 16q0 -16 -17 -16h-102q-17 0 -17 16v647q0 17 17 17h115q18 0 27 -14l278 -453v450q0 17 17 17h102q18 0 18 -17v-647q0 -16 -18 -16h-111q-15 0 -25 14l-284 452v-450zM272 -190l45 127q8 23 33 23h87q15 0 19.5 -8t-2.5 -21l-72 -126q-14 -22 -33 -22h-61
q-27 0 -16 27z" />
    <glyph glyph-name="ncommaaccent" unicode="&#x146;" horiz-adv-x="523" 
d="M188 16q0 -16 -17 -16h-103q-17 0 -17 16v379q0 17 17 17h103q17 0 17 -17v-24q56 51 133 51q73 0 115 -40.5t42 -118.5v-247q0 -16 -17 -16h-103q-17 0 -17 14v213q0 75 -68 75q-43 0 -85 -34v-252zM165 -192l47 127q8 22 33 22h87q15 0 19.5 -7.5t-2.5 -20.5l-73 -126
q-13 -22 -34 -22h-60q-26 0 -17 27z" />
    <glyph glyph-name="Ncaron" unicode="&#x147;" horiz-adv-x="720" 
d="M308 721q-24 0 -38 19l-70 95q-8 11 -4.5 19t16.5 8h58q21 0 37 -17l53 -58l52 58q14 17 36 17h59q12 0 16 -8t-5 -19l-70 -95q-13 -19 -37 -19h-103zM209 16q0 -16 -17 -16h-102q-17 0 -17 16v647q0 17 17 17h115q18 0 27 -14l278 -453v450q0 17 17 17h102q18 0 18 -17
v-647q0 -16 -18 -16h-111q-15 0 -25 14l-284 452v-450z" />
    <glyph glyph-name="ncaron" unicode="&#x148;" horiz-adv-x="523" 
d="M212 461q-23 0 -34 23l-62 129q-6 12 -1.5 19.5t17.5 7.5h46q18 0 33 -22l51 -80l50 80q15 22 32 22h47q13 0 17.5 -7.5t-1.5 -19.5l-62 -129q-11 -23 -34 -23h-99zM188 16q0 -16 -17 -16h-103q-17 0 -17 16v379q0 17 17 17h103q17 0 17 -17v-24q56 51 133 51
q73 0 115 -40.5t42 -118.5v-247q0 -16 -17 -16h-103q-17 0 -17 14v213q0 75 -68 75q-43 0 -85 -34v-252z" />
    <glyph glyph-name="Omacron" unicode="&#x14c;" horiz-adv-x="749" 
d="M238 743q-18 0 -18 17v59q0 18 18 18h271q17 0 17 -18v-59q0 -17 -17 -17h-271zM374 -10q-153 0 -245.5 95t-92.5 255t93 255t245 95q153 0 245.5 -95t92.5 -255t-92.5 -255t-245.5 -95zM374 114q84 0 135 62t51 164q0 101 -51 163t-135 62t-135 -62t-51 -163
q0 -102 51 -164t135 -62z" />
    <glyph glyph-name="omacron" unicode="&#x14d;" horiz-adv-x="519" 
d="M132 501q-17 0 -17 15v61q0 17 17 17h254q17 0 17 -17v-61q0 -15 -17 -15h-254zM259 -10q-107 0 -169.5 57t-62.5 159t62.5 159t169.5 57t169.5 -57t62.5 -159t-62.5 -159t-169.5 -57zM259 103q40 0 63.5 28t23.5 75t-23.5 75t-63.5 28t-63.5 -28t-23.5 -75t23.5 -75
t63.5 -28z" />
    <glyph glyph-name="Obreve" unicode="&#x14e;" horiz-adv-x="749" 
d="M374 717q-65 0 -110.5 31t-50.5 95q-1 20 17 20h64q18 0 20 -18q4 -46 60 -46q55 0 59 46q2 18 19 18h65q18 0 17 -20q-5 -64 -50.5 -95t-109.5 -31zM374 -10q-153 0 -245.5 95t-92.5 255t93 255t245 95q153 0 245.5 -95t92.5 -255t-92.5 -255t-245.5 -95zM374 114
q84 0 135 62t51 164q0 101 -51 163t-135 62t-135 -62t-51 -163q0 -102 51 -164t135 -62z" />
    <glyph glyph-name="obreve" unicode="&#x14f;" horiz-adv-x="519" 
d="M260 462q-66 0 -109 34t-48 109q-1 20 17 20h56q17 0 20 -18q7 -61 64 -61q56 0 63 61q3 18 19 18h57q18 0 17 -20q-6 -75 -48.5 -109t-107.5 -34zM259 -10q-107 0 -169.5 57t-62.5 159t62.5 159t169.5 57t169.5 -57t62.5 -159t-62.5 -159t-169.5 -57zM259 103
q40 0 63.5 28t23.5 75t-23.5 75t-63.5 28t-63.5 -28t-23.5 -75t23.5 -75t63.5 -28z" />
    <glyph glyph-name="Ohungarumlaut" unicode="&#x150;" horiz-adv-x="749" 
d="M431 748l65 96q14 18 36 18h83q15 0 18 -9.5t-9 -20.5l-94 -94q-20 -17 -38 -17h-50q-12 0 -16 7.5t5 19.5zM239 748l66 96q14 18 36 18h83q14 0 17.5 -9.5t-8.5 -20.5l-94 -94q-18 -17 -38 -17h-50q-12 0 -16 7.5t4 19.5zM374 -10q-153 0 -245.5 95t-92.5 255t93 255
t245 95q153 0 245.5 -95t92.5 -255t-92.5 -255t-245.5 -95zM374 114q84 0 135 62t51 164q0 101 -51 163t-135 62t-135 -62t-51 -163q0 -102 51 -164t135 -62z" />
    <glyph glyph-name="ohungarumlaut" unicode="&#x151;" horiz-adv-x="519" 
d="M286 488l62 129q10 23 33 23h79q15 0 20 -8.5t-3 -20.5l-88 -128q-16 -22 -33 -22h-54q-13 0 -17.5 7t1.5 20zM106 488l61 129q10 23 33 23h80q14 0 19 -8.5t-3 -20.5l-88 -128q-16 -22 -33 -22h-53q-13 0 -17.5 7t1.5 20zM259 -10q-107 0 -169.5 57t-62.5 159t62.5 159
t169.5 57t169.5 -57t62.5 -159t-62.5 -159t-169.5 -57zM259 103q40 0 63.5 28t23.5 75t-23.5 75t-63.5 28t-63.5 -28t-23.5 -75t23.5 -75t63.5 -28z" />
    <glyph glyph-name="OE" unicode="&#x152;" horiz-adv-x="1089" 
d="M374 114q78 0 128 54t57 145v54q-7 90 -57 144t-128 54q-84 0 -135 -62t-51 -163q0 -102 51 -164t135 -62zM559 16v41q-82 -67 -185 -67q-153 0 -245.5 95t-92.5 255t93 255t245 95q105 0 185 -67v40q0 17 18 17h465q17 0 17 -18v-86q0 -18 -17 -18h-338v-141h238
q17 0 17 -17v-87q0 -17 -17 -17h-238v-176h338q17 0 17 -17v-87q0 -16 -17 -16h-465q-18 0 -18 16z" />
    <glyph glyph-name="oe" unicode="&#x153;" horiz-adv-x="805" 
d="M769 24q-67 -34 -180 -34q-110 0 -172 53q-59 -53 -158 -53q-107 0 -169.5 57t-62.5 159t62.5 159t169.5 57q98 0 156 -49q58 49 151 49q90 0 145.5 -53t55.5 -140q0 -14 -2 -38q-1 -11 -19 -11h-260q19 -85 116 -85q51 0 129 27q19 6 24 -10l22 -67q5 -14 -8 -21z
M563 320q-29 0 -49 -19t-27 -53h151q-11 72 -75 72zM259 103q40 0 63.5 28t23.5 75t-23.5 75t-63.5 28t-63.5 -28t-23.5 -75t23.5 -75t63.5 -28z" />
    <glyph glyph-name="Racute" unicode="&#x154;" horiz-adv-x="651" 
d="M268 748l66 96q14 18 36 18h98q14 0 17.5 -9.5t-8.5 -20.5l-94 -94q-18 -17 -38 -17h-65q-13 0 -16.5 7.5t4.5 19.5zM326 558h-109v-191h108q52 0 82.5 25.5t30.5 70.5q0 46 -30.5 70.5t-81.5 24.5zM217 16q0 -16 -17 -16h-110q-17 0 -17 16v647q0 17 17 17h237
q119 0 191 -59t72 -158q0 -72 -40 -120t-113 -68l191 -248q9 -15 2.5 -21t-23.5 -6h-115q-13 0 -19.5 4t-16.5 18l-165 224h-74v-230z" />
    <glyph glyph-name="racute" unicode="&#x155;" horiz-adv-x="380" 
d="M142 488l61 129q11 23 33 23h87q15 0 20 -8.5t-3 -20.5l-88 -128q-16 -22 -33 -22h-61q-13 0 -17.5 7t1.5 20zM188 16q0 -16 -17 -16h-103q-17 0 -17 16v379q0 17 17 17h103q17 0 17 -17v-40q53 67 117 67q35 0 54 -9q12 -5 8 -24l-22 -88q-4 -16 -24 -10q-28 8 -56 8
q-43 0 -77 -28v-255z" />
    <glyph glyph-name="Rcommaaccent" unicode="&#x156;" horiz-adv-x="651" 
d="M326 558h-109v-191h108q52 0 82.5 25.5t30.5 70.5q0 46 -30.5 70.5t-81.5 24.5zM217 16q0 -16 -17 -16h-110q-17 0 -17 16v647q0 17 17 17h237q119 0 191 -59t72 -158q0 -72 -40 -120t-113 -68l191 -248q9 -15 2.5 -21t-23.5 -6h-115q-13 0 -19.5 4t-16.5 18l-165 224
h-74v-230zM235 -190l45 127q8 23 33 23h87q15 0 19.5 -8t-2.5 -21l-72 -126q-14 -22 -33 -22h-61q-27 0 -16 27z" />
    <glyph glyph-name="rcommaaccent" unicode="&#x157;" horiz-adv-x="380" 
d="M188 16q0 -16 -17 -16h-103q-17 0 -17 16v379q0 17 17 17h103q17 0 17 -17v-40q53 67 117 67q35 0 54 -9q12 -5 8 -24l-22 -88q-4 -16 -24 -10q-28 8 -56 8q-43 0 -77 -28v-255zM2 -192l47 127q8 22 33 22h87q15 0 19.5 -7.5t-2.5 -20.5l-73 -126q-13 -22 -34 -22h-60
q-26 0 -17 27z" />
    <glyph glyph-name="Rcaron" unicode="&#x158;" horiz-adv-x="651" 
d="M273 721q-24 0 -38 19l-70 95q-8 11 -4.5 19t16.5 8h58q21 0 37 -17l53 -58l52 58q14 17 36 17h59q12 0 16 -8t-5 -19l-70 -95q-13 -19 -37 -19h-103zM326 558h-109v-191h108q52 0 82.5 25.5t30.5 70.5q0 46 -30.5 70.5t-81.5 24.5zM217 16q0 -16 -17 -16h-110
q-17 0 -17 16v647q0 17 17 17h237q119 0 191 -59t72 -158q0 -72 -40 -120t-113 -68l191 -248q9 -15 2.5 -21t-23.5 -6h-115q-13 0 -19.5 4t-16.5 18l-165 224h-74v-230z" />
    <glyph glyph-name="rcaron" unicode="&#x159;" horiz-adv-x="380" 
d="M141 461q-23 0 -34 23l-62 129q-6 12 -1.5 19.5t17.5 7.5h46q18 0 33 -22l51 -80l50 80q15 22 32 22h47q13 0 17.5 -7.5t-1.5 -19.5l-62 -129q-11 -23 -34 -23h-99zM188 16q0 -16 -17 -16h-103q-17 0 -17 16v379q0 17 17 17h103q17 0 17 -17v-40q53 67 117 67q35 0 54 -9
q12 -5 8 -24l-22 -88q-4 -16 -24 -10q-28 8 -56 8q-43 0 -77 -28v-255z" />
    <glyph glyph-name="Sacute" unicode="&#x15a;" horiz-adv-x="599" 
d="M244 748l66 96q14 18 36 18h98q14 0 17.5 -9.5t-8.5 -20.5l-94 -94q-18 -17 -38 -17h-65q-13 0 -16.5 7.5t4.5 19.5zM318 114q46 0 71 18t25 48q0 33 -30.5 53.5t-126.5 48.5q-118 34 -166.5 82.5t-48.5 125.5q0 86 64.5 143t188.5 57q132 0 248 -67q15 -9 9 -25l-40 -85
q-10 -22 -30 -11q-112 63 -193 63q-95 0 -95 -61q0 -31 30.5 -48.5t127.5 -46.5q111 -35 162.5 -81.5t51.5 -131.5q0 -95 -69 -150.5t-182 -55.5q-153 0 -271 64q-21 10 -11 30l40 85q9 18 26 8q65 -32 114 -47.5t105 -15.5z" />
    <glyph glyph-name="sacute" unicode="&#x15b;" horiz-adv-x="439" 
d="M171 488l61 129q12 23 33 23h87q15 0 20 -8.5t-3 -20.5l-88 -128q-16 -22 -33 -22h-61q-13 0 -17.5 7t1.5 20zM221 88q47 0 47 30q0 17 -16.5 25.5t-67.5 18.5q-148 29 -148 129q0 59 49 95t134 36q104 0 175 -39q15 -8 8 -23l-24 -61q-8 -21 -31 -10q-73 35 -125 35
q-41 0 -41 -26q0 -15 17.5 -23.5t71.5 -21.5q74 -15 108 -44t34 -83q0 -136 -196 -136q-107 0 -181 37q-18 9 -10 29l23 59q7 18 26 9q77 -36 147 -36z" />
    <glyph glyph-name="Scircumflex" unicode="&#x15c;" horiz-adv-x="599" 
d="M246 738q-14 -17 -37 -17h-58q-13 0 -16.5 7.5t4.5 19.5l70 95q15 19 38 19h103q23 0 37 -19l70 -95q9 -12 5 -19.5t-16 -7.5h-59q-23 0 -36 17l-52 57zM318 114q46 0 71 18t25 48q0 33 -30.5 53.5t-126.5 48.5q-118 34 -166.5 82.5t-48.5 125.5q0 86 64.5 143t188.5 57
q132 0 248 -67q15 -9 9 -25l-40 -85q-10 -22 -30 -11q-112 63 -193 63q-95 0 -95 -61q0 -31 30.5 -48.5t127.5 -46.5q111 -35 162.5 -81.5t51.5 -131.5q0 -95 -69 -150.5t-182 -55.5q-153 0 -271 64q-21 10 -11 30l40 85q9 18 26 8q65 -32 114 -47.5t105 -15.5z" />
    <glyph glyph-name="scircumflex" unicode="&#x15d;" horiz-adv-x="439" 
d="M169 482q-15 -21 -33 -21h-46q-13 0 -17.5 7t1.5 19l62 129q11 24 34 24h99q23 0 34 -24l62 -129q6 -12 1.5 -19t-17.5 -7h-47q-17 0 -32 21l-50 81zM221 88q47 0 47 30q0 17 -16.5 25.5t-67.5 18.5q-148 29 -148 129q0 59 49 95t134 36q104 0 175 -39q15 -8 8 -23
l-24 -61q-8 -21 -31 -10q-73 35 -125 35q-41 0 -41 -26q0 -15 17.5 -23.5t71.5 -21.5q74 -15 108 -44t34 -83q0 -136 -196 -136q-107 0 -181 37q-18 9 -10 29l23 59q7 18 26 9q77 -36 147 -36z" />
    <glyph glyph-name="Scedilla" unicode="&#x15e;" horiz-adv-x="599" 
d="M318 114q46 0 71 18t25 48q0 33 -30.5 53.5t-126.5 48.5q-118 34 -166.5 82.5t-48.5 125.5q0 86 64.5 143t188.5 57q132 0 248 -67q15 -9 9 -25l-40 -85q-10 -22 -30 -11q-112 63 -193 63q-95 0 -95 -61q0 -31 30.5 -48.5t127.5 -46.5q111 -35 162.5 -81.5t51.5 -131.5
q0 -95 -69 -150.5t-182 -55.5q-153 0 -271 64q-21 10 -11 30l40 85q9 18 26 8q65 -32 114 -47.5t105 -15.5zM228 -99q-14 0 -11 13l11 38q2 8 10 9q16 4 41 4q110 0 110 -86q0 -48 -32.5 -74t-86.5 -26q-49 0 -79 16q-9 4 -5 15l14 46q3 10 13 6q20 -9 42 -9q38 0 38 27
q0 23 -34 23q-8 0 -18 -1t-13 -1z" />
    <glyph glyph-name="scedilla" unicode="&#x15f;" horiz-adv-x="439" 
d="M221 88q47 0 47 30q0 17 -16.5 25.5t-67.5 18.5q-148 29 -148 129q0 59 49 95t134 36q104 0 175 -39q15 -8 8 -23l-24 -61q-8 -21 -31 -10q-73 35 -125 35q-41 0 -41 -26q0 -15 17.5 -23.5t71.5 -21.5q74 -15 108 -44t34 -83q0 -136 -196 -136q-107 0 -181 37
q-18 9 -10 29l23 59q7 18 26 9q77 -36 147 -36zM153 -99q-14 0 -11 13l11 38q2 8 10 9q16 4 41 4q110 0 110 -86q0 -48 -32.5 -74t-86.5 -26q-49 0 -79 16q-9 4 -5 15l14 46q3 10 13 6q20 -9 42 -9q38 0 38 27q0 23 -34 23q-8 0 -18 -1t-13 -1z" />
    <glyph glyph-name="Scaron" unicode="&#x160;" horiz-adv-x="599" 
d="M247 721q-24 0 -38 19l-70 95q-8 11 -4.5 19t16.5 8h58q21 0 37 -17l53 -58l52 58q14 17 36 17h59q12 0 16 -8t-5 -19l-70 -95q-13 -19 -37 -19h-103zM318 114q46 0 71 18t25 48q0 33 -30.5 53.5t-126.5 48.5q-118 34 -166.5 82.5t-48.5 125.5q0 86 64.5 143t188.5 57
q132 0 248 -67q15 -9 9 -25l-40 -85q-10 -22 -30 -11q-112 63 -193 63q-95 0 -95 -61q0 -31 30.5 -48.5t127.5 -46.5q111 -35 162.5 -81.5t51.5 -131.5q0 -95 -69 -150.5t-182 -55.5q-153 0 -271 64q-21 10 -11 30l40 85q9 18 26 8q65 -32 114 -47.5t105 -15.5z" />
    <glyph glyph-name="scaron" unicode="&#x161;" horiz-adv-x="439" 
d="M170 461q-23 0 -34 23l-62 129q-6 12 -1.5 19.5t17.5 7.5h46q18 0 33 -22l51 -80l50 80q15 22 32 22h47q13 0 17.5 -7.5t-1.5 -19.5l-62 -129q-11 -23 -34 -23h-99zM221 88q47 0 47 30q0 17 -16.5 25.5t-67.5 18.5q-148 29 -148 129q0 59 49 95t134 36q104 0 175 -39
q15 -8 8 -23l-24 -61q-8 -21 -31 -10q-73 35 -125 35q-41 0 -41 -26q0 -15 17.5 -23.5t71.5 -21.5q74 -15 108 -44t34 -83q0 -136 -196 -136q-107 0 -181 37q-18 9 -10 29l23 59q7 18 26 9q77 -36 147 -36z" />
    <glyph glyph-name="uni0162" unicode="&#x162;" horiz-adv-x="621" 
d="M382 16q0 -16 -17 -16h-110q-17 0 -17 16v542h-208q-16 0 -16 18v86q0 18 16 18h561q16 0 16 -18v-86q0 -18 -16 -18h-209v-542zM191 -190l45 127q8 23 33 23h87q15 0 19.5 -8t-2.5 -21l-72 -126q-14 -22 -33 -22h-61q-27 0 -16 27z" />
    <glyph glyph-name="uni0163" unicode="&#x163;" horiz-adv-x="374" 
d="M344 15q-48 -25 -113 -25q-76 0 -112 36.5t-36 115.5v161h-48q-17 0 -17 16v76q0 17 17 17h48v108q0 17 17 17h102q17 0 17 -17v-108h101q17 0 17 -17v-76q0 -16 -17 -16h-101v-152q0 -49 36 -49q27 0 49 12q17 9 23 -8l26 -69q4 -15 -9 -22zM76 -192l47 127q8 22 33 22
h87q15 0 19.5 -7.5t-2.5 -20.5l-73 -126q-13 -22 -34 -22h-60q-26 0 -17 27z" />
    <glyph glyph-name="Tcaron" unicode="&#x164;" horiz-adv-x="621" 
d="M258 721q-24 0 -38 19l-70 95q-8 11 -4.5 19t16.5 8h58q21 0 37 -17l53 -58l52 58q14 17 36 17h59q12 0 16 -8t-5 -19l-70 -95q-13 -19 -37 -19h-103zM382 16q0 -16 -17 -16h-110q-17 0 -17 16v542h-208q-16 0 -16 18v86q0 18 16 18h561q16 0 16 -18v-86q0 -18 -16 -18
h-209v-542z" />
    <glyph glyph-name="tcaron" unicode="&#x165;" horiz-adv-x="374" 
d="M250 476v135q0 24 24 24h64q14 0 17.5 -6.5t-0.5 -22.5l-26 -131q-4 -23 -26 -23h-32q-12 0 -16.5 5t-4.5 19zM344 15q-48 -25 -113 -25q-76 0 -112 36.5t-36 115.5v161h-48q-17 0 -17 16v76q0 17 17 17h48v108q0 17 17 17h102q17 0 17 -17v-108h101q17 0 17 -17v-76
q0 -16 -17 -16h-101v-152q0 -49 36 -49q27 0 49 12q17 9 23 -8l26 -69q4 -15 -9 -22z" />
    <glyph glyph-name="Tbar" unicode="&#x166;" horiz-adv-x="621" 
d="M382 16q0 -16 -17 -16h-110q-17 0 -17 16v263h-98q-17 0 -17 16v62q0 7 5 12t12 5h98v184h-208q-16 0 -16 18v86q0 18 16 18h561q16 0 16 -18v-86q0 -18 -16 -18h-209v-184h100q7 0 12 -5t5 -12v-62q0 -16 -17 -16h-100v-263z" />
    <glyph glyph-name="tbar" unicode="&#x167;" horiz-adv-x="374" 
d="M344 15q-48 -25 -113 -25q-76 0 -112 36.5t-36 115.5v47h-48q-17 0 -17 15v44q0 17 17 17h48v57h-48q-17 0 -17 15v58q0 17 17 17h48v108q0 17 17 17h102q17 0 17 -17v-108h101q17 0 17 -17v-58q0 -15 -17 -15h-101v-57h101q17 0 17 -17v-44q0 -15 -17 -15h-101v-38
q0 -49 36 -49q27 0 49 12q17 9 23 -8l26 -69q4 -15 -9 -22z" />
    <glyph glyph-name="Utilde" unicode="&#x168;" horiz-adv-x="691" 
d="M301 760q-28 0 -56 -25q-20 -18 -32 -4l-36 40q-10 12 3 25q58 65 111 65q21 0 57.5 -16t53.5 -16q25 0 48 22q21 20 33 6l38 -42q8 -11 -4 -25q-56 -62 -107 -62q-21 0 -58 16t-51 16zM59 266v397q0 7 5 12t12 5h111q17 0 17 -17v-399q0 -72 38 -111t103 -39t103 39
t38 111v399q0 17 18 17h110q17 0 17 -17v-397q0 -127 -78 -201.5t-208 -74.5t-208 74.5t-78 201.5z" />
    <glyph glyph-name="utilde" unicode="&#x169;" horiz-adv-x="513" 
d="M214 521q-29 0 -52 -23q-22 -18 -33 -6l-37 42q-9 10 4 25q60 64 109 64q20 0 53.5 -14.5t48.5 -14.5q25 0 46 20t33 7l35 -40q10 -10 -2 -26q-30 -34 -51.5 -48.5t-48.5 -14.5q-20 0 -55.5 14.5t-49.5 14.5zM325 16v22q-55 -48 -124 -48q-72 0 -114 40t-42 118v248
q0 16 17 16h102q17 0 17 -15v-211q0 -76 69 -76q38 0 75 26v259q0 17 17 17h102q17 0 17 -17v-379q0 -16 -17 -16h-102q-17 0 -17 16z" />
    <glyph glyph-name="Umacron" unicode="&#x16a;" horiz-adv-x="691" 
d="M209 743q-18 0 -18 17v59q0 18 18 18h271q17 0 17 -18v-59q0 -17 -17 -17h-271zM59 266v397q0 7 5 12t12 5h111q17 0 17 -17v-399q0 -72 38 -111t103 -39t103 39t38 111v399q0 17 18 17h110q17 0 17 -17v-397q0 -127 -78 -201.5t-208 -74.5t-208 74.5t-78 201.5z" />
    <glyph glyph-name="umacron" unicode="&#x16b;" horiz-adv-x="513" 
d="M129 501q-17 0 -17 15v61q0 17 17 17h254q17 0 17 -17v-61q0 -15 -17 -15h-254zM325 16v22q-55 -48 -124 -48q-72 0 -114 40t-42 118v248q0 16 17 16h102q17 0 17 -15v-211q0 -76 69 -76q38 0 75 26v259q0 17 17 17h102q17 0 17 -17v-379q0 -16 -17 -16h-102
q-17 0 -17 16z" />
    <glyph glyph-name="Ubreve" unicode="&#x16c;" horiz-adv-x="691" 
d="M345 717q-65 0 -110.5 31t-50.5 95q-1 20 17 20h64q18 0 20 -18q4 -46 60 -46q55 0 59 46q2 18 19 18h65q18 0 17 -20q-5 -64 -50.5 -95t-109.5 -31zM59 266v397q0 7 5 12t12 5h111q17 0 17 -17v-399q0 -72 38 -111t103 -39t103 39t38 111v399q0 17 18 17h110
q17 0 17 -17v-397q0 -127 -78 -201.5t-208 -74.5t-208 74.5t-78 201.5z" />
    <glyph glyph-name="ubreve" unicode="&#x16d;" horiz-adv-x="513" 
d="M257 462q-66 0 -109 34t-48 109q-1 20 17 20h56q17 0 20 -18q7 -61 64 -61q56 0 63 61q3 18 19 18h57q18 0 17 -20q-6 -75 -48.5 -109t-107.5 -34zM325 16v22q-55 -48 -124 -48q-72 0 -114 40t-42 118v248q0 16 17 16h102q17 0 17 -15v-211q0 -76 69 -76q38 0 75 26v259
q0 17 17 17h102q17 0 17 -17v-379q0 -16 -17 -16h-102q-17 0 -17 16z" />
    <glyph glyph-name="Uring" unicode="&#x16e;" horiz-adv-x="691" 
d="M344 710q-56 0 -93 37.5t-37 92.5q0 54 37 91t93 37t94 -37t38 -91q0 -55 -38 -92.5t-94 -37.5zM345 784q23 0 38 16t15 40q0 23 -15 38.5t-38 15.5q-22 0 -37 -15.5t-15 -38.5q0 -24 15 -40t37 -16zM59 266v397q0 7 5 12t12 5h111q17 0 17 -17v-399q0 -72 38 -111
t103 -39t103 39t38 111v399q0 17 18 17h110q17 0 17 -17v-397q0 -127 -78 -201.5t-208 -74.5t-208 74.5t-78 201.5z" />
    <glyph glyph-name="uring" unicode="&#x16f;" horiz-adv-x="513" 
d="M385 580q0 -54 -36.5 -89.5t-92.5 -35.5q-55 0 -90.5 35.5t-35.5 89.5q0 51 36 86t90 35q55 0 92 -35t37 -86zM212 579q0 -21 12.5 -34.5t32.5 -13.5t33 13.5t13 34.5q0 20 -13 32.5t-33 12.5t-32.5 -12.5t-12.5 -32.5zM325 16v22q-55 -48 -124 -48q-72 0 -114 40
t-42 118v248q0 16 17 16h102q17 0 17 -15v-211q0 -76 69 -76q38 0 75 26v259q0 17 17 17h102q17 0 17 -17v-379q0 -16 -17 -16h-102q-17 0 -17 16z" />
    <glyph glyph-name="Uhungarumlaut" unicode="&#x170;" horiz-adv-x="691" 
d="M402 748l65 96q14 18 36 18h83q14 0 17.5 -9.5t-8.5 -20.5l-94 -94q-20 -17 -38 -17h-50q-12 0 -16 7.5t5 19.5zM210 748l66 96q14 18 36 18h83q14 0 17.5 -9.5t-8.5 -20.5l-94 -94q-18 -17 -38 -17h-50q-12 0 -16 7.5t4 19.5zM59 266v397q0 7 5 12t12 5h111q17 0 17 -17
v-399q0 -72 38 -111t103 -39t103 39t38 111v399q0 17 18 17h110q17 0 17 -17v-397q0 -127 -78 -201.5t-208 -74.5t-208 74.5t-78 201.5z" />
    <glyph glyph-name="uhungarumlaut" unicode="&#x171;" horiz-adv-x="513" 
d="M283 488l62 129q10 23 33 23h79q15 0 20 -8.5t-3 -20.5l-88 -128q-16 -22 -33 -22h-54q-13 0 -17.5 7t1.5 20zM103 488l61 129q10 23 33 23h80q14 0 19 -8.5t-3 -20.5l-88 -128q-16 -22 -33 -22h-53q-13 0 -17.5 7t1.5 20zM325 16v22q-55 -48 -124 -48q-72 0 -114 40
t-42 118v248q0 16 17 16h102q17 0 17 -15v-211q0 -76 69 -76q38 0 75 26v259q0 17 17 17h102q17 0 17 -17v-379q0 -16 -17 -16h-102q-17 0 -17 16z" />
    <glyph glyph-name="Uogonek" unicode="&#x172;" horiz-adv-x="691" 
d="M359 -194q-118 0 -118 90q0 60 71 96q-117 9 -185 82t-68 192v397q0 7 5 12t12 5h111q17 0 17 -17v-399q0 -72 38 -111t103 -39t103 39t38 111v399q0 17 18 17h110q17 0 17 -17v-397q0 -108 -58 -178t-158 -91q-70 -16 -70 -63q0 -37 39 -37q16 0 31 6q18 6 23 -9l15 -43
q8 -20 -11 -29q-38 -16 -83 -16z" />
    <glyph glyph-name="uogonek" unicode="&#x173;" horiz-adv-x="513" 
d="M376 -193q-54 0 -86 22.5t-32 68.5q0 70 89 102h-5q-17 0 -17 16v22q-55 -48 -124 -48q-72 0 -114 40t-42 118v248q0 16 17 16h102q17 0 17 -15v-211q0 -76 69 -76q38 0 75 26v259q0 17 17 17h102q17 0 17 -17v-379q0 -14 -16 -16q-36 -4 -59.5 -21.5t-23.5 -43.5
q0 -37 39 -37q15 0 30 6q6 2 10.5 2t7 -2.5t5.5 -9.5l15 -43q5 -11 2.5 -17t-14.5 -11q-36 -16 -81 -16z" />
    <glyph glyph-name="Wcircumflex" unicode="&#x174;" horiz-adv-x="1056" 
d="M475 738q-14 -17 -37 -17h-58q-13 0 -16.5 7.5t4.5 19.5l70 95q15 19 38 19h103q23 0 37 -19l70 -95q9 -12 5 -19.5t-16 -7.5h-59q-23 0 -36 17l-52 57zM397 16q-3 -16 -23 -16h-139q-20 0 -25 16l-192 635q-8 29 21 29h104q29 0 34 -23l138 -508l136 508q3 13 10 18
t24 5h95q29 0 34 -23l135 -508l138 507q6 24 33 24h96q16 0 20.5 -6.5t0.5 -22.5l-193 -635q-5 -16 -23 -16h-150q-21 0 -25 16l-124 454z" />
    <glyph glyph-name="wcircumflex" unicode="&#x175;" horiz-adv-x="759" 
d="M328 482q-15 -21 -33 -21h-46q-13 0 -17.5 7t1.5 19l62 129q11 24 34 24h99q23 0 34 -24l62 -129q6 -12 1.5 -19t-17.5 -7h-47q-17 0 -32 21l-50 81zM297 16q-4 -16 -24 -16h-107q-19 0 -25 16l-125 368q-9 28 21 28h93q29 0 34 -22l64 -247l82 246q4 13 10 18t21 5h84
q25 0 32 -23l81 -244l64 244q7 23 34 23h86q31 0 20 -28l-125 -368q-6 -16 -24 -16h-106q-20 0 -25 16l-83 238z" />
    <glyph glyph-name="Ycircumflex" unicode="&#x176;" horiz-adv-x="625" 
d="M259 738q-14 -17 -37 -17h-58q-13 0 -16.5 7.5t4.5 19.5l70 95q15 19 38 19h103q23 0 37 -19l70 -95q9 -12 5 -19.5t-16 -7.5h-59q-23 0 -36 17l-52 57zM366 0h-110q-17 0 -17 16v220l-225 413q-7 16 -1.5 23.5t21.5 7.5h102q25 0 36 -28l145 -288l143 285q9 18 16 24.5
t20 6.5h93q36 0 20 -31l-226 -415v-218q0 -16 -17 -16z" />
    <glyph glyph-name="ycircumflex" unicode="&#x177;" horiz-adv-x="488" 
d="M194 482q-15 -21 -33 -21h-46q-13 0 -17.5 7t1.5 19l62 129q11 24 34 24h99q23 0 34 -24l62 -129q6 -12 1.5 -19t-17.5 -7h-47q-17 0 -32 21l-50 81zM111 -259q-56 0 -114 28q-14 7 -9 22l26 70q6 16 23 8q46 -19 63 -19q25 0 39 15t35 73l30 82h-17q-19 0 -24 16
l-148 348q-11 28 20 28h93q28 0 35 -22l88 -241l90 245q7 18 28 18h90q24 0 15 -22l-196 -506q-32 -83 -69.5 -113t-97.5 -30z" />
    <glyph glyph-name="Ydieresis" unicode="&#x178;" horiz-adv-x="625" 
d="M405 723q-29 0 -49.5 21t-20.5 50t20.5 49.5t49.5 20.5t50 -20.5t21 -49.5t-21 -50t-50 -21zM216 723q-29 0 -49.5 21t-20.5 50q0 28 21 49t49 21q30 0 51 -20.5t21 -49.5t-21 -50t-51 -21zM366 0h-110q-17 0 -17 16v220l-225 413q-7 16 -1.5 23.5t21.5 7.5h102
q25 0 36 -28l145 -288l143 285q9 18 16 24.5t20 6.5h93q36 0 20 -31l-226 -415v-218q0 -16 -17 -16z" />
    <glyph glyph-name="Zacute" unicode="&#x179;" horiz-adv-x="604" 
d="M246 748l66 96q14 18 36 18h98q14 0 17.5 -9.5t-8.5 -20.5l-94 -94q-18 -17 -38 -17h-65q-13 0 -16.5 7.5t4.5 19.5zM577 15q0 -15 -17 -15h-514q-17 0 -17 15v72q0 26 17 44l338 427h-328q-17 0 -17 16v88q0 18 17 18h489q17 0 17 -18v-79q0 -18 -19 -41l-337 -422h354
q17 0 17 -17v-88z" />
    <glyph glyph-name="zacute" unicode="&#x17a;" horiz-adv-x="428" 
d="M166 488l61 129q11 23 33 23h87q15 0 20 -8.5t-3 -20.5l-88 -128q-16 -22 -33 -22h-61q-13 0 -17.5 7t1.5 20zM403 15q0 -15 -17 -15h-342q-17 0 -17 15v74q0 12 13 25l179 189h-165q-17 0 -17 16v76q0 17 17 17h316q17 0 17 -17v-75q0 -13 -12 -24l-187 -187h198
q17 0 17 -18v-76z" />
    <glyph glyph-name="Zdotaccent" unicode="&#x17b;" horiz-adv-x="604" 
d="M301 723q-34 0 -56 22.5t-22 56.5q0 33 22 55.5t56 22.5t56.5 -22.5t22.5 -55.5q0 -34 -22.5 -56.5t-56.5 -22.5zM577 15q0 -15 -17 -15h-514q-17 0 -17 15v72q0 26 17 44l338 427h-328q-17 0 -17 16v88q0 18 17 18h489q17 0 17 -18v-79q0 -18 -19 -41l-337 -422h354
q17 0 17 -17v-88z" />
    <glyph glyph-name="zdotaccent" unicode="&#x17c;" horiz-adv-x="428" 
d="M218 478q-34 0 -56 22.5t-22 56.5q0 33 22 55t56 22q33 0 56 -22.5t23 -54.5q0 -34 -23 -56.5t-56 -22.5zM403 15q0 -15 -17 -15h-342q-17 0 -17 15v74q0 12 13 25l179 189h-165q-17 0 -17 16v76q0 17 17 17h316q17 0 17 -17v-75q0 -13 -12 -24l-187 -187h198
q17 0 17 -18v-76z" />
    <glyph glyph-name="Zcaron" unicode="&#x17d;" horiz-adv-x="604" 
d="M250 721q-24 0 -38 19l-70 95q-8 11 -4.5 19t16.5 8h58q21 0 37 -17l53 -58l52 58q14 17 36 17h59q12 0 16 -8t-5 -19l-70 -95q-13 -19 -37 -19h-103zM577 15q0 -15 -17 -15h-514q-17 0 -17 15v72q0 26 17 44l338 427h-328q-17 0 -17 16v88q0 18 17 18h489q17 0 17 -18
v-79q0 -18 -19 -41l-337 -422h354q17 0 17 -17v-88z" />
    <glyph glyph-name="zcaron" unicode="&#x17e;" horiz-adv-x="428" 
d="M165 461q-23 0 -34 23l-62 129q-6 12 -1.5 19.5t17.5 7.5h46q18 0 33 -22l51 -80l50 80q15 22 32 22h47q13 0 17.5 -7.5t-1.5 -19.5l-62 -129q-11 -23 -34 -23h-99zM403 15q0 -15 -17 -15h-342q-17 0 -17 15v74q0 12 13 25l179 189h-165q-17 0 -17 16v76q0 17 17 17h316
q17 0 17 -17v-75q0 -13 -12 -24l-187 -187h198q17 0 17 -18v-76z" />
    <glyph glyph-name="florin" unicode="&#x192;" horiz-adv-x="616" 
d="M142 -260q-65 0 -121 32q-14 8 -4 22l42 67q11 17 24 8q30 -16 56 -16q20 0 30 12t15 40l70 398h-49q-16 0 -14 16l14 76q3 17 20 17h49l19 110q30 168 177 168q68 0 124 -32q14 -10 4 -22l-43 -68q-10 -17 -23 -8q-30 17 -57 17q-20 0 -30.5 -12t-15.5 -40l-20 -113h91
q17 0 15 -17l-14 -76q-3 -16 -21 -16h-90l-70 -395q-30 -168 -178 -168z" />
    <glyph glyph-name="uni0218" unicode="&#x218;" horiz-adv-x="599" 
d="M318 114q46 0 71 18t25 48q0 33 -30.5 53.5t-126.5 48.5q-118 34 -166.5 82.5t-48.5 125.5q0 86 64.5 143t188.5 57q132 0 248 -67q15 -9 9 -25l-40 -85q-10 -22 -30 -11q-112 63 -193 63q-95 0 -95 -61q0 -31 30.5 -48.5t127.5 -46.5q111 -35 162.5 -81.5t51.5 -131.5
q0 -95 -69 -150.5t-182 -55.5q-153 0 -271 64q-21 10 -11 30l40 85q9 18 26 8q65 -32 114 -47.5t105 -15.5zM185 -190l45 127q8 23 33 23h87q15 0 19.5 -8t-2.5 -21l-72 -126q-14 -22 -33 -22h-61q-27 0 -16 27z" />
    <glyph glyph-name="uni0219" unicode="&#x219;" horiz-adv-x="439" 
d="M221 88q47 0 47 30q0 17 -16.5 25.5t-67.5 18.5q-148 29 -148 129q0 59 49 95t134 36q104 0 175 -39q15 -8 8 -23l-24 -61q-8 -21 -31 -10q-73 35 -125 35q-41 0 -41 -26q0 -15 17.5 -23.5t71.5 -21.5q74 -15 108 -44t34 -83q0 -136 -196 -136q-107 0 -181 37
q-18 9 -10 29l23 59q7 18 26 9q77 -36 147 -36zM100 -192l47 127q8 22 33 22h87q15 0 19.5 -7.5t-2.5 -20.5l-73 -126q-13 -22 -34 -22h-60q-26 0 -17 27z" />
    <glyph glyph-name="uni021A" unicode="&#x21a;" horiz-adv-x="621" 
d="M382 16q0 -16 -17 -16h-110q-17 0 -17 16v542h-208q-16 0 -16 18v86q0 18 16 18h561q16 0 16 -18v-86q0 -18 -16 -18h-209v-542zM191 -190l45 127q8 23 33 23h87q15 0 19.5 -8t-2.5 -21l-72 -126q-14 -22 -33 -22h-61q-27 0 -16 27z" />
    <glyph glyph-name="uni021B" unicode="&#x21b;" horiz-adv-x="374" 
d="M344 15q-48 -25 -113 -25q-76 0 -112 36.5t-36 115.5v161h-48q-17 0 -17 16v76q0 17 17 17h48v108q0 17 17 17h102q17 0 17 -17v-108h101q17 0 17 -17v-76q0 -16 -17 -16h-101v-152q0 -49 36 -49q27 0 49 12q17 9 23 -8l26 -69q4 -15 -9 -22zM76 -192l47 127q8 22 33 22
h87q15 0 19.5 -7.5t-2.5 -20.5l-73 -126q-13 -22 -34 -22h-60q-26 0 -17 27z" />
    <glyph glyph-name="dotlessj" unicode="&#x237;" horiz-adv-x="240" 
d="M51 -95v490q0 17 17 17h103q17 0 17 -17v-483q0 -171 -152 -171q-59 0 -119 30q-15 8 -9 22l31 68q8 16 23 8q32 -15 54 -15q20 0 27.5 11.5t7.5 39.5z" />
    <glyph glyph-name="circumflex" unicode="&#x2c6;" 
d="M199 482q-15 -21 -33 -21h-46q-13 0 -17.5 7t1.5 19l62 129q11 24 34 24h99q23 0 34 -24l62 -129q6 -12 1.5 -19t-17.5 -7h-47q-17 0 -32 21l-50 81z" />
    <glyph glyph-name="caron" unicode="&#x2c7;" 
d="M200 461q-23 0 -34 23l-62 129q-6 12 -1.5 19.5t17.5 7.5h46q18 0 33 -22l51 -80l50 80q15 22 32 22h47q13 0 17.5 -7.5t-1.5 -19.5l-62 -129q-11 -23 -34 -23h-99z" />
    <glyph glyph-name="breve" unicode="&#x2d8;" 
d="M250 462q-66 0 -109 34t-48 109q-1 20 17 20h56q17 0 20 -18q7 -61 64 -61q56 0 63 61q3 18 19 18h57q18 0 17 -20q-6 -75 -48.5 -109t-107.5 -34z" />
    <glyph glyph-name="dotaccent" unicode="&#x2d9;" 
d="M249 478q-34 0 -56 22.5t-22 56.5q0 33 22.5 55t55.5 22t56 -22.5t23 -54.5q0 -34 -23 -56.5t-56 -22.5z" />
    <glyph glyph-name="ring" unicode="&#x2da;" 
d="M378 580q0 -54 -36.5 -89.5t-92.5 -35.5q-55 0 -90.5 35.5t-35.5 89.5q0 51 36 86t90 35q55 0 92 -35t37 -86zM205 579q0 -21 12.5 -34.5t32.5 -13.5t33 13.5t13 34.5q0 20 -13 32.5t-33 12.5t-32.5 -12.5t-12.5 -32.5z" />
    <glyph glyph-name="ogonek" unicode="&#x2db;" 
d="M319 7q-46 -12 -67 -29t-21 -43q0 -37 39 -37q12 0 30 6q17 6 23 -9l15 -43q5 -12 2.5 -18t-14.5 -11q-41 -16 -81 -16q-55 0 -86 22.5t-31 67.5q0 54 42 82t125 49z" />
    <glyph glyph-name="tilde" unicode="&#x2dc;" 
d="M207 521q-29 0 -52 -23q-22 -18 -33 -6l-37 42q-9 10 4 25q60 64 109 64q20 0 53.5 -14.5t48.5 -14.5q25 0 46 20t33 7l35 -40q10 -10 -2 -26q-30 -34 -51.5 -48.5t-48.5 -14.5q-20 0 -55.5 14.5t-49.5 14.5z" />
    <glyph glyph-name="hungarumlaut" unicode="&#x2dd;" 
d="M276 488l62 129q10 23 33 23h79q15 0 20 -8.5t-3 -20.5l-88 -128q-16 -22 -33 -22h-54q-13 0 -17.5 7t1.5 20zM96 488l61 129q10 23 33 23h80q14 0 19 -8.5t-3 -20.5l-88 -128q-16 -22 -33 -22h-53q-13 0 -17.5 7t1.5 20z" />
    <glyph glyph-name="uni0394" unicode="&#x394;" horiz-adv-x="713" 
d="M507 114l-155 426l-155 -426h310zM37 0q-32 0 -21 27l252 636q7 17 24 17h129q17 0 25 -17l251 -636q11 -27 -21 -27h-639z" />
    <glyph glyph-name="uni03A9" unicode="&#x3a9;" horiz-adv-x="744" 
d="M60 0q-16 0 -16 16v73q0 17 16 17h139v32q-65 22 -111.5 85t-46.5 161q0 133 91.5 219.5t239.5 86.5q147 0 239 -86.5t92 -219.5q0 -98 -46.5 -161t-111.5 -85v-32h138q17 0 17 -17v-73q0 -16 -17 -16h-245q-16 0 -16 16v147q0 15 18 23q110 51 110 187q0 86 -49 139
t-129 53q-81 0 -130 -53t-49 -139q0 -79 30 -121.5t81 -65.5q18 -9 18 -23v-147q0 -16 -17 -16h-245z" />
    <glyph glyph-name="pi" unicode="&#x3c0;" horiz-adv-x="593" 
d="M223 16q0 -16 -17 -16h-102q-17 0 -17 16v287h-54q-18 0 -18 16v76q0 17 18 17h519q17 0 17 -17v-76q0 -16 -17 -16h-54v-92q0 -110 36 -192q7 -19 -14 -19h-105q-15 0 -23 16q-31 62 -31 195v92h-138v-287z" />
    <glyph glyph-name="Wgrave" unicode="&#x1e80;" horiz-adv-x="1056" 
d="M581 748q9 -12 5 -19.5t-17 -7.5h-65q-19 0 -37 17l-94 94q-12 11 -8.5 20.5t17.5 9.5h98q23 0 35 -18zM397 16q-3 -16 -23 -16h-139q-20 0 -25 16l-192 635q-8 29 21 29h104q29 0 34 -23l138 -508l136 508q3 13 10 18t24 5h95q29 0 34 -23l135 -508l138 507q6 24 33 24
h96q16 0 20.5 -6.5t0.5 -22.5l-193 -635q-5 -16 -23 -16h-150q-21 0 -25 16l-124 454z" />
    <glyph glyph-name="wgrave" unicode="&#x1e81;" horiz-adv-x="759" 
d="M427 488q6 -13 1.5 -20t-17.5 -7h-62q-18 0 -32 22l-88 128q-9 12 -4 20.5t20 8.5h88q22 0 32 -23zM297 16q-4 -16 -24 -16h-107q-19 0 -25 16l-125 368q-9 28 21 28h93q29 0 34 -22l64 -247l82 246q4 13 10 18t21 5h84q25 0 32 -23l81 -244l64 244q7 23 34 23h86
q31 0 20 -28l-125 -368q-6 -16 -24 -16h-106q-20 0 -25 16l-83 238z" />
    <glyph glyph-name="Wacute" unicode="&#x1e82;" horiz-adv-x="1056" 
d="M473 748l66 96q14 18 36 18h98q14 0 17.5 -9.5t-8.5 -20.5l-94 -94q-18 -17 -38 -17h-65q-13 0 -16.5 7.5t4.5 19.5zM397 16q-3 -16 -23 -16h-139q-20 0 -25 16l-192 635q-8 29 21 29h104q29 0 34 -23l138 -508l136 508q3 13 10 18t24 5h95q29 0 34 -23l135 -508l138 507
q6 24 33 24h96q16 0 20.5 -6.5t0.5 -22.5l-193 -635q-5 -16 -23 -16h-150q-21 0 -25 16l-124 454z" />
    <glyph glyph-name="wacute" unicode="&#x1e83;" horiz-adv-x="759" 
d="M330 488l61 129q11 23 33 23h87q15 0 20 -8.5t-3 -20.5l-88 -128q-16 -22 -33 -22h-61q-13 0 -17.5 7t1.5 20zM297 16q-4 -16 -24 -16h-107q-19 0 -25 16l-125 368q-9 28 21 28h93q29 0 34 -22l64 -247l82 246q4 13 10 18t21 5h84q25 0 32 -23l81 -244l64 244q7 23 34 23
h86q31 0 20 -28l-125 -368q-6 -16 -24 -16h-106q-20 0 -25 16l-83 238z" />
    <glyph glyph-name="Wdieresis" unicode="&#x1e84;" horiz-adv-x="1056" 
d="M621 723q-29 0 -49.5 21t-20.5 50t20.5 49.5t49.5 20.5t50 -20.5t21 -49.5t-21 -50t-50 -21zM432 723q-29 0 -49.5 21t-20.5 50q0 28 21 49t49 21q30 0 51 -20.5t21 -49.5t-21 -50t-51 -21zM397 16q-3 -16 -23 -16h-139q-20 0 -25 16l-192 635q-8 29 21 29h104
q29 0 34 -23l138 -508l136 508q3 13 10 18t24 5h95q29 0 34 -23l135 -508l138 507q6 24 33 24h96q16 0 20.5 -6.5t0.5 -22.5l-193 -635q-5 -16 -23 -16h-150q-21 0 -25 16l-124 454z" />
    <glyph glyph-name="wdieresis" unicode="&#x1e85;" horiz-adv-x="759" 
d="M468 486q-29 0 -49 21t-20 50t20 49t49 20t50 -20.5t21 -48.5q0 -29 -21 -50t-50 -21zM287 486q-29 0 -49 21t-20 50t20 49t49 20t50 -20.5t21 -48.5q0 -29 -21 -50t-50 -21zM297 16q-4 -16 -24 -16h-107q-19 0 -25 16l-125 368q-9 28 21 28h93q29 0 34 -22l64 -247
l82 246q4 13 10 18t21 5h84q25 0 32 -23l81 -244l64 244q7 23 34 23h86q31 0 20 -28l-125 -368q-6 -16 -24 -16h-106q-20 0 -25 16l-83 238z" />
    <glyph glyph-name="Ygrave" unicode="&#x1ef2;" horiz-adv-x="625" 
d="M365 748q9 -12 5 -19.5t-17 -7.5h-65q-19 0 -37 17l-94 94q-12 11 -8.5 20.5t17.5 9.5h98q23 0 35 -18zM366 0h-110q-17 0 -17 16v220l-225 413q-7 16 -1.5 23.5t21.5 7.5h102q25 0 36 -28l145 -288l143 285q9 18 16 24.5t20 6.5h93q36 0 20 -31l-226 -415v-218
q0 -16 -17 -16z" />
    <glyph glyph-name="ygrave" unicode="&#x1ef3;" horiz-adv-x="488" 
d="M293 488q6 -13 1.5 -20t-17.5 -7h-62q-18 0 -32 22l-88 128q-9 12 -4 20.5t20 8.5h88q22 0 32 -23zM111 -259q-56 0 -114 28q-14 7 -9 22l26 70q6 16 23 8q46 -19 63 -19q25 0 39 15t35 73l30 82h-17q-19 0 -24 16l-148 348q-11 28 20 28h93q28 0 35 -22l88 -241l90 245
q7 18 28 18h90q24 0 15 -22l-196 -506q-32 -83 -69.5 -113t-97.5 -30z" />
    <glyph glyph-name="endash" unicode="&#x2013;" 
d="M36 238q-16 0 -16 17v71q0 17 16 17h427q17 0 17 -17v-71q0 -17 -17 -17h-427z" />
    <glyph glyph-name="emdash" unicode="&#x2014;" horiz-adv-x="1000" 
d="M36 238q-16 0 -16 17v71q0 17 16 17h927q17 0 17 -17v-71q0 -17 -17 -17h-927z" />
    <glyph glyph-name="quoteleft" unicode="&#x2018;" horiz-adv-x="259" 
d="M226 652l-51 -196q-7 -23 -34 -23h-93q-30 0 -17 29l94 195q11 23 33 23h53q23 0 15 -28z" />
    <glyph glyph-name="quoteright" unicode="&#x2019;" horiz-adv-x="259" 
d="M32 460l52 196q6 24 33 24h93q32 0 17 -30l-94 -194q-10 -23 -32 -23h-53q-22 0 -16 27z" />
    <glyph glyph-name="quotesinglbase" unicode="&#x201a;" horiz-adv-x="256" 
d="M29 -95l52 194q6 24 33 24h93q32 0 18 -29l-94 -194q-12 -23 -33 -23h-53q-22 0 -16 28z" />
    <glyph glyph-name="quotedblleft" unicode="&#x201c;" horiz-adv-x="453" 
d="M419 652l-51 -196q-7 -23 -34 -23h-93q-30 0 -17 29l94 195q11 23 33 23h53q23 0 15 -28zM226 652l-51 -196q-7 -23 -34 -23h-93q-30 0 -17 29l94 195q11 23 33 23h53q23 0 15 -28z" />
    <glyph glyph-name="quotedblright" unicode="&#x201d;" horiz-adv-x="453" 
d="M225 460l52 196q6 24 33 24h93q32 0 17 -30l-94 -194q-10 -23 -32 -23h-53q-22 0 -16 27zM32 460l52 196q6 24 33 24h93q32 0 17 -30l-94 -194q-10 -23 -32 -23h-53q-22 0 -16 27z" />
    <glyph glyph-name="quotedblbase" unicode="&#x201e;" horiz-adv-x="450" 
d="M222 -95l52 194q6 24 33 24h93q32 0 18 -29l-94 -194q-12 -23 -33 -23h-53q-22 0 -16 28zM29 -95l52 194q6 24 33 24h93q32 0 18 -29l-94 -194q-12 -23 -33 -23h-53q-22 0 -16 28z" />
    <glyph glyph-name="dagger" unicode="&#x2020;" horiz-adv-x="438" 
d="M279 16q0 -16 -17 -16h-87q-17 0 -17 16v415h-110q-16 0 -16 16v64q0 17 16 17h110v135q0 17 17 17h87q17 0 17 -17v-135h110q17 0 17 -17v-64q0 -16 -17 -16h-110v-415z" />
    <glyph glyph-name="daggerdbl" unicode="&#x2021;" horiz-adv-x="438" 
d="M279 16q0 -16 -17 -16h-87q-17 0 -17 16v134h-110q-16 0 -16 17v64q0 17 16 17h110v183h-110q-16 0 -16 16v64q0 17 16 17h110v135q0 17 17 17h87q17 0 17 -17v-135h110q17 0 17 -17v-64q0 -16 -17 -16h-110v-183h110q17 0 17 -17v-64q0 -17 -17 -17h-110v-134z" />
    <glyph glyph-name="bullet" unicode="&#x2022;" horiz-adv-x="380" 
d="M189 175q-72 0 -113 41.5t-41 111.5q0 68 41.5 110t112.5 42q69 0 112 -42.5t43 -109.5q0 -69 -43 -111t-112 -42z" />
    <glyph glyph-name="ellipsis" unicode="&#x2026;" horiz-adv-x="686" 
d="M571 -10q-36 0 -60.5 25t-24.5 62q0 35 24.5 60t60.5 25q37 0 62 -25t25 -60q0 -37 -25 -62t-62 -25zM341 -10q-36 0 -60.5 25t-24.5 62q0 35 24.5 60t60.5 25q37 0 62 -25t25 -60q0 -37 -25 -62t-62 -25zM111 -10q-36 0 -60.5 25t-24.5 62q0 35 24.5 60t60.5 25
q37 0 62 -25t25 -60q0 -37 -25 -62t-62 -25z" />
    <glyph glyph-name="perthousand" unicode="&#x2030;" horiz-adv-x="1154" 
d="M198 306q-84 0 -133 53t-49 139q0 84 49 138t133 54q82 0 131 -54t49 -138q0 -86 -48.5 -139t-131.5 -53zM578 664q9 16 21 16h86q8 0 10 -5t-3 -12l-424 -649q-8 -14 -19 -14h-88q-18 0 -7 16zM198 406q28 0 45.5 25t17.5 67q0 41 -17.5 66t-45.5 25q-29 0 -46.5 -25
t-17.5 -66q0 -43 17.5 -67.5t46.5 -24.5zM973 -10q-77 0 -120.5 47t-43.5 125q0 76 44 124t120 48t120 -48t44 -124q0 -78 -44 -125t-120 -47zM614 -10q-76 0 -119.5 47t-43.5 125q0 76 43.5 124t119.5 48t120 -48t44 -124q0 -78 -44 -125t-120 -47zM973 80q25 0 41 22.5
t16 59.5t-16 59.5t-41 22.5q-26 0 -41.5 -22.5t-15.5 -59.5q0 -38 15.5 -60t41.5 -22zM614 80q25 0 41.5 22.5t16.5 59.5t-16.5 59.5t-41.5 22.5t-41 -22.5t-16 -59.5q0 -38 16 -60t41 -22z" />
    <glyph glyph-name="guilsinglleft" unicode="&#x2039;" horiz-adv-x="310" 
d="M263 21q0 -30 -27 -12l-190 139q-16 11 -16 25v75q0 13 13 23l193 141q27 18 27 -12v-83q0 -13 -2.5 -18t-13.5 -12l-106 -76l106 -77q11 -7 13.5 -12t2.5 -18v-83z" />
    <glyph glyph-name="guilsinglright" unicode="&#x203a;" horiz-adv-x="310" 
d="M73 9q-27 -18 -27 12v83q0 12 2.5 16.5t13.5 13.5l109 77l-109 76q-11 8 -13.5 12.5t-2.5 17.5v83q0 30 27 12l193 -141q14 -11 14 -23v-75q0 -13 -17 -25z" />
    <glyph glyph-name="fraction" unicode="&#x2044;" horiz-adv-x="163" 
d="M227 664q9 16 21 16h74q17 0 7 -17l-392 -649q-8 -14 -19 -14h-76q-17 0 -7 16z" />
    <glyph glyph-name="zerosuperior" unicode="&#x2070;" horiz-adv-x="352" 
d="M176 306q-75 0 -119 51t-44 141q0 88 44 140t119 52t118.5 -51.5t43.5 -140.5q0 -90 -43 -141t-119 -51zM176 394q51 0 51 104q0 101 -51 101t-51 -101q0 -104 51 -104z" />
    <glyph glyph-name="foursuperior" unicode="&#x2074;" horiz-adv-x="313" 
d="M83 460h77v122zM254 322q0 -11 -13 -11h-67q-14 0 -14 11v68h-146q-12 0 -12 11v51q0 8 8 22l134 196q7 11 25 11h72q13 0 13 -13v-208h37q14 0 14 -12v-47q0 -11 -14 -11h-37v-68z" />
    <glyph glyph-name="Euro" unicode="&#x20ac;" horiz-adv-x="650" 
d="M607 29q-81 -39 -184 -39q-117 0 -202 60t-115 169h-82q-15 0 -12 17l9 56q4 14 19 14h51q-1 11 -1 34t1 34h-66q-15 0 -12 17l9 56q4 14 18 14h66q31 108 114.5 168.5t202.5 60.5q108 0 183 -45q17 -9 9 -24l-41 -71q-10 -19 -24 -10q-49 28 -120 28q-116 0 -167 -107
h245q19 0 13 -17l-17 -53q-5 -17 -19 -17h-244q-2 -22 -2 -34t2 -34h221q17 0 11 -17l-16 -56q-5 -14 -18 -14h-176q24 -52 68 -80.5t103 -28.5q66 0 126 28q15 7 23 -12l35 -74q7 -15 -11 -23z" />
    <glyph glyph-name="uni20B9" unicode="&#x20b9;" horiz-adv-x="546" 
d="M408 27q10 -14 3 -20.5t-24 -6.5h-106q-9 0 -14.5 2.5t-8.5 5.5t-12 14l-186 209q-14 16 -14 31v53q0 17 16 17h48q50 0 86 22t50 60h-184q-16 0 -16 18v57q0 17 16 17h185q-13 39 -49 60.5t-87 21.5h-49q-16 0 -16 17v57q0 18 16 18h428q16 0 16 -18v-57q0 -17 -16 -17
h-137q29 -35 38 -82h99q16 0 16 -17v-57q0 -18 -16 -18h-99q-15 -62 -65.5 -104.5t-119.5 -51.5z" />
    <glyph glyph-name="uni2113" unicode="&#x2113;" horiz-adv-x="525" 
d="M337 -10q-154 0 -222 135l-25 -15q-25 -14 -34 2l-36 65q-8 15 9 25l52 30q-9 50 -9 108q0 175 60.5 262.5t166.5 87.5q81 0 130 -46t49 -134q0 -69 -32.5 -127t-81.5 -99t-129 -89l-2 -1q32 -92 119 -92q42 0 74 16q16 10 23 -8l25 -69q5 -15 -8 -22q-53 -29 -129 -29z
M210 360q0 -20 2 -50q70 45 101 90.5t31 101.5q0 77 -55 77q-79 0 -79 -219z" />
    <glyph glyph-name="trademark" unicode="&#x2122;" horiz-adv-x="725" 
d="M190 383q0 -9 -11 -9h-70q-11 0 -11 9v219h-84q-9 0 -9 11v56q0 11 9 11h261q9 0 9 -11v-56q0 -11 -9 -11h-85v-219zM407 383q0 -9 -11 -9h-64q-11 0 -11 9v285q0 12 11 12h78q12 0 16 -9l83 -175l84 175q5 9 16 9h69q10 0 10 -12v-285q0 -9 -10 -9h-65q-11 0 -11 9v134
l-69 -137q-2 -6 -13 -6h-31q-9 0 -14 6l-68 137v-134z" />
    <glyph glyph-name="Omega" unicode="&#x2126;" horiz-adv-x="744" 
d="M60 0q-16 0 -16 16v73q0 17 16 17h139v32q-65 22 -111.5 85t-46.5 161q0 133 91.5 219.5t239.5 86.5q147 0 239 -86.5t92 -219.5q0 -98 -46.5 -161t-111.5 -85v-32h138q17 0 17 -17v-73q0 -16 -17 -16h-245q-16 0 -16 16v147q0 15 18 23q110 51 110 187q0 86 -49 139
t-129 53q-81 0 -130 -53t-49 -139q0 -79 30 -121.5t81 -65.5q18 -9 18 -23v-147q0 -16 -17 -16h-245z" />
    <glyph glyph-name="estimated" unicode="&#x212e;" horiz-adv-x="712" 
d="M662 257h-496q-4 0 -4 -3v-150q0 -9 7 -18q77 -80 188 -80q118 0 197 90h44q-42 -49 -105.5 -78t-136.5 -29q-127 0 -216.5 80.5t-89.5 194.5q0 115 89.5 196t216.5 81t216.5 -81t89.5 -196v-7zM550 276v151q0 11 -8 19q-76 78 -185 78q-111 0 -187 -81q-8 -6 -8 -19
v-148q0 -4 4 -4h381q3 0 3 4z" />
    <glyph glyph-name="partialdiff" unicode="&#x2202;" horiz-adv-x="524" 
d="M222 -10q-93 0 -146.5 52.5t-53.5 140.5q0 109 65.5 174t169.5 65q49 0 88 -22q-21 170 -138 170q-39 0 -75 -20q-20 -9 -29 12l-28 67q-6 14 10 23q71 38 144 38q118 0 190.5 -90.5t72.5 -252.5q0 -173 -74 -265t-196 -92zM239 103q47 0 75 47t33 130q-28 35 -77 35
t-77.5 -34t-28.5 -91q0 -39 20 -63t55 -24z" />
    <glyph glyph-name="Delta" unicode="&#x2206;" horiz-adv-x="713" 
d="M507 114l-155 426l-155 -426h310zM37 0q-32 0 -21 27l252 636q7 17 24 17h129q17 0 25 -17l251 -636q11 -27 -21 -27h-639z" />
    <glyph glyph-name="product" unicode="&#x220f;" horiz-adv-x="693" 
d="M217 16q0 -16 -17 -16h-110q-17 0 -17 16v647q0 17 17 17h512q17 0 17 -17v-647q0 -16 -17 -16h-110q-17 0 -17 16v542h-258v-542z" />
    <glyph glyph-name="summation" unicode="&#x2211;" horiz-adv-x="559" 
d="M384 360q18 -20 18 -38v-48q0 -16 -18 -38l-187 -240h320q18 0 18 -16v-88q0 -17 -18 -17h-473q-17 0 -17 17v80q0 19 18 39l226 287l-224 244q-19 19 -19 41v79q0 18 18 18h435q18 0 18 -18v-88q0 -16 -18 -16h-276z" />
    <glyph glyph-name="minus" unicode="&#x2212;" horiz-adv-x="425" 
d="M41 176q-17 0 -17 18v67q0 17 17 17h342q17 0 17 -17v-67q0 -18 -17 -18h-342z" />
    <glyph glyph-name="uni2215" unicode="&#x2215;" horiz-adv-x="163" 
d="M227 664q9 16 21 16h74q17 0 7 -17l-392 -649q-8 -14 -19 -14h-76q-17 0 -7 16z" />
    <glyph glyph-name="radical" unicode="&#x221a;" horiz-adv-x="612" 
d="M246 0q-19 0 -25 16l-112 287h-57q-17 0 -17 16v76q0 17 17 17h135q28 0 34 -22l84 -251l163 524q5 17 17 17h102q17 0 12 -17l-210 -647q-5 -16 -18 -16h-125z" />
    <glyph glyph-name="infinity" unicode="&#x221e;" horiz-adv-x="744" 
d="M28 243q0 83 46.5 129t120.5 46q101 0 181 -105q81 106 178 106q69 0 115 -47t46 -129q0 -83 -46.5 -131t-116.5 -48q-58 0 -101 28t-84 80q-41 -56 -81.5 -81.5t-96.5 -25.5q-68 0 -114.5 47t-46.5 131zM433 245q28 -38 51.5 -56t52.5 -18q32 0 49 18t17 52q0 36 -18 55
t-49 19q-29 0 -52.5 -17t-50.5 -53zM205 313q-30 0 -46.5 -19t-16.5 -53t17.5 -52.5t47.5 -18.5q29 0 50.5 16t48.5 53q-27 38 -50 56t-51 18z" />
    <glyph glyph-name="integral" unicode="&#x222b;" horiz-adv-x="430" 
d="M129 -260q-67 0 -129 32q-14 9 -8 22l31 68q8 16 22 8q32 -17 61 -17q19 0 27 12t8 40v617q0 168 148 168q66 0 130 -32q15 -10 8 -22l-31 -68q-8 -16 -23 -8q-32 17 -60 17q-20 0 -27.5 -12t-7.5 -40v-617q0 -168 -149 -168z" />
    <glyph glyph-name="approxequal" unicode="&#x2248;" horiz-adv-x="425" 
d="M154 272q-30 0 -59 -25q-23 -18 -34 -6l-35 45q-11 11 4 27q61 63 119 63q23 0 65 -17t59 -17q29 0 57 25q23 18 33 5l37 -49q9 -11 -5 -25q-56 -60 -106 -60q-25 0 -70.5 17t-64.5 17zM154 115q-30 0 -59 -25q-23 -18 -34 -6l-35 45q-11 11 4 27q61 63 119 63
q23 0 65 -17t59 -17q29 0 57 25q23 18 33 5l37 -49q9 -11 -5 -25q-56 -60 -106 -60q-25 0 -70.5 17t-64.5 17z" />
    <glyph glyph-name="notequal" unicode="&#x2260;" horiz-adv-x="425" 
d="M161 23q-3 -7 -4.5 -9.5t-5.5 -5t-10 -2.5h-72q-19 0 -10 17l36 72h-54q-7 0 -12 5t-5 12v68q0 17 17 17h104l30 61h-134q-17 0 -17 17v68q0 17 17 17h184l36 72q8 17 19 17h74q8 0 10.5 -4.5t-1.5 -12.5l-36 -72h56q17 0 17 -17v-68q0 -17 -17 -17h-106l-30 -61h136
q17 0 17 -17v-68q0 -7 -5 -12t-12 -5h-186z" />
    <glyph glyph-name="lessequal" unicode="&#x2264;" horiz-adv-x="425" 
d="M400 128q0 -19 -19 -13l-341 113q-16 4 -16 24v68q0 18 14 22l343 114q19 6 19 -12v-71q0 -11 -3 -15.5t-14 -7.5l-213 -64l213 -64q11 -4 14 -8t3 -15v-71zM41 0q-17 0 -17 16v68q0 17 17 17h342q17 0 17 -17v-68q0 -16 -17 -16h-342z" />
    <glyph glyph-name="greaterequal" unicode="&#x2265;" horiz-adv-x="425" 
d="M43 115q-19 -6 -19 13v71q0 11 2.5 15t14.5 8l213 64l-213 64q-12 3 -14.5 7.5t-2.5 15.5v71q0 18 19 12l343 -114q14 -4 14 -22v-68q0 -20 -16 -24zM383 0h-342q-17 0 -17 16v68q0 17 17 17h342q17 0 17 -17v-68q0 -16 -17 -16z" />
    <glyph glyph-name="lozenge" unicode="&#x25ca;" horiz-adv-x="458" 
d="M264 0h-72q-16 0 -22 13l-141 258q-8 16 0 31l141 258q6 14 22 14h72q16 0 25 -16l139 -256q9 -16 0 -31l-139 -255q-9 -16 -25 -16zM147 282l81 -162l82 162q3 4 0 9l-82 163l-81 -163q-4 -4 0 -9z" />
    <glyph glyph-name="commaaccent" unicode="&#xf6c3;" 
d="M153 -192l47 127q8 22 33 22h87q15 0 19.5 -7.5t-2.5 -20.5l-73 -126q-13 -22 -34 -22h-60q-26 0 -17 27z" />
    <glyph glyph-name="i.dot" horiz-adv-x="240" 
d="M119 478q-33 0 -55.5 22.5t-22.5 56.5q0 32 22.5 54.5t55.5 22.5t56 -22.5t23 -54.5q0 -34 -23 -56.5t-56 -22.5zM51 16v379q0 17 17 17h103q17 0 17 -17v-379q0 -16 -17 -16h-103q-17 0 -17 16z" />
    <glyph glyph-name="caron.alt" 
d="M217 521v135q0 24 24 24h64q14 0 17.5 -6.5t-0.5 -22.5l-26 -131q-4 -23 -26 -23h-32q-12 0 -16.5 5t-4.5 19z" />
    <glyph glyph-name="revcommaaccent" 
d="M369 612l-47 -129q-8 -22 -33 -22h-87q-15 0 -19.5 7.5t2.5 20.5l74 128q14 23 33 23h62q26 0 15 -28z" />
    <glyph glyph-name="acute.cap" 
d="M195 748l66 96q14 18 36 18h98q14 0 17.5 -9.5t-8.5 -20.5l-94 -94q-18 -17 -38 -17h-65q-13 0 -16.5 7.5t4.5 19.5z" />
    <glyph glyph-name="grave.cap" 
d="M303 748q9 -12 5 -19.5t-17 -7.5h-65q-19 0 -37 17l-94 94q-12 11 -8.5 20.5t17.5 9.5h98q23 0 35 -18z" />
    <glyph glyph-name="circumflex.cap" 
d="M197 738q-14 -17 -37 -17h-58q-13 0 -16.5 7.5t4.5 19.5l70 95q15 19 38 19h103q23 0 37 -19l70 -95q9 -12 5 -19.5t-16 -7.5h-59q-23 0 -36 17l-52 57z" />
    <glyph glyph-name="caron.cap" 
d="M198 721q-24 0 -38 19l-70 95q-8 11 -4.5 19t16.5 8h58q21 0 37 -17l53 -58l52 58q14 17 36 17h59q12 0 16 -8t-5 -19l-70 -95q-13 -19 -37 -19h-103z" />
    <glyph glyph-name="tilde.cap" 
d="M206 760q-28 0 -56 -25q-20 -18 -32 -4l-36 40q-10 12 3 25q58 65 111 65q21 0 57.5 -16t53.5 -16q25 0 48 22q21 20 33 6l38 -42q8 -11 -4 -25q-56 -62 -107 -62q-21 0 -58 16t-51 16z" />
    <glyph glyph-name="dieresis.cap" 
d="M343 723q-29 0 -49.5 21t-20.5 50t20.5 49.5t49.5 20.5t50 -20.5t21 -49.5t-21 -50t-50 -21zM154 723q-29 0 -49.5 21t-20.5 50q0 28 21 49t49 21q30 0 51 -20.5t21 -49.5t-21 -50t-51 -21z" />
    <glyph glyph-name="ring.cap" 
d="M249 710q-56 0 -93 37.5t-37 92.5q0 54 37 91t93 37t94 -37t38 -91q0 -55 -38 -92.5t-94 -37.5zM250 784q23 0 38 16t15 40q0 23 -15 38.5t-38 15.5q-22 0 -37 -15.5t-15 -38.5q0 -24 15 -40t37 -16z" />
    <glyph glyph-name="cedilla.cap" 
d="M206 -99q-13 0 -10 13l10 39q2 7 10 8q13 4 46 4q113 0 113 -87q0 -49 -33 -74.5t-89 -25.5q-52 0 -84 15q-9 5 -5 16l15 46q3 10 13 6q22 -9 46 -9q41 0 41 28q0 23 -37 23q-9 0 -21 -1t-15 -1z" />
    <glyph glyph-name="hungarumlaut.cap" 
d="M307 748l65 96q14 18 36 18h83q15 0 18 -9.5t-9 -20.5l-94 -94q-20 -17 -38 -17h-50q-12 0 -16 7.5t5 19.5zM115 748l66 96q14 18 36 18h83q14 0 17.5 -9.5t-8.5 -20.5l-94 -94q-18 -17 -38 -17h-50q-12 0 -16 7.5t4 19.5z" />
    <glyph glyph-name="breve.cap" 
d="M250 717q-65 0 -110.5 31t-50.5 95q-1 20 17 20h64q18 0 20 -18q4 -46 60 -46q55 0 59 46q2 18 19 18h65q18 0 17 -20q-5 -64 -50.5 -95t-109.5 -31z" />
    <glyph glyph-name="macron.cap" 
d="M114 743q-18 0 -18 17v59q0 18 18 18h271q17 0 17 -18v-59q0 -17 -17 -17h-271z" />
    <glyph glyph-name="dotaccent.cap" 
d="M249 723q-34 0 -56 22.5t-22 56.5q0 33 22 55.5t56 22.5t56.5 -22.5t22.5 -55.5q0 -34 -22.5 -56.5t-56.5 -22.5z" />
    <glyph glyph-name="ogonek.cap" 
d="M319 7q-46 -12 -67 -28.5t-21 -43.5q0 -37 40 -37q13 0 31 7q18 6 22 -10l15 -43q9 -21 -11 -28q-38 -17 -83 -17q-55 0 -86 22.5t-31 67.5q0 54 42 82t125 49z" />
    <glyph glyph-name="commaaccent.cap" 
d="M162 -190l45 127q8 23 33 23h87q15 0 19.5 -8t-2.5 -21l-72 -126q-14 -22 -33 -22h-61q-27 0 -16 27z" />
    <glyph glyph-name="caron.alt.cap" 
d="M205 521v135q0 24 24 24h83q14 0 17.5 -6.5t-0.5 -22.5l-26 -131q-5 -23 -26 -23h-51q-12 0 -16.5 5t-4.5 19z" />
    <glyph glyph-name="zero.plf" horiz-adv-x="604" 
d="M302 -10q-118 0 -189.5 93.5t-71.5 256.5q0 162 71.5 256t189.5 94t189 -94t71 -256t-71 -256t-189 -94zM302 114q50 0 79 61t29 165q0 103 -29 164t-79 61q-51 0 -80 -61t-29 -164q0 -105 29 -165.5t80 -60.5z" />
    <glyph glyph-name="one.plf" horiz-adv-x="309" 
d="M14 558v28q0 16 10 25l72 57q13 12 23 12h100q17 0 17 -18v-646q0 -16 -17 -16h-103q-17 0 -17 16v524h-68q-17 0 -17 18z" />
    <glyph glyph-name="two.plf" horiz-adv-x="511" 
d="M459 0h-405q-17 0 -17 15v70q0 20 13 33q180 206 207 240q51 72 53 118q0 38 -27 63.5t-79 25.5q-62 0 -126 -37q-16 -9 -24 10l-35 80q-6 14 8 24q84 48 205 48q105 0 167.5 -54t62.5 -144q0 -75 -47.5 -147.5t-185.5 -224.5h230q18 0 18 -17v-88q0 -15 -18 -15z" />
    <glyph glyph-name="three.plf" horiz-adv-x="520" 
d="M233 -9q-125 0 -201 41q-14 6 -8 23l28 83q7 19 24 10q65 -34 143 -34q50 0 80 24.5t30 65.5q0 88 -153 88q-17 0 -17 15v81q0 7 5 12t12 5q132 0 132 84q0 34 -23.5 55t-68.5 21q-59 0 -125 -33q-16 -9 -24 9l-35 80q-7 17 8 24q78 45 186 45q106 0 170 -50.5t64 -129.5
q0 -107 -92 -154q113 -48 113 -157q0 -98 -68 -153t-180 -55z" />
    <glyph glyph-name="four.plf" horiz-adv-x="555" 
d="M147 269h166v240zM442 16q0 -16 -17 -16h-95q-17 0 -17 16v140h-282q-17 0 -17 16v78q0 15 13 33l269 381q11 16 30 16h99q17 0 17 -18v-393h75q17 0 17 -17v-80q0 -16 -17 -16h-75v-140z" />
    <glyph glyph-name="five.plf" horiz-adv-x="518" 
d="M227 -9q-115 0 -191 42q-15 7 -9 24l28 82q7 19 24 10q68 -35 142 -35q52 0 82 28t30 79q0 47 -32.5 74t-88.5 27q-35 0 -72.5 -6t-47.5 -6q-17 0 -17 15v339q0 16 17 16h340q17 0 17 -16v-88q0 -18 -17 -18h-225v-114q18 3 36 3q105 -1 173.5 -60.5t68.5 -165.5
t-71 -168t-187 -62z" />
    <glyph glyph-name="six.plf" horiz-adv-x="544" 
d="M272 -10q-110 0 -176.5 61.5t-66.5 162.5q0 59 23.5 114.5t89.5 162.5l101 165q14 24 35 24h104q16 0 22 -7t-2 -22l-136 -212h10q104 0 172 -57t68 -164q0 -109 -66 -168.5t-178 -59.5zM272 109q46 0 71 27.5t25 77.5t-25 77.5t-71 27.5q-45 0 -70 -27.5t-25 -77.5
t25 -77.5t70 -27.5z" />
    <glyph glyph-name="seven.plf" horiz-adv-x="464" 
d="M196 0h-94q-31 0 -20 27l216 531h-269q-17 0 -17 18v88q0 16 17 16h395q17 0 17 -16v-87q0 -17 -9 -38l-202 -517q-8 -22 -34 -22z" />
    <glyph glyph-name="eight.plf" horiz-adv-x="569" 
d="M285 -10q-116 0 -182 56.5t-66 156.5q0 118 108 167q-78 45 -78 141q0 84 57.5 131.5t160.5 47.5q102 0 160 -47.5t58 -131.5q0 -96 -78 -141q107 -48 107 -167q0 -100 -65.5 -156.5t-181.5 -56.5zM285 411q43 0 67.5 22.5t24.5 62.5q0 37 -24.5 58t-67.5 21t-67.5 -21
t-24.5 -58q0 -40 24.5 -62.5t67.5 -22.5zM285 104q50 0 78 27t28 74q0 45 -28 70.5t-78 25.5t-78.5 -25.5t-28.5 -70.5q0 -47 28.5 -74t78.5 -27z" />
    <glyph glyph-name="nine.plf" horiz-adv-x="544" 
d="M266 0h-105q-15 0 -21 6.5t1 20.5l136 213h-10q-104 0 -172 56.5t-68 163.5q0 109 66 169.5t178 60.5q109 0 176 -62t67 -163q0 -58 -23.5 -114.5t-88.5 -161.5l-102 -167q-14 -22 -34 -22zM271 569q-46 0 -71 -27t-25 -78q0 -49 25 -76.5t71 -27.5q45 0 70 27.5t25 76.5
q0 51 -24.5 78t-70.5 27z" />
    </font>
</defs>
</svg>
