
<svg xmlns="http://www.w3.org/2000/svg" version="1.1" xmlns:xlink="http://www.w3.org/1999/xlink" preserveAspectRatio="none" x="0px" y="0px" width="70px" height="42px" viewBox="0 0 70 42">
<defs>
<filter id="Filter_1" x="-20%" y="-20%" width="140%" height="140%" color-interpolation-filters="sRGB">
<feColorMatrix in="SourceGraphic" type="matrix" values="1 0 0 0 0 0 1 0 0 0 0 0 1 0 0 0 0 0 0.7 0" result="result1"/>
</filter>

<g id="Symbol_2_0_Layer0_0_FILL">
<path fill="#FFFFFF" stroke="none" d="
M 59 32
L 59 30
Q 59 29.75 59 29.5 59 17.25 50.35 8.65 41.75 0 29.5 0 17.3 0 8.65 8.65 0 17.25 0 29.5 0 29.75 0 30
L 0 32 59 32
M 48.95 10.05
Q 57 18.05 57 29.5 57 29.75 57 30
L 2 30
Q 2 29.75 2 29.5 2 18.05 10.05 10.05 18.1 2 29.5 2 40.95 2 48.95 10.05 Z"/>
</g>

<g id="Symbol_4_0_Layer0_0_FILL">
<path fill="#FFFFFF" stroke="none" d="
M 1.3 25.8
Q 1.0837890625 25.491015625 0.65 25.4 0.26640625 25.344921875 -0.1 25.55 -0.4087890625 25.8166015625 -0.5 26.2 -0.9947265625 29.1595703125 -1 32.3 -0.996484375 32.7107421875 -0.7 33 -0.4107421875 33.296484375 0 33.3 0.4107421875 33.296484375 0.7 33 0.996484375 32.7107421875 1 32.3 0.99453125 29.3404296875 1.45 26.55 1.5548828125 26.1658203125 1.3 25.8
M 5.55 15.85
Q 5.76875 15.5248046875 5.65 15.1 5.5791015625 14.721875 5.2 14.5 4.875390625 14.2806640625 4.45 14.35 4.072265625 14.4712890625 3.85 14.8 2.2033203125 17.458984375 1.1 20.3 0.978515625 20.678515625 1.15 21.05 1.3171875 21.4275390625 1.7 21.55 2.078515625 21.721484375 2.45 21.55 2.82734375 21.3828125 2.95 21 3.9966796875 18.3408203125 5.55 15.85
M 12.95 5.45
Q 12.5728515625 5.396875 12.25 5.65 10.4484375 7.045703125 8.75 8.75 8.725390625 8.76328125 8.7 8.75 8.2 9.325 7.7 9.85 7.4265625 10.184765625 7.45 10.6 7.46875 11.0162109375 7.75 11.3 8.084765625 11.5744140625 8.5 11.55 8.915234375 11.5310546875 9.2 11.2 9.7 10.675 10.2 10.1
L 10.15 10.15
Q 11.7513671875 8.554296875 13.45 7.25 13.78671875 6.98984375 13.85 6.55 13.903515625 6.1720703125 13.65 5.85 13.390234375 5.5125 12.95 5.45
M 24 0.2
Q 23.6314453125 0.0173828125 23.2 0.1 20.2341796875 0.953515625 17.45 2.35 17.0806640625 2.5353515625 16.95 2.9 16.81640625 3.3228515625 17 3.7 17.184765625 4.0697265625 17.55 4.2 17.9724609375 4.333203125 18.35 4.15 20.965625 2.8462890625 23.75 2.05 24.1708984375 1.9623046875 24.35 1.6 24.5828125 1.23125 24.45 0.8 24.3625 0.4287109375 24 0.2
M 63.35 26.1
Q 63.1078125 26.4646484375 63.15 26.85 63.6060546875 29.4904296875 63.6 32.3 63.603515625 32.7107421875 63.9 33 64.1892578125 33.296484375 64.6 33.3 65.0107421875 33.296484375 65.3 33 65.596484375 32.7107421875 65.6 32.3 65.5939453125 29.3095703125 65.1 26.5 65.059375 26.1302734375 64.7 25.9 64.3849609375 25.6576171875 63.95 25.7 63.5798828125 25.7904296875 63.35 26.1
M 47.75 3.05
Q 47.61875 2.6478515625 47.25 2.45 44.516796875 1.0533203125 41.5 0.2 41.1185546875 0.1173828125 40.75 0.3 40.3875 0.5287109375 40.25 0.9 40.1671875 1.33125 40.35 1.7 40.57890625 2.0623046875 40.95 2.15 43.783203125 2.9466796875 46.35 4.25 46.7150390625 4.43359375 47.1 4.3 47.501953125 4.1703125 47.7 3.8 47.88359375 3.436328125 47.75 3.05
M 51.75 5.6
Q 51.358984375 5.662890625 51.1 6 50.846484375 6.32265625 50.9 6.7 50.963671875 7.140625 51.3 7.4 52.94765625 8.6537109375 54.45 10.15 55.0369140625 10.7375 55.55 11.3 55.8478515625 11.6314453125 56.25 11.65 56.666015625 11.6615234375 56.95 11.35 57.2814453125 11.103125 57.3 10.7 57.310546875 10.2841796875 57 9.95 56.4630859375 9.3625 55.85 8.75 54.25234375 7.14609375 52.5 5.8 52.1763671875 5.5466796875 51.75 5.6
M 63.5 21.25
Q 63.67109375 20.8787109375 63.5 20.5 62.4462890625 17.6091796875 60.8 14.9 60.57890625 14.5720703125 60.15 14.45 59.77578125 14.3806640625 59.4 14.6 59.071484375 14.820703125 58.95 15.2 58.8810546875 15.6234375 59.1 15.95 60.6537109375 18.490625 61.65 21.2 61.822265625 21.5828125 62.2 21.75 62.570703125 21.921484375 62.95 21.75 63.3322265625 21.628125 63.5 21.25
M 35.45 -0.85
Q 33.9005859375 -1.0025390625 32.3 -1 30.9125 -1.0013671875 29.5 -0.9 29.1181640625 -0.8666015625 28.85 -0.55 28.57421875 -0.236328125 28.6 0.15 28.633203125 0.5826171875 28.95 0.85 29.262890625 1.125390625 29.65 1.1 30.9875 1.0013671875 32.3 1 33.79921875 1.00234375 35.25 1.15 35.6578125 1.1892578125 35.95 0.9 36.30234375 0.6611328125 36.35 0.25 36.3896484375 -0.157421875 36.1 -0.5 35.8607421875 -0.8021484375 35.45 -0.85 Z"/>
</g>

<g id="Mask_Symbol_5_0_2_MASK_0_FILL">
<path fill="#FFFFFF" stroke="none" d="
M 60.15 35
Q 59.5 23.8 60.5 11
L 13.65 11 13.65 35 60.15 35 Z"/>
</g>

<g id="Symbol_1_0_Layer0_0_FILL">
<path fill="#FFFFFF" stroke="none" d="
M 2 0
L 0 0 0 19 2 19 2 0 Z"/>
</g>
</defs>

<g transform="matrix( 1, 0, 0, 1, 0,0) ">
<g transform="matrix( 1, 0, 0, 1, 5,5) ">
<g transform="matrix( 1, 0, 0, 1, 0,0) ">
<use filter="url(#Filter_1)" xlink:href="#Symbol_2_0_Layer0_0_FILL"/>
</g>
</g>

<g transform="matrix( 0.671173095703125, 0, 0, 0.6705322265625, 12.5,11) ">
<g transform="matrix( 1, 0, 0, 1, 0,0) ">
<use filter="url(#Filter_1)" xlink:href="#Symbol_4_0_Layer0_0_FILL"/>
</g>
</g>

<mask id="Mask_Mask_1">
<g transform="matrix( 1, 0, 0, 1, 0,0) ">
<use xlink:href="#Mask_Symbol_5_0_2_MASK_0_FILL"/>
</g>
</mask>

<g mask="url(#Mask_Mask_1)">
<g transform="matrix( 0.00836181640625, -0.999786376953125, 0.999786376953125, 0.00836181640625, 16.1,37.45) ">
<g transform="matrix( 1, 0, 0, 1, 0,0) ">
<use filter="url(#Filter_1)" xlink:href="#Symbol_1_0_Layer0_0_FILL"/>
</g>
</g>
</g>
</g>
</svg>
